<?xml version="1.0" encoding="UTF-8"?>
<svg id="Layer_1" data-name="Layer 1" xmlns="http://www.w3.org/2000/svg" width="1000" height="1000" viewBox="0 0 1000 1000">
  <defs>
    <style>
      .cls-1 {
        fill: #040507;
      }

      .cls-2 {
        fill: #8b848b;
      }

      .cls-3 {
        fill: #bdb6b3;
      }

      .cls-4 {
        fill: #bdb4b2;
      }

      .cls-5 {
        fill: #040608;
      }

      .cls-6 {
        fill: #faf9fa;
      }

      .cls-7 {
        fill: #010101;
      }

      .cls-8 {
        fill: #010000;
      }

      .cls-9 {
        fill: #51739a;
      }

      .cls-10 {
        fill: #020203;
      }

      .cls-11 {
        fill: #3d587c;
      }

      .cls-12 {
        fill: #f7f6f6;
      }

      .cls-13 {
        fill: #232531;
      }

      .cls-14 {
        fill: #99979b;
      }

      .cls-15 {
        fill: #4b5a77;
      }

      .cls-16 {
        fill: #374b83;
      }

      .cls-17 {
        fill: #f9f8f8;
      }

      .cls-18 {
        fill: #f9f9fa;
      }

      .cls-19 {
        fill: #c3bcbc;
      }

      .cls-20 {
        fill: #968f97;
      }

      .cls-21 {
        fill: #435f82;
      }

      .cls-22 {
        fill: #f6f5f3;
      }

      .cls-23 {
        fill: #bdb4b0;
      }

      .cls-24 {
        fill: #a4bdd2;
      }

      .cls-25 {
        fill: #beb5b1;
      }

      .cls-26 {
        fill: #908e90;
      }

      .cls-27 {
        fill: #b7cbdf;
      }

      .cls-28 {
        fill: #426389;
      }

      .cls-29 {
        fill: #faf9f9;
      }

      .cls-30 {
        fill: #949598;
      }

      .cls-31 {
        fill: #a6a6a6;
      }

      .cls-32 {
        fill: #4e6c8a;
      }

      .cls-33 {
        fill: #8f5b41;
      }

      .cls-34 {
        fill: #99999a;
      }

      .cls-35 {
        fill: #9d5175;
      }

      .cls-36 {
        fill: #d0dae2;
      }

      .cls-37 {
        fill: #0a0c0e;
      }

      .cls-38 {
        fill: #908d90;
      }

      .cls-39 {
        fill: #949198;
      }

      .cls-40 {
        fill: #fff;
      }

      .cls-41 {
        fill: #c27d57;
      }

      .cls-42 {
        fill: #f0f1f0;
      }

      .cls-43 {
        fill: #f9f9f9;
      }

      .cls-44 {
        fill: #0c0d10;
      }

      .cls-45 {
        fill: #b2c8e0;
      }

      .cls-46 {
        fill: #f9f8f9;
      }

      .cls-47 {
        fill: #fafafa;
      }

      .cls-48 {
        fill: #c6c3c3;
      }

      .cls-49 {
        fill: #476287;
      }

      .cls-50 {
        fill: #1e2f41;
      }

      .cls-51 {
        fill: #928d93;
      }

      .cls-52 {
        fill: #f8f8f8;
      }

      .cls-53 {
        fill: #939396;
      }

      .cls-54 {
        fill: #050507;
      }

      .cls-55 {
        fill: #918f92;
      }

      .cls-56 {
        fill: #948f96;
      }

      .cls-57 {
        fill: #fcfafa;
      }

      .cls-58 {
        fill: #959698;
      }

      .cls-59 {
        fill: #f6f5f5;
      }

      .cls-60 {
        fill: #929396;
      }

      .cls-61 {
        fill: #c2b7b3;
      }

      .cls-62 {
        fill: #3d5b7b;
      }

      .cls-63 {
        fill: #fbf8f3;
      }

      .cls-64 {
        fill: #4b688e;
      }

      .cls-65 {
        fill: #1f2a39;
      }

      .cls-66 {
        fill: #537abc;
      }

      .cls-67 {
        fill: #e47a9d;
      }

      .cls-68 {
        fill: #4f6b97;
      }

      .cls-69 {
        fill: #fbfbfb;
      }

      .cls-70 {
        fill: #fcfcfc;
      }

      .cls-71 {
        fill: #cfcecd;
      }

      .cls-72 {
        fill: #faf8f8;
      }

      .cls-73 {
        fill: #959699;
      }

      .cls-74 {
        fill: #958b93;
      }

      .cls-75 {
        fill: #afd3f4;
      }

      .cls-76 {
        fill: #c1bbb8;
      }

      .cls-77 {
        fill: #929195;
      }

      .cls-78 {
        fill: #fdfdfd;
      }

      .cls-79 {
        fill: #8993be;
      }

      .cls-80 {
        fill: #959697;
      }
    </style>
  </defs>
  <path class="cls-40" d="M891.13,640.81c36.42-74.85,56.97-155.01,70.8-216.48,2.57-11.49-4.93-16.27-8.12-18.31-.33-.21-.67-.42-1.02-.66-32.64-21.9-67.59-40.51-103.86-55.31,20.44-38.2,46.7-70.18,78.08-95.06,6.5-5.15,12.91-12.69,4.7-25.45-8.23-12.78-16.33-26.02-24.15-38.83-5.99-9.79-12.17-19.91-18.41-29.8-2.57-4.08-5.12-8.16-7.67-12.25-16.91-27.07-34.39-55.07-56.78-79.56-16.01-17.5-35.63-26.36-59.99-27.09-40.17-1.22-81.05,7.96-128.7,28.88-6.38,2.8-9.55,2.67-15.45-.66-38.65-21.8-76.22-32.82-114.86-33.7-42.44-.97-84.21,10.14-124.17,33.03-7.19,4.12-11.25,4.41-18.08,1.29-31.13-14.22-64.24-23.73-98.42-28.26-45.25-5.97-78.2,7.14-100.72,40.05-.48.7-1.11,1.47-1.77,2.29l-.86,1.07c-25.37,32.42-47.08,67.75-68.07,101.92-9.17,14.93-18.65,30.37-28.26,45.26-6.42,9.86-.72,16.21,3.24,19.12,31.96,23.46,58.12,54.5,82.21,97.6-40.62,15.27-77.14,37.81-104.56,55.84-7.47,4.9-10.07,11.44-7.95,19.97,1.66,6.68,3.16,13.58,4.61,20.25.84,3.83,1.67,7.67,2.54,11.48,23.02,102.05,55.48,181.85,101.78,250.05l-11.08,1.91,7.85,33.11,1.55,1.73c.48.54.96,1.04,1.42,1.5l.02,1.74c.09,8.22.17,15.99-.08,23.68-.13,1.45-2.03,5.62-3.28,8.38-3.33,7.3-7.04,15.47-4.59,22.66v1.01c.08,15.52.21,44.42-.94,60.32-.21,2.89.81,5.7,2.79,7.71,3.27,3.31,7.3,3.07,9.47,2.94,2.15-.13,2.94-.09,3.98.81,7.42,6.5,16.51.96,21.93-2.35.82-.5,1.97-1.21,2.71-1.6,2.7-.14,4.84-.58,5.96-.82,15.02-3.12,30.07-5.88,46.8-8.91l.3-.05c4.38-.79,8.54-1.55,12.56-3l7.82-1.03c-1.7,1.61-3.18,3.48-4.43,5.61-2.75,4.7-3.89,10.04-3.34,15.56-.76,3.77-2.64,8.23-4.65,12.97-2.71,6.42-5.79,13.69-7.47,22.2-.93,4.63-2.72,8.49-5.63,12.13l-.88,1.1-14.09,36.51,36.68.24.85-.16c4.24-.78,8.2-1.51,12.16-2.24l9.5-1.75,23.66-3.19c4.71-.63,9.31-1.25,13.92-1.88l56.61-7.71-3.9-2.92c.29-.16.59-.33.88-.5,4.66,2.12,10.01,3.19,15.45,3.16.31,0,.63-.01.89-.02,7.8-.26,16.09-.83,25.35-1.73.82-.08,1.66-.19,2.5-.32l52.77-3.08,34.53.07-.05.23,44.75.09,22.63,1.43c2.96.19,5.9.37,8.83.54l2.79.17c10.43.64,20.29,1.24,30.26,2.01.92.07,1.83.1,2.7.09,3.13-.03,6.09-.55,8.85-1.53,3.37,1.54,6.95,2.56,10.69,3.04,9.53,1.24,17.43,2.1,24.84,2.7.88.07,2.53.21,4.53.19.81,0,1.6-.04,2.39-.1l-.19,1.17,80.46,4.26-8.22-19.3,9.42,9.42.11-56.43c0-1.66-.01-3.25-.02-4.79v-.25c-.03-2.93-.06-5.71.08-8.1.34-6.17-1.05-11.86-3.92-16.56,4.32.61,8.61,1.21,12.86,1.81,8.79,1.25,17.58,2.49,26.37,3.7,2.62.67,5.24.98,7.67.98.93-.01,1.88-.07,2.82-.19l22.63,4.19c25.24,4.66,49.08,9.07,73.03,13.57,2.14.4,4.21.58,6.25.57,6.43-.07,12.23-2.33,16.77-6.55,5.96-5.54,8.7-13.47,7.71-22.32-.96-8.55-1.67-16.42-2.17-24.03-.6-9.02-4.53-16.44-11.11-21.03l-1.9-10.73-9.82,6.36c-6.94-.72-12.59,1.59-14.68,2.45-.63.26-1.27.53-1.9.8-.02,0-.04.02-.07.03-5.92-1.22-12.42-2.54-19.1-3.84-.87-20.91-1.91-41.58-2.92-61.63-.03-.6-.07-1.19-.1-1.85-.01-.25-.03-.55-.05-.87l4.61-28.49c13.78-21.72,26.4-44.57,39.58-71.67Z"/>
  <g>
    <path class="cls-8" d="M953.04,422.35c-16.59,73.72-36.88,146.2-70.1,214.48-12.01,24.69-25,48.81-40.52,73.03l-681.67,4.62c1.36-2.02.29-2.96-.38-3.93-54.37-77.13-85.52-163.93-106.1-255.12-2.41-10.63-4.56-21.33-7.19-31.92-1.17-4.7-.17-7.37,4.11-10.17,33.31-21.91,67.58-42.02,105.14-55.82,6.49-2.38,6.46-4.7,3.49-10.07-21.99-39.77-48.9-75.36-85.88-102.5-3.24-2.38-2.93-3.87-1-6.82,31.65-49.05,59.77-100.41,95.88-146.54,1-1.26,2.05-2.49,2.96-3.81,22.5-32.89,54.47-41.15,92.04-36.19,33.36,4.43,65.35,13.6,95.83,27.52,10.01,4.58,17.18,3.61,26.38-1.67,36.89-21.14,76.65-32.81,119.44-31.83,39.68.89,76.33,13.19,110.6,32.52,8.31,4.69,14.54,5.03,23.58,1.06,39.65-17.41,80.73-29.45,124.76-28.11,21.3.64,38.91,8.13,53.56,24.14,25.13,27.48,43.81,59.32,63.47,90.52,14.36,22.79,28.02,46.05,42.61,68.7,4.11,6.38,2.97,8.9-2.7,13.39-34.72,27.54-61.5,61.64-82.02,100.85-3.49,6.67.59,7.51,4.87,9.25,36.39,14.75,70.89,33.09,103.5,54.97,3.4,2.29,6.67,3.46,5.34,9.43Z"/>
    <path class="cls-66" d="M734.65,557.95c-12.23,7.48-23.33,3.33-34.11-3.4-2.98-1.86-5.72-4.12-8.57-6.2-15.95-9.95-21.19-9.97-33.21,3.15-28.78,31.42-63.66,31.72-100.07,19-42.28-14.77-71.98-44.55-92.79-83.72-11.14-20.95-19.14-43.16-26.75-65.53-6.42-32.16-16.11-64.12-5.59-97.41-9.37,13.76-13.54,29.03-15.37,45.08-1.64,3.99-.5,8.15-.75,12.23-.18,2.91-1.83,4.88-4.05,2.93-10.86-9.57-23.82-10-37.13-9.46,1.58-12.79,9.74-21.49,20.7-31.1-11.57,3.27-17.84,10.02-24.6,16.01-11.95-.33-17.5-10.05-23.3-17.72-14.69-19.4-13.49-41.06-4.93-62.56,2.4-6.03,6.43-12.05,14.87-10.85,15.49,2.29,30.35,6.91,46.07,11.41-3.45,4.74-8.72,4.17-12.55,7.82,13.27-.42,25.06-3.43,37.05-8.7,1.16,4.97-2.39,7.5-3.69,10.75-.99,2.48-1.34,5.35-4.05,6.81,2.3-1.19,3.38-4.24,6.32-4.54,14.75-13.82,23.94-31.48,33.74-48.73-.91-1.91-.46-3.56.97-5.02,3.4-2.2,6.8-4.4,10.2-6.59-.12-.41-.24-.82-.36-1.22-7.13,1.78-14.26,3.55-21.39,5.33-4.38-3.68-4.23-9.13-5.34-14.03-4.92-21.67-15.07-39.88-33.63-52.98-7.95-5.62-15.19-5.38-22.96-.06-7.93,5.43-13.79,12.63-17.2,21.38-5.26,13.48-6.78,27.68-5.85,42.12.12,8.36,2.05,16.37,4.85,24.28-16.36-.34-16.48-.32-18.95-15.16-3.93-23.67-9.35-47.23-5.47-71.52.81-5.1,1.95-10.04,4.08-14.74.91-4.41,2.47-8.55,5.36-12.04,3.53-4.27,3.46-6.71-2.54-8.72-26.1-8.77-51.72-18.85-77.57-28.94,2.44,2.94,5.2,5.32,3.23,9.36-.09.18-.5.28-.75.27-.31-.02-.61-.2-.91-.3-6.55-2.57-12.94-5.69-19.68-7.62-22.51-6.48-42.34-1.82-59.3,14.79-15.76,15.44-26.64,34.41-38.84,52.45-.98,5.18-3.35,9.63-7.48,14.1,18.08-12.38,36.64-21.92,56.93-28.3,24.94-7.85,46-1.98,64.57,15.61,18.75,17.76,30.61,39.27,35.9,64.51,2.68,12.8,1.41,25.22-5.43,36.25-13.19,21.26-24.7,43.52-38.41,64.47-3.36,5.14-7.27,9.8-12.31,13.38-10.65,7.58-18.32,6.85-26.76-3.12-9.33-11.02-16.55-23.68-26.18-34.46-13.24-14.82-26.48-29.68-44.19-39.53-14.49-14.56-29.33-28.7-46.52-40.13-5.18-3.44-5.12-7.57-1.16-12.11,24.22-27.74,41.22-60.43,62.09-90.47,7.68-11.06,15.59-21.91,25.62-31.16,26.93-24.84,57.9-26.19,91.01-16.65,21.31,6.14,42.46,12.78,63.06,20.95,11.4,4.52,20.72,4.73,32.22-2.34,29.35-18.03,61.74-27.32,96.45-30.29,45.89-3.93,89.43,2.85,128.86,26.38,17.01,10.15,31.09,10.41,48.51,3.22,19.83-8.18,40.5-14.45,61.5-19.44,46.36-11.02,77.57,1.14,105.03,40.18,17.94,25.5,33.36,52.61,51.19,78.16,5.34,7.65,11.05,14.99,16.56,22.49,2.71,3.68,4.49,8.08-.09,10.97-18.04,11.41-32.19,27.41-48.74,40.56-17.3,11.41-31.31,26.38-44.56,42-7.66,9.02-14.3,18.91-21.26,28.52-9.03,12.44-21.47,13.45-33.02,3.35-6.67-5.84-11.23-13.22-15.14-20.91-7.87-15.45-16.3-30.61-26.13-44.83-15.5-22.43-15.76-45.14-4.16-69.05,8.9-18.34,18.73-35.94,36.09-47.7,18.68-12.66,38.69-16.29,60.25-7.63,16.7,6.71,32.83,14.49,48.06,23.87.2-4.16-3.91-6.85-3.53-10.95-9.22-16.19-19.3-31.8-31.64-45.82-22.97-26.09-49.26-31.23-80.43-15.88-2.58,1.27-5.12,2.65-7.68,3.97q-1.47-3.6,3.11-9.77c-25.9,9.2-50.4,19.92-75.87,27.95-5.7,1.8-5.81,4.6-2.67,9.16,2.25,3.27,6.03,5.91,5.62,10.64,9.02,32.17,3.86,64.07-1.98,95.92-1,5.43-1.33,5.37-17.84,7.18,1.1-4.03,2.16-7.93,3.22-11.83,1.27-14.65,2.33-29.21-1.25-43.82-3.36-13.73-10.63-24.54-21.37-33.42-5.31-4.39-10.8-5.27-16.95-2.27-10.3,5.02-19.21,11.67-25.02,21.8-6.74,11.76-12.23,24.01-14.25,37.6-.86,5.77-2.52,11.09-10.39,8.87-5.34-1.38-10.68-2.75-18.47-4.75,5.7,3.8,9.28,6.19,12.86,8.57,1.54,2.22,1.25,4.92,1.91,7.37,11.04,19.44,21.82,39.09,41.17,55.13-3.48-8.42-9.52-13.28-10.86-21.48,12.37,3.45,23.99,8.81,37.37,8.29-3-3.65-8.42-2.72-11.24-7.52,12.46-4.3,24.77-8.15,37.72-9.79,16.55-1.61,21.45,1.66,25.83,17.84,6.91,25.51.43,47.31-18.8,65.29-3.93,3.67-8.13,7.44-14.34,6-6.8-6.46-13.08-13.66-24.43-16.64,9.92,7.44,16.09,15.59,18.86,26.06,2,5.13.14,7.69-5.11,6.22-9.27-2.59-16.7.56-23.73,6.15-2.14,1.7-4.52,4.57-7.4,3.05-2.93-1.55-1.08-5.14-1.44-7.81-.25-1.85.27-3.8-.71-5.57-1.85-15.62-6.25-30.35-15.48-43.56,5.41,21.06,6.16,41.99-.17,62.88-6.39,12.58-12.24,25.24-13.44,39.7-2.98,36.02,7.16,67.05,34.09,91.82,21.02,19.33,52.76,14.9,67.6-6.31,4.34-6.2,10.03-11.63,15.53-16.99,14.99-14.63,49.09-19.85,67.74-10.42,6.74,3.41,10.56,8.96,12.09,16.38,4.27,20.74-.92,38.59-15.84,53.62Z"/>
    <path class="cls-16" d="M846.23,189.71c-12.99-6.84-25.76-14.13-39-20.45-38.48-18.38-66.24-12.36-91.76,21.69-13.24,17.66-23.89,37.25-23.47,60.74.14,7.94,2.15,15.24,6.01,21.96,12.43,21.68,25.16,43.18,37.59,64.86,3.12,5.45,7.44,9.75,12.16,13.5,8.82,7.01,19.95,4.49,26.98-6.03,17.01-25.48,36.85-48.38,60.9-67.49,1.45-1.15,2.51-4.44,5.32-1.71,1.66,4.09-1.35,6.63-3.28,9.41-22.45,32.32-36.85,67.91-43.52,106.66-1.3,7.58-4.41,14.63-6.05,22.09-10.65,15.72-27.13,20.27-44.45,23.21-34.06,5.78-59.57-9.36-81.65-33.19-2.81-3.03-1.52-4.77.41-7.29,4.27-5.61,8.34-11.38,12.34-17.19,20.44-29.69,22.69-61.3,9.32-94.26-3.48-8.58-7.15-17.49-12.71-24.73-6.71-8.74-6.63-17.03-4.32-26.94,6.92-29.75,18.15-57.45,36.91-81.74,11.24-14.56,25.25-25.45,43.18-30.72,14.11-4.15,27.16-2.47,39.16,6.56,18.56,13.97,34.43,30.75,50.35,47.5,4.84,3.35,8.5,7.54,9.6,13.54Z"/>
    <path class="cls-75" d="M788.1,414.94c3.1-27.85,9.69-54.81,20.4-80.76,8.45-20.49,19.69-39.36,32.44-57.4,14.55-14.97,29.31-29.69,47.32-40.61,3.07-1.86,5.34-3.45,2.09-7.34-27.23-32.59-46.32-70.72-71.24-104.9-14.03-19.24-30.94-34.22-55.06-39.05-14.07-2.82-27.94-1.16-41.86,1.82-29.22,6.27-56.74,17.9-85.16,26.66-6.46,1.99-11.72,1.06-17.2-2.62-38.35-25.71-81.17-36-126.72-34.43-42.99,1.48-83.55,12.26-119.18,37.6-4.81,3.42-8.74.93-12.57-.31-17.06-5.52-33.85-11.9-50.91-17.41-19.16-6.19-38.32-12.35-58.85-12.64-26.24-.38-45.91,12.31-62.41,30.93-16.22,18.31-28.56,39.44-41.34,60.15-11.31,18.32-23.54,35.91-37.62,52.18-2.86,3.31-3.87,4.8.66,7.85,17.58,11.83,33.72,25.4,47.32,41.8,11.67,7.02,15.87,19.7,22.31,30.45,10.67,17.81,18.57,37.02,25.04,56.76.97,2.97,2.54,5.96.93,9.22-11.44,7.53-11.35,7.49-16.56-5.01-20.21-48.41-48.91-90.83-88.86-125.24-2.92-2.51-5.8-4.06-2.66-9.14,26.46-42.86,52.38-86.07,81.97-126.91,1.5-2.08,3.4-3.88,4.82-6.01,18.06-27.02,43.61-34.26,74.62-29.97,38.23,5.29,74.66,15.63,108.38,34.55,4.51,2.53,7.1.85,10.3-1.18,26.49-16.84,54.7-29.58,85.66-35.64,55.82-10.92,106.17,3.92,153.07,33.42,6.78,4.27,11.25,4.77,18.58,1.04,37.54-19.1,77.09-31.2,119.6-32.98,22.8-.96,40.17,7.56,54.44,24.93,21.07,25.65,38.4,53.75,55.73,81.89,11.44,18.57,22.73,37.23,34.38,55.67,2.67,4.23,2.91,6.56-1.31,10.15-40.18,34.21-67.87,77.42-89.19,125.13-7.06,15.8-14.23,31.56-21.35,47.33Z"/>
    <path class="cls-35" d="M146.38,546.64c.86,37.83,8.96,73.72,28.43,106.59,2.37,4,2.43,8.56,2.8,13.05,1.22,14.76,2.95,29.42,11.15,42.77-5.91,2.3-6.85-2.76-8.78-5.34-37.71-50.33-63.9-106.5-83.4-165.97-11.2-34.15-20.69-68.78-27.74-104.06-.96-4.79-1.1-8.14,3.76-11.33,28.8-18.88,59.12-34.73,91-47.74,6.25-2.55,8.46-1.03,11.36,4.88,4.87,9.9,4.62,18.76-1.25,27.78-3.3,4.31-8.32,5.71-12.97,7.79-12.56,5.62-24.51,12.4-36.54,19.05-5.97,3.3-7.8,7.41-6.37,14.13,6.14,28.82,14.17,57.07,24.37,84.7,1.67,4.51,2.74,9.16,4.18,13.71Z"/>
    <path class="cls-35" d="M814.79,402.7c3.71-8.52,7.63-16.96,11.04-25.59,1.71-4.33,3.89-5.07,8.03-3.34,32.93,13.71,64.38,30.21,94.33,49.58,2.92,1.89,3.6,4.07,2.88,7.26-19.31,85.7-44.96,169.06-90.69,244.98-.62,1.02-1.57,1.84-3.64,4.2,4.15-29.22,2.05-56.34-4.35-83.17.08-8.71,4.93-15.81,8.29-23.28,18.21-40.55,30.13-83.08,40.77-126.06,1.59-6.43-1.12-9.36-6.35-11.98-16.91-8.46-33.79-16.96-51.33-24.11-3.89-1.59-9.05-2.44-8.99-8.47Z"/>
    <path class="cls-16" d="M206.48,372.91c-11.62-34.39-26.47-67.15-48.28-96.44,4.79-1,7.05,3.02,10.04,5.31,23.11,17.77,40.91,40.32,57.47,64.02,10.21,14.62,18.4,15.24,31.01,2.67,8.97-8.94,14.32-20.37,20.73-31.04,6.59-10.97,12.43-22.43,19.56-33.04,10.01-14.89,14.32-30.49,9.6-48.16-7.53-28.21-22.01-51.85-46.38-68.42-21.75-14.79-43.88-8.67-66.01.03-16.75,6.59-31.39,16.7-48.46,27.65,5.42-8.48,8.63-15.57,14.08-21.28,3.97,3.89,4.79-1.32,6.18-2.63,11.01-10.31,21.31-21.4,32.56-31.44,32.01-28.56,63.79-26.16,92.5,6.61,25.11,28.67,37.05,63.3,45.08,99.74,1.03,4.68-1.78,7.24-3.8,10.32-12.31,18.74-20.96,38.85-24.61,61.14-2.08,12.7.19,24.78,4.15,37.86-37.01-1.72-71.87,3.92-105.42,17.09Z"/>
    <path class="cls-67" d="M814.79,402.7c1.57,3.79,5.38,4.34,8.53,5.61,19.36,7.77,37.97,17.14,56.49,26.68,3.51,1.81,6.47,2.92,5.16,8.4-12.55,52.79-27.71,104.66-52.58,153.22-5.83-19.28-11-38.81-19.6-57.1-15.2-32.34-35.04-61.01-66.04-80.64,2.95-3.07,6.64-2.92,9.93-3.72,28.87-6.99,47.26-25.53,58.1-52.46Z"/>
    <path class="cls-16" d="M786.55,706.02c-30.67-2.11-61.33-4.27-92-6.31-5.19-.35-7.62-3.35-9.91-7.66-7.92-14.93-5.21-30.68-3.94-46.23,1.93-23.65,3.87-47.29,3.9-71.03,0-6.63,1.48-7.89,7.43-4.11,13.08,8.31,27.41,10.14,42.46,6.55,10.55,20.74,16.56,42.86,19.78,65.79,1.07,7.61,2.77,15.08,4.46,22.56,3.26,14.42,10.76,25.8,23.3,33.79,2.37,1.51,5.08,3.02,4.51,6.63Z"/>
    <path class="cls-66" d="M237.17,509.62c3.42,13.38-3.44,22.97-12.24,32.46,6.48-.23,12.07-1.74,17.64-4.14,13.3-5.72,23.21,1.15,23.34,15.9-3.92,5.36-10.05,6.46-15.84,8.12-12.6,3.61-24.98,7.72-35.91,15.25-.99.79-2.82,1.59-2.81,2.38,0,2.52,2.2,1.47,3.43,1.29,10.97-1.65,21.88-3.84,33.04-3.49,13,.4,14.71,2.25,14.51,15.16-13.89,4.84-28.16,8.79-40.55,17.19-2.16,1.62-4.31,3.24-8.21,6.17,12.73-1.97,23.22-3.85,33.78-5.11,5.12-.61,10.77-2.03,14.97,2.92,3.02,6.57-1.22,10.87-5.04,15-7.28,7.88-16.89,12.22-26.38,16.7-3.11,1.47-6.8,1.91-9.09,4.9-8.02,2.15-16.04,4.34-23.61-1.36-11.89-23.35-13.27-49.19-17.42-74.34-2.6-15.76-5.09-31.56-4.16-47.67.73-12.52,6.19-18.77,18.69-19.93,9.21-.85,18.34-2.71,27.69-2.14,5.22.32,10.21.9,14.19,4.73Z"/>
    <path class="cls-41" d="M323.94,576.88c-13.11,1.11-26.06,3.14-38.9,6.07-2.99.68-6.79,4.05-9.36-.6-2.06-3.73-2.95-7.69-.42-11.85,3.78-6.2,5.03-13.06,4.8-20.29-.43-13.9-7.75-23.75-21.3-27.21-4.96-1.27-7.37-2.5-7.11-8.55.45-10.45-4.28-19.08-13.47-25.14,30.28-13.17,61.21-18.49,93.47-16.01,8.4-.29,10.43,4.46,10.83,12.02,1.3,24.59,1.14,49.26,3.62,73.79.22,2.23.04,4.48.08,6.72.14,7.43-2.61,11.41-10.86,10.4-3.7-.45-7.67-.85-11.38.64Z"/>
    <path class="cls-66" d="M377.92,507.72c.22-.59.34-1.26.68-1.77,5.14-7.75,8.78-17.75,15.91-22.57,7.36-4.98,16.28,4.57,24.97,4.52,16.59-.1,24.37,8.14,30.35,23.51,10.87,27.94,30.99,49.86,53.54,69.37-.52,5.3-5.13,5.2-8.53,5.85-23.86,4.55-47.58,4.03-71.35-1.46-22.79-5.27-36.13-19.6-41.69-41.55-2.96-11.69-6.1-23.56-3.9-35.9Z"/>
    <path class="cls-16" d="M377.92,507.72c3.09,6.51,2.61,13.73,3.66,20.58,6.11,40.05,19.81,49.69,49.33,55.75,23.06,4.73,46.33,4.19,69.33-1.36,1.13-.27,2.1-1.26,3.14-1.91,14.36,9.44,28.82,18.71,45.41,24.16-.16.83-.32,1.67-.47,2.5-8.12,0-16.23.12-24.35-.02-31.11-.53-62.21-1.15-93.32-1.73-1.92-.04-3.85-.02-5.77-.14q-21.86-1.31-21.98,20.15c-.03,5.46-.16,10.92.06,16.36.17,4.41-.54,7.95,5.58,11.2,5.76,3.05,2.07,12.31,1.69,18.71-.31,5.27-5.55,3.1-8.59,3.03-16.99-.38-33.97-1.1-50.95-1.72-2.52-.09-5.61.31-6.55-2.75-1.18-3.84,2.21-4.75,4.75-6.01,2.3-1.14,4.6-2.27,6.9-3.41,15.48-7.7,23.15-18.83,22.15-37.48-1.84-34.24-3.59-68.5-5.68-102.73-.34-5.52.47-10.21,5.66-13.19Z"/>
    <path class="cls-66" d="M786.55,706.02c-3.09-4.81-8.84-5.97-13-9.48-15.87-13.4-18.67-32.3-21.46-50.76-3.17-20.92-8.19-41.14-16.45-60.57-1.1-2.58-3.23-4.94-1.15-7.95,17.44-5.56,26.54-18.86,32.49-35.06,7.53,13.17,10.87,27.96,16.24,41.96,10.92,28.51,20.61,57.39,25.87,87.59,1.1,6.32,2.11,12.63,2.21,19.06-7.59,15.73-9.64,17-24.75,15.23Z"/>
    <path class="cls-16" d="M667.09,576.58c.86,28.6-2.94,54.68-4.96,80.84-.48,6.21,2.5,14.26-2.39,18.34-4.84,4.04-12.31-.22-18.67-.19-11.54.06-23.1-.24-34.64-.82-9.68-.48-16.21-13.29-9.46-19.91,4.42-4.33,3.68-8.27,3.94-12.79.09-1.58-.29-3.19-.34-4.79-.24-8.01-2.67-16.85-.06-23.8,2.82-7.49,13.19-4.99,20.13-7.06,17.7-5.29,31.73-16.09,46.44-29.82Z"/>
    <path class="cls-67" d="M146.38,546.64c-13.64-24.63-19.4-51.94-26.65-78.74-1.83-6.77-2.43-13.92-4.66-20.54-2.4-7.14-.43-11.17,6.04-14.6,17.23-9.14,34.08-19.04,52.61-25.51-2.88,7.08-6.03,14.07-8.6,21.26-7.66,21.41-2.22,36.27,17.21,48.03,1.58.96,2.95,2.26,4.22,3.24-.23,3.25-2.62,2.96-4.29,3.37-21.71,5.39-31.24,20.57-33.56,41.58-.8,7.3-1.54,14.6-2.31,21.9Z"/>
    <path class="cls-16" d="M439.14,421.25c7.81,8.59,9.23,20.1,13.33,30.3,11.08,27.55,23.93,54.15,44.73,75.54,31.21,32.11,68.48,51.59,114.79,47.92,14.12-1.12,26.12-8.24,36.8-17.34,3.66-3.11,6.93-6.69,10.31-10.12,11.93-12.1,20.45-11.9,32.86.8-19.89-6.79-21.21-6.39-33.77,10.14-22.64,29.81-57.47,40.32-98.59,29.51-35.7-9.39-61.92-31.68-81.78-61.85-20.98-31.89-31.71-67.76-38.69-104.91Z"/>
    <path class="cls-4" d="M227.5,484.77c-5.97-.87-11.92-1.89-17.91-2.57-3.57-.41-4.66-2.47-5.36-5.63-1.24-5.62-2.17-11.47-4.54-16.62-4.3-9.35-1.46-14.07,7.67-18.09,43.45-19.17,88.54-26.62,135.79-21.05,8.15.96,12.5,3.58,11.58,13.01-.87,8.86-.22,17.93.45,26.86.46,6.18-1.35,8.18-7.4,6.46-3.36-.96-6.9-1.29-10.36-1.91-4.17-5.22-2.27-11.73-3.67-17.56-1.3-5.39-3.6-8.59-9.57-8.54-30.62.26-60.59,4.27-89.1,15.97-12.1,4.96-12.39,6.54-8.46,18.86,1.11,3.48,3.84,6.96.89,10.82Z"/>
    <path class="cls-78" d="M227.5,484.77c-1.89-5.77-3.59-11.6-5.72-17.28-2.25-5.99-.31-9.16,5.43-11.92,20.22-9.72,41.67-14.64,63.74-17.09,11.44-1.27,22.93-2.37,34.52-2.05,6.3.17,10.03,1.04,10.66,8.69.56,6.69,1.33,13.36,1.27,20.09-38.3-2.84-74.91,3.85-109.91,19.56Z"/>
    <path class="cls-27" d="M734.65,557.95c1.19-6.97,6.95-11.35,9.94-17.4,6.41-12.96,6.51-26.01,2.65-39.25-3.37-11.56-13.68-13.37-23.7-14.72-28.54-3.83-50.51,7.01-67.51,29.83-18.67,25.05-48.84,27.2-71.98,6.04-19.16-17.52-28.28-39.89-32.69-64.76-4.02-22.64-.56-43.92,11.51-63.62.95-1.55,2.66-2.63,4.01-3.92-4.55,25.05-7,50.19-1.91,75.45,4,19.84,11.51,38.01,26.67,52.19,19.74,18.47,44.83,17.07,62.55-3.42,7.55-8.73,14.72-17.85,22.93-25.92,18.33-18.02,44.38-20.67,66.38-7.48,3.05,1.83,6.18,3.63,7.07,7.44,4.25,18.37,6.38,36.74-1.73,54.66-2.93,6.48-6.96,12.3-14.18,14.87Z"/>
    <path class="cls-16" d="M206.35,669.78c12.28-.01,24.23-1.89,35.64-6.52,3.17-1.29,5.83-2.05,8.61.99,12.27,13.39,28.66,12.31,44.66,12.32,3.18,0,6.36-.92,9.54-.93,3.41-.01,7.91-2.32,10,.89,2.59,3.98-1.17,7.8-3.04,11.4-3.67,7.07-8.99,10.25-17.54,10.83-22.96,1.57-45.82,4.56-68.73,6.91-3.17.33-6.37.25-9.56.35-8.15-10.78-13.33-22.33-9.58-36.25Z"/>
    <path class="cls-16" d="M626.47,359.36c28.57-14.58,40.14-44.74,29.34-75.21-3.85-10.86-11.33-14.61-22.04-13.91.25-.19.48-.48.77-.57q20.56-6.12,30.23,13.19c21.85,43.64,11.81,83.73-31.03,117.7,1.08-15.27,1.09-29.21-7.28-41.2Z"/>
    <path class="cls-16" d="M277.64,114.6c2.6-6.49-5.19-7.76-6.46-13.47,11.16,4.14,21.78,8.09,32.41,12.02,18.54,6.84,37.06,13.72,55.64,20.45,2.69.97,6.49.54,3.14,5.11-3.94,5.36-7.71,10.85-11.55,16.28-7.09,3.16-7.44,10.78-10.62,16.46-2.28,4.08-3.41,8.8-5.4,14.15-13.2-29.24-29.86-54.46-57.15-71Z"/>
    <path class="cls-16" d="M649.14,154.38c-5.16-3.63-6.94-9.91-11.18-14.29-2.47-2.55-1.38-4.75,1.68-5.86,28.48-10.31,56.98-20.58,85.53-30.88,1.09,6.34-7.36,7.23-6.23,13.05-24.33,17.45-40.73,41.08-53.18,68.96-5.35-10.97-8.04-22.63-16.62-30.98Z"/>
    <path class="cls-75" d="M237.17,509.62c-14.98-4.03-29.97-.97-44.86.44-8.15.77-12.82,5.89-13.14,14.96-.77,22.27,4.01,43.88,6.94,65.72,2.47,18.4,5.43,36.66,12.72,53.92.64,1.52.91,3.08-.65,4.31-7.06-3.55-10.64-10.12-13.78-16.75-16.24-34.22-22.11-70.18-16.7-107.72,2.63-18.23,7.64-22.83,25.76-25.5,10.24-1.51,20.52-1.51,30.6,1.03,5.52,1.39,11.34,2.86,13.11,9.6Z"/>
    <path class="cls-16" d="M358.99,268.39c-11.56,4.17-14.81,14.25-17.11,24.71-6.03,27.44,5.52,52.38,30.47,66.42-4.54,7.17-6.86,15.05-7.64,23.45-.17,1.78.42,4.18-2,4.84-2.2.6-3.43-1.38-4.64-2.75-7.01-7.95-15.91-14.05-22.96-21.69-9.75-10.57-13.87-24.52-12.29-39.03,1.93-17.7,8.78-33.9,17.32-49.5,4.6-8.42,9.98-11.85,18.86-6.46Z"/>
    <path class="cls-78" d="M325.82,623.13c-11.4,2.11-22.8,4.21-34.19,6.32-1.31.4-2.99.35-3.48-.74-5.11-11.47-10.85-22.87-6.55-36.06,13.14-3.48,26.46-5.73,40.07-6.21,5.35-1.35,10.81-.18,16.19-.67,6.13-.55,8.01,3.07,7.9,8.15-.14,7.02-1.22,13.99-2.24,20.92-.74,5-3.61,7.94-9.21,7.59-2.81-.17-5.75-.62-8.49.7Z"/>
    <path class="cls-63" d="M600.95,407.4c10.05-11.57,15.13-11.16,21.56,2.12,10.75,22.2,21.25,44.55,36.39,64.24,2.52,3.27,2.02,5.44-.66,8.16-3.81,3.87-7.29,8.08-10.9,12.15-6.28,2.64-8.44-2.74-11.19-6.16-16.64-20.71-24.83-45.41-32.64-70.24-1.05-3.35-2.01-6.77-2.56-10.26Z"/>
    <path class="cls-19" d="M271.61,399.58c29.05-4.61,57.97-4.75,86.66,2.58,3.97,1.02,7.27,2.43,5.67,7.83-1.78,6.02-5.47,2.4-8.43,1.93-57.83-9.17-112.84-.63-164.92,26.25-2.26,1.17-4.41,2.62-6.46,4.13-2.05,1.51-3.91,3.27-5.86,4.92-4.27-11.81,5.32-22.03,28.16-30.02,15.36-1.34,29.24-8.39,44.17-11.44,9.35-1.92,18.55-4.53,28.15-4.97,1.08.4,1.15.18.08-.04-2.38-.5-5.1,1.08-7.22-1.16Z"/>
    <path class="cls-16" d="M543.31,234.41c6.54.13,7.18-4.36,8.14-9.45,4.18-22.11,12.04-42.18,31.26-56.09,14.62-10.58,21.23-10.35,34,2.24,16,15.78,21.39,34.96,18.07,56.81-.9,5.9,1.51,12.21-2.25,17.73.8-15.77.07-31.08-8.09-45.46-13.61-23.95-36.11-25.22-51.4-2.44-5.98,8.92-9.97,18.57-10.51,29.39-.4,7.95-2.69,12.79-12.01,9.15-2.24-.88-5.12.05-7.22-1.87Z"/>
    <path class="cls-16" d="M366.29,232.13c-6.66-26.21,4.16-57.63,25.91-68.21,7.03-3.42,12.64-3,18.81.87,22.11,13.88,33.04,34.89,38.15,59.63.77,3.75,1.41,7.53,2.11,11.29-12.57,3.49-12.23,3.45-13.74-8.96-1.75-14.37-7.12-27.23-17.93-37.38-10.99-10.33-24.92-10.25-36.19,0-12.66,11.52-14.75,27.17-17.12,42.75Z"/>
    <path class="cls-36" d="M817.49,666.13c-.12,1.12-.24,2.24-.36,3.36-4.27-.21-4.06-3.76-4.06-6.31,0-26.67-10.61-50.36-20.63-74.21-6.55-15.6-13.13-31.2-20.99-46.2-1.37-2.62-1.17-5.57-2.51-8.11-.53-9.14,1.98-18.11,1.47-27.5,27.64,36.67,41.46,78.43,47.26,123.27.85,11.9,1.17,23.81-.19,35.7Z"/>
    <path class="cls-24" d="M768.95,534.66c9.5,12.33,14.49,26.97,20.55,40.99,10.01,23.17,20.58,46.15,25.3,71.29,1.41,7.53-1.68,15.4,2.34,22.55-.29,7.55-2.69,14.53-5.83,21.3-5.67-11.62-5.42-24.6-8.39-36.86-7.98-32.94-20.8-64.24-31.89-96.13-1.78-5.13-3.95-10.09-4.03-15.63.66-2.51,1.31-5.01,1.97-7.52Z"/>
    <path class="cls-33" d="M323.94,576.88c2.06-2.12,4.82-2.01,7.24-1.58,10.93,1.94,12.7-3.61,12.13-12.97-1.64-27.11-2.97-54.24-3.72-81.38-.18-6.41-5.17-5.28-7.93-7.64,22.98-.69,24.52.69,24.99,23,.51,24.68,1.46,49.35,3.6,73.95.5,5.74.09,8.66-7.51,7.49-9.42-1.45-19.18-.68-28.8-.86Z"/>
    <path class="cls-3" d="M334.37,633.36c3.37.31,7.53.51,11.63,1.13,3.6.54,8.84-.13,9.62,4.15.62,3.4-3.91,5.56-6.91,7.12-22.35,11.59-46.1,16.61-71.26,14.58-1.27-.1-2.59-.23-3.77-.66-3.52-1.29-8.68-1.54-9.28-5.68-.65-4.48,4.57-5.65,7.79-7.05,19.56-8.46,40.13-12.65,62.18-13.6Z"/>
    <path class="cls-70" d="M233.17,380.14c12.92-5.12,26.44-7.11,40.23-7.7,7.23-1.26,14.51-.26,21.77-.56,1.6-.07,3.15.23,4.62.87,4.09,1.78,7.07,4.85,7.08,9.28.02,5.78-5.76,1.77-8.03,4.02-26.75,1.98-53.21,5.63-78.88,13.77-5.52-1.08-6.15-2.03-3.31-6.31,4.08-6.13,10.01-10.16,16.51-13.39Z"/>
    <path class="cls-69" d="M601.6,266.9c2.79-8.17,3.09-15.53,2.48-22.81-.46-5.45,3.33-14.25-8.67-12.62-2.38.32-5.44-3.46-5.98-6.78-.56-3.44,2.59-3.5,4.94-4.53,8.22-3.61,1.34-7.56,0-11.36-.97-2.75-6.52-4.17-3.75-7.58,2.93-3.6,7.73-4.14,12.37-2.14,4.55,1.95,8.2,4.93,10.91,9.07,8.79,13.37,8.29,39.09-1.03,52.28-2.7,3.83-2.85,3.91-11.28,6.48Z"/>
    <path class="cls-70" d="M397.24,266.54c-5.33-.44-9.13-2.22-11.42-6.53-9.08-17.07-9.69-34.34-.37-51.4,4.21-7.71,10.97-11.7,20.11-9.1,4.29,1.22,7.15,3.15,2.3,7.67-2.28,2.12-3.74,5.14-5.5,7.8-1.55,2.34-1.42,4.21,1.74,4.92,3.37.75,7.95.78,6.63,5.94-1.02,3.99-5.29,6.81-8.75,6.3-7.92-1.15-7.15,3.69-7.33,8.46-.31,8.63.29,17.19,2.59,25.95Z"/>
    <path class="cls-23" d="M600.95,407.4c3.52.84,3.58,3.75,4.36,6.57,7.15,25.85,15.99,50.98,32.79,72.47,2.51,3.21,4.54,7.04,9.23,7.62-9.29,10.66-9.5,10.71-17.98-.33-16.41-21.39-26.18-45.8-32.44-71.78-1.36-5.65-.84-10.68,4.04-14.55Z"/>
    <path class="cls-76" d="M397.07,405.79c6.64,4.83,7.79,11.65,5.78,18.83-6.16,22.03-16.15,42.19-32.37,60.07v-25.25c9.18-14.39,15.96-29.9,21.63-45.95,1.04-2.93,1.27-6.45,4.96-7.7Z"/>
    <path class="cls-72" d="M397.07,405.79c-4.88,16.29-11.38,31.91-19.51,46.83-1.59,2.91-2.41,6.96-7.08,6.82-1.72-16.84-.52-33.39,6.11-49.12,5.27-12.51,9.85-13.34,20.48-4.53Z"/>
    <path class="cls-25" d="M325.82,623.13c13.74-.04,17.39-8.02,15.89-20.12-.11-.89.4-1.85.57-2.79,2.28-13.16,2.08-13.36-11.16-13.26-3.15.02-6.31-.34-9.46-.52,11.42-3.32,22.75-.4,34.11.47,4.17.32,5.12,2.71,5.12,6.46,0,9.26.36,18.51.47,27.77.03,2.69.87,6.42-4.22,4.63-10.21-3.59-20.86-1.94-31.32-2.64Z"/>
    <path class="cls-21" d="M582.52,370.82c3.1,3.53.56,8.1,2.23,12,3.41.22,4.49-3.04,6.69-4.6,7.47-5.32,15.1-9.65,24.65-5.47,4.24,1.86,4.78-.74,4.82-3.97,3.29,4.68,1.63,9.87,1.34,14.85-.12,2.15-.99,4.6-4.16,3.93-13.7-2.91-22.07,5.43-30.24,14.24-.79.86-1.72,1.58-3.42,3.12-1.28-12.08-2.76-23.01-1.9-34.1Z"/>
    <path class="cls-16" d="M376.25,374.61c14.7-6.16,27.29-2.34,38.6,8.63,3.66-4.44-.45-10.37,3.33-14.33.9,11.79-.92,23.42-1.86,36.05-4.68-4.23-8.72-8.04-12.94-11.64-4.2-3.58-9.45-7.05-14.53-6.4-10.45,1.34-11.91-4.65-12.6-12.31Z"/>
    <path class="cls-66" d="M434.05,471.28c-9.94-1.2-17.59-4.18-25.11-7.57-2.04-.92-4.39-1.86-2.93-4.87,4.23-8.75,6.94-18.3,13.44-27.75,6.85,13.4,10.4,26.17,14.6,40.19Z"/>
    <path class="cls-49" d="M695.65,457.57c-3.45,1.26-4.54,1.65-5.63,2.05-4.98,1.87-10.87,6.36-14.73,5.01-6.02-2.09-8.67-9.7-12.44-15.19-4.64-6.75-8.75-13.78-12.03-24.07,15.12,12.03,26.74,24.54,44.83,32.19Z"/>
    <path class="cls-61" d="M298.85,386.06c2.27-.89,4.54-1.79,6.92-2.72-2.9-8.37-8.5-11.76-17.36-10.72-4.93.58-10-.07-15-.17,16.49-3.5,33.04-1.63,49.4.49,7.72,1,11.59,9.2,17.7,13.92-14.09-1.76-27.89-.62-41.65-.8Z"/>
    <path class="cls-48" d="M233.17,380.14c-4.74,4.67-9.51,9.33-14.22,14.03-2.3,2.3-4.22,4.65,1.01,5.66-10.2,4.29-20.4,8.58-30.59,12.89,2.86-16.23,19.45-28.57,43.8-32.58Z"/>
    <path class="cls-42" d="M271.61,399.58c3.14.25,6.28.5,11.86.94-24.54,5.17-46.31,11.71-68.18,17.85-3,.84-6.24,1.77-8.85-1.18,20.7-9.68,42.36-15.76,65.17-17.61Z"/>
    <path class="cls-68" d="M623.33,511.15c-12.5-.63-26.12-11.45-29.46-21.65-1.29-3.96,1.08-5.05,3.53-6.62,2.8-1.79,4.87-2.3,6.86,1.38,5,9.25,11.23,17.71,19.07,26.89Z"/>
    <path class="cls-71" d="M281.6,592.65c1.7,12.71,2.82,25.58,10.03,36.8-5.56,2.02-11.11,4.03-18.02,6.54,3.54-11.02,6.07-20.42,1.78-30.76-1.37-3.3-1.18-11.02,6.21-12.57Z"/>
    <path class="cls-11" d="M214.15,577.2c7.01-8.05,16.62-11.68,26.26-15.11,8.42-2.99,16.99-5.52,25.5-8.26,0,12.36-1.29,13.71-13.37,13.68-13.63-.04-25.8,5.63-38.39,9.69Z"/>
    <path class="cls-66" d="M206.35,669.78c.17,12.88,5.5,24.4,9.58,36.25-4.87,1.03-6.71-2.9-8.85-5.8-4.76-6.43-7.79-13.77-9.91-21.44-.9-3.27-2.72-8.05-1.27-9.81,2.62-3.19,6.87.25,10.46.8Z"/>
    <path class="cls-28" d="M221.79,650.32c-2.04-5.22,2.63-4.65,5.11-5.72,11.15-4.79,21.86-10.13,30.42-19.15,3.29-3.46,5.46-6.92,4.98-11.75,3.9,10.71-1.1,18.95-8.8,24.93-9.09,7.06-19.83,11.35-31.71,11.67Z"/>
    <path class="cls-9" d="M539.62,245.6c-2.49-1.98-3.75-4.27-1.91-7.37,1.77.66,3.5,1.68,5.33,1.94,15.7,2.25,21.63,11.54,18.71,27.82-5.04-6.05-9.73-12.06-14.88-17.66-1.89-2.05-2.69-6.53-7.26-4.72Z"/>
    <path class="cls-64" d="M462.84,238.19c-.24,1.7.57,3.6-.98,5.03-7.73,3.4-11.18,11.13-16.84,16.63-2.7,2.62-4.55,6.21-8.35,7.69-.13-.43-.27-.72-.31-1.03-2.13-19.69,12.65-23.56,26.48-28.33Z"/>
    <path class="cls-32" d="M583.44,431.28c2.74,9.04,5.47,18.08,8.21,27.11,1.04,3.45-.57,5.47-3.64,6.65-2.79,1.07-4.4-.43-4.94-2.86-2.25-10.06-4.53-20.16-2.2-30.45.86-.15,1.71-.31,2.57-.46Z"/>
    <path class="cls-15" d="M221.76,609.73c11.06-11.53,24.82-16.68,40.55-17.19.3,2.97.33,6.72-3.19,6.93-13.23.8-24.77,7.37-37.36,10.26Z"/>
    <path class="cls-24" d="M817.49,666.13c.06-11.9.13-23.8.19-35.7,2.47,11.91,2.69,23.81-.19,35.7Z"/>
    <path class="cls-65" d="M428.13,291.94c-2.51,4.35-6.57,6.99-11.34,9.1,3.02-3.79,6.05-7.58,9.07-11.37.76.76,1.51,1.51,2.27,2.27Z"/>
    <path class="cls-50" d="M846.23,189.71c-3.2-4.51-6.4-9.03-9.6-13.54.69-.68,1.37-1.37,2.06-2.05,2.83,5.04,8.97,8.49,7.54,15.59Z"/>
    <path class="cls-10" d="M704.81,515.15c5.56-14.11,15.13-21.61,23.75-19.14,8.37,2.4,13.05,13.28,11.06,27.02-.82,5.65-2.09,11.4-4.25,16.67-3.93,9.61-10.24,10.61-17.79,3.46-3.13-2.96-4.86-5.77-7.28-11.86,5.12-1.24,10.44,7.07,14.53,1.1,3.38-4.93,2.41-11.87.53-17.72-1.06-3.31-2.93-3.07-20.55.47Z"/>
    <path class="cls-5" d="M564.59,153.5c7.47-24.25,18.79-34.74,35.64-34.56,16.4.18,29.73,12.29,35.83,33.52-10.93-9.7-20.9-19.31-35.56-19.86-15.57-.59-24.82,10.22-35.91,20.9Z"/>
    <path class="cls-1" d="M435.15,152.36c-32.73-26.74-40.53-26.99-69.78-2.26,4.98-18.92,19.77-31.25,36.56-30.48,16.95.77,30.42,14.05,33.22,32.74Z"/>
    <path class="cls-45" d="M447.57,98.38c28.74-8.88,57.54-10.04,86.45,0h-86.45Z"/>
    <path class="cls-37" d="M456.64,314.58c23.41-16.06,58.17-16.17,83.34-.78-13.43-2.66-27.03-3.81-40.63-3.76-13.72.06-27.43,1.31-42.71,4.53Z"/>
    <path class="cls-54" d="M462.23,377.45c21.73-12.1,43.97-12.2,66.54-2.65-22.21-.45-44.39-.15-66.54,2.65Z"/>
    <path class="cls-44" d="M466.69,464.18c17.13-15.86,41.57-20.89,60.3-13.12-20.21,2.73-39.77,5.88-60.3,13.12Z"/>
    <path class="cls-62" d="M222.32,529.75c-1.34,5.77-5.01,8.91-11,9.44,3.67-3.15,7.33-6.29,11-9.44Z"/>
    <g>
      <path class="cls-7" d="M588.56,674.76c-.09-.55-.1-1.44-.1-2.37,0-.94-.02-1.89-.08-2.83-.29-4.4-1.66-7.6-4.06-9.57v-4.07s3.2-.92,3.2-.92l-3.19-1.62.03-13.35c0-1.79,0-3.4-.02-4.89-.02-2.96-.03-5.3.06-7.59.18-4.43-.99-7.99-3.49-10.58-1.69-1.75-4.79-3.83-9.96-3.79-8.35.06-16.62.03-25.37,0-3.31-.01-6.67-.02-10.08-.03v-.23s-26.95-.05-26.95-.05l.1-.24-37.71-.07-.09,1.74c-4.4-2.59-9.48-2.09-11.38-1.9-7.06.69-14.23.59-21.82.48l-3.38-.05c-8.4-.1-13.95-.17-18.27,4.1-4.36,4.31-4.35,9.77-4.34,18.81,0,2.74,1.19,4.67,1.79,5.56l3.73,7,7.44-3.48c.74-.35,1.47-.71,2.19-1.08,1.04-.52,2.02-1.02,2.82-1.31,0,.02,0,.04,0,.06,0,.34-.36,1.46-.61,2.2-.92,2.8-2.32,7.04-.73,12.26,2.17,7.09,1.91,14.65-.77,23.1l-3.57,11.24,72.56.13-1.77-.81,23.69.04-.19-.17,15.32.03c2.51.99,5.06,1,6.75,1,.37,0,.75,0,1.15.01,2.48.06,4.95.1,7.43.14,7.64.13,15.55.26,23.17.83.56.04,1.42.11,2.47.09,3.03-.03,7.61-.7,10.96-4.37,4.47-4.88,3.41-11.32,3.06-13.44Z"/>
      <path class="cls-7" d="M901.72,856.32c-.98-8.7-1.7-16.7-2.21-24.45-.55-8.34-4.62-12.56-7.94-14.63-.77-.48-1.54-.86-2.31-1.18l-.26-1.46-1.36.88c-5.84-1.73-11.13.44-13.12,1.26-.59.24-1.18.49-1.77.75-.93.4-2.16.93-2.83,1.13-9.21-1.9-18.9-3.88-28.72-5.71-.92-23.21-2.08-46.33-3.21-68.76-.03-.57-.06-1.13-.1-1.7-.06-1-.14-2.38-.13-3.3.08-.04.16-.09.26-.14l4.69-29.01-72.36-6.02c-1.25-.24-2.46-.4-3.58-.51-.67-.07-1.34-.14-2.01-.2l-24.67-3.16.82.68c-4.08-.44-8.14-.87-12.15-1.31-11.96-1.29-24.33-2.63-36.53-3.84-11.13-1.11-22.45-2.02-33.41-2.9-5-.4-10.03-.81-15.09-1.23l-23.11-1.95.38.96-160.56-25.82-17.37.92-295.89,51.11,5.08,21.43c1.34,1.49,2.62,2.65,3.71,3.61.02,1.83.04,3.65.06,5.48.09,8.37.17,16.28-.09,24.26-.24,7.47-11.69,22.53-7.87,28.78.06,14.82.3,46.61-.96,63.91-.2,2.69,6.62-1.76,13.15,3.96,3.86,3.38,13.72-6.12,17.24-6.16,2.42-.03,4.42-.44,5.51-.67,15.1-3.14,30.22-5.91,47-8.95l.33-.06c4.48-.81,8.44-1.53,11.94-2.93l21.64-2.85c1.34-.18,2.68-.34,4.02-.51,2.83-.36,5.74-.72,8.69-1.17l-4.5,14.12c-.15.02-.29.04-.43.05-.24.03-.49.04-.73.06-2.95.23-10.79.83-15.2,8.35-1.51,2.58-2.82,6.43-1.95,11.43-.12.41-.22.85-.32,1.31-.94,4.68-3,9.56-5.18,14.72-2.54,6.02-5.43,12.84-6.94,20.46-1.21,6.03-3.64,11.28-7.45,16.04l-8.84,22.91,22.64.15c4.24-.79,8.21-1.51,12.17-2.24,3.2-.59,6.39-1.17,9.71-1.79l23.88-3.22c4.7-.63,9.3-1.25,13.91-1.88l34.63-4.72-8.66-6.49c.37-.57.71-1.14.98-1.71.83.88,1.78,1.73,2.89,2.5,6.62,4.59,15.59,4.24,22.31-.87.72-.55,1.37-1.15,1.98-1.78,4.62,3.6,10.41,5.07,16,5.01.24,0,.47,0,.71-.02,7.61-.25,15.71-.81,24.77-1.7.8-.08,1.59-.19,2.36-.32l53.54-3.13,45.88.09-.05.23,33.95.07,22.91,1.44c3.81.24,7.6.47,11.36.7,10.55.64,20.52,1.25,30.64,2.03.66.05,1.3.07,1.91.06,3.98-.04,7-1.22,9.19-2.63,3.43,2.19,7.36,3.66,11.61,4.21,9.38,1.22,17.14,2.06,24.42,2.66.82.07,2.11.17,3.68.16,3.78-.04,9.22-.8,13.89-4.47l-.99,6.09,55.77,2.96-9.91-23.28c.36-3.82-.08-7.19-.44-9.95-.12-.94-.28-2.16-.32-2.93l1.17-1.51,15.73,15.73.06-34.52c0-1.72-.01-3.36-.03-4.93-.03-3.24-.05-6.05.09-8.69.4-7.22-2.43-13.03-7.58-16.46l4.07-10c7.66,1.06,15.31,2.14,22.8,3.2,8.97,1.27,17.93,2.54,26.9,3.77,2.02.56,3.95.83,5.78.81,1.04-.01,2.04-.13,3.02-.32l23.82,4.41c25.37,4.69,49.34,9.12,73.41,13.64,1.56.29,3.06.43,4.48.42,4.19-.04,7.77-1.42,10.67-4.12,2.69-2.49,5.71-7.06,4.86-14.64Z"/>
      <g>
        <path class="cls-69" d="M549.43,822.17l46.77.08c-8.09-5.21-9.97-13.75-13.46-21.61-7.12-16.02-9.3-33.53-16.34-49.58-4.81-11.01-7.7-22.85-11.79-34.18-1.8-4.98-3.07-9.57,2.37-14.91l-48.29-.08c9.61,5.16,4.68,11.65,3.02,17.72-1.74,6.45-4.07,12.72-5.95,19.12-2.68,9.11-4.97,18.31-14.03,23.72-3.1,1.87-1.99,3.84.89,4.91,3,1.12,2.94,3.09,2.15,5.68-3.34,10.91-6.6,21.85-9.77,32.81-1.35,4.67-4.06,8.69-8.62,9.55-5.16.95-8-3.51-10.15-7.57-3.72-7.04-6.66-14.55-10.9-21.26-3.73-5.91-2.55-9.3,2.93-12.88,7.37-4.8,14.95-9.75,10.19-20.88-1-2.38-.15-5.56-.13-8.36.06-8.84.17-17.67.19-26.51,0-1.9.67-4.31-.98-5.54-6.19-4.59-12.29-10.66-20.2-10.67-24.26-.03-48.49,1.8-73.46,3.79,2.81,4.46,7.34,6.73,7,12.43-.7,11.83-.61,23.71-.61,35.58,0,2.91-.97,4.7-3.25,6.43-3.84,2.89-8.32,5.1-11.3,9.12,3.96,1.56,7.53,3.1,11.18,4.36,2.93,1.03,3.79,2.9,3.7,5.91-.32,10.78-.6,21.56-.51,32.34.04,6.01-3.79,9.91-8.19,11.16-4.14,1.19-8.16-3.1-9.29-7.22-3.83-13.85-13.49-26.16-11.37-41.66.13-.87-.75-2-1.4-2.82-2.86-3.66-4.28-7.97-5.69-12.25-3.54-10.63-6.89-21.3-10.42-31.93-2.04-6.08-5-12.09,2.82-18.48-17.17,1.8-32.03,3.34-48.24,5.03,6.02,4.94,4.7,9.59,2.74,14.65-2.51,6.42-4.33,13.08-6.6,19.6-3.84,11.07-5.69,23.17-15.66,31.19-1.53,1.22-2.22,3.03.06,4.11,3.6,1.69,2.02,4.22,1.28,6.53-3.67,11.48-7.45,22.93-11.15,34.39-1.82,5.61-5.63,9.23-11.67,12.28.66-9.05,1.4-17.17,1.73-25.28.03-1.24,2.29-3.85-1.2-4.36-1.06,1.3.05,4.94-3.66,3.38-4.66,3.19-8.07,8.48-14.51,8.71,1.29,2.32,2.43,4.74,4.87,6.16,1.92.74,5.18-.71,5.14,3.23-.04,3.24-.66,6.04-4.47,6.79-.63.12-1.26.27-1.89.39-16.47,3.2-32.96,6.16-49.43,9.4-7.3,1.45-8.36.33-7.63-7.11.13-1.29.51-2.55.56-3.84.67-15.66,1.39-31.33-.31-46.96-3.23-5.97-4.4-12.33-4.14-19.13.31-7.69.17-15.39.07-23.08-.04-2.72.32-5.63-2.11-7.73-.21,2.12-.57,4.25-.61,6.37-.49,27.8-.9,55.62-1.44,83.43-.21,10.83,1.9,22.38-9.27,30.24,44.72-7.85,88.5-16.98,134.93-23.41-8.82-5.19-6.65-11.2-4.52-17.21.93-2.64,1.88-5.28,2.59-7.99.7-2.64,1.83-4.14,4.17-1.65,8.14,8.68,14.91,5.39,22.41-1.41,6.52-5.92,6.9-5.34,9.7,2.8,2.63,7.68,6.83,15.4-2.86,22.09,30.94-3.38,61.24-5.27,92.07-7.97-9.01-4.5-9.2-11.91-8.32-20.05.58-5.33.05-10.78.39-16.14.13-1.95-1.71-5.34,2.18-5.6,3.15-.2,6.67-1.51,8.7,3.12,3.45,7.89,7.4,15.56,11.51,23.14,2.82,5.21,4.78,10.13.24,14.6l87.71.15c-12.96-10.79-1.76-19.37-1.63-29.62,4.45,3.5,8.03,5.95,11.13,8.89,2.32,2.24,3.9,2.43,6.45.33,3.48-2.86,7.37-5.23,11.14-7.72,1.31-.88,3.28-2.7,3.84.37,1.67,9.1,11.66,17.98-1.39,28.57ZM303.4,768.58c2.23-7.38,4.76-14.66,7.67-23.48,3.32,11.41,6.23,21.44,9.12,31.49.36,1.23-.13,2.08-1.31,2.48-1.21.44-2.44.83-3.67,1.19-5.04,1.42-11.18,3.16-14.84.1-2.28-1.91,1.79-7.72,3.03-11.78ZM408.58,751.61c.1-3.43.03-6.88.03-10.31q.45-14,14.55-14.94c4.08-.28,8.14-.51,12.21-.7,4.2-.2,6.53,1.65,6.36,6.05-.2,5.79-.54,11.58-.58,17.37-.02,3.3-1.71,4.72-4.68,4.9-8.14.51-16.27.84-24.41,1.44-3.13.23-3.59-1.3-3.49-3.81ZM526.92,757.96c1.49-6.83,3.99-13.45,6.52-21.63,3.54,11.46,6.57,21.48,9.78,31.44.64,2.02.14,2.72-1.77,2.96-.85.09-1.68.37-2.53.47-4.74.46-10.51,1.27-13.78-1.33-3.9-3.09.9-7.9,1.78-11.91Z"/>
        <path class="cls-69" d="M751.49,758.8c.52,11.96,1.04,23.92,1.57,35.89-.32.46-.65.92-.97,1.39-5.82-8.56-14.73-8.02-23.01-9.46-3.31-.58-4.71-.2-4.21,3.73.59,4.68.74,9.48.47,14.2-.22,4.02,1.58,5.18,5.11,5.63,11.54,1.47,23.07,3.02,34.55,4.83,2.61.41,4.07-.83,5.75-2.09,3.02-2.27,5.98-4.62,9.66-7.47.78,12.21,1.48,23.3,2.22,34.38.28,4.23-2.63,2.37-4.33,2.14-20.91-2.88-41.8-5.93-62.72-8.76-8.69-1.17-17.44-1.9-26.86-3.44,9.89-4.65,9.21-12.77,8.51-21.16-.66-7.94-1.05-15.94-.84-23.9.14-5.32-1.76-8.32-6.62-10.14-2.78-1.04-5.3-2.8-7.98-4.26.19-.47.24-.95.44-1.03,11.21-4.21,14.65-12.06,12.5-23.72-1.4-7.56-.94-15.46-1.3-23.21-.08-1.71-.12-3.3-1.25-4.86-4.97-6.88-10.16-6.77-12.6,1.47-4.07,13.74-9.99,26.81-12.77,41.1-2.94,15.12-8.63,29.71-13.13,44.52-.06.21-.17.4-.25.6-2.96,7.65-5.46,15.23,2.65,22.37-16.13-1.11-32.26-2.21-49.02-3.36,1.85-3.78,6.87-5.21,6.27-9.46-.54-3.79-2.01-7.47-3.2-11.15-2.05-6.35-4.65-12.56-6.21-19.02-2.4-9.98-6.46-18.21-17.57-20.49.3-.9.3-1.33.5-1.48,9.32-6.76,9.54-6.84,5.64-17.56-5.18-14.26-8.45-29.28-17.25-43,14.1.87,27.53,1.69,42.97,2.64-9.84,7.4-4.58,14.93-2.61,22.24,4.74,17.59,9.77,35.1,16.24,54.02,6.05-22.21,11.77-42.72,17.14-63.32,1.35-5.18-4.64-7.22-6.49-11.86,16.34,1.38,32.33,2.52,48.28,4.11,24.86,2.48,49.69,5.36,74.56,7.82,5.03.5,7.61,1.66,7.26,7.55-.57,9.36-.18,18.78-.2,29.6-6.94-14.06-19.43-14.86-31.97-15.71-5.99-.41-14-3.7-17.39-1.01-3.72,2.94.18,11.26-.41,17.22-.45,4.53,1.22,6.47,5.88,7.01,7.72.89,15.51,3.33,21.64-4.73.44.39.88.79,1.32,1.18Z"/>
        <path class="cls-57" d="M790.72,843.14c8.57-3.25,8.78-8.75,8.31-14.89-.79-10.31-1.4-20.66-1.52-31-.07-5.79-1.78-9.81-7.47-11.77-1.37-.47-2.53-1.55-5.04-3.14,13.76-2.29,12.26-11.54,11.4-20.76-.62-6.64-1.1-13.37-.78-20.01.4-8.18-.95-15.31-7.83-20.96,13.76,1.76,27.53,3.52,43.69,5.58-9.36,4.81-8.14,11.78-7.8,18.61,1.25,24.76,2.5,49.52,3.44,74.28.16,4.25,1.49,6.03,5.62,6.77,11.66,2.08,23.27,4.44,34.87,6.84,4.61.95,8.5-1.17,12.39-2.77,3.42-1.41,4.94-1.39,5.21,2.82.55,8.38,1.34,16.76,2.27,25.11.33,2.96-.54,3.13-3.12,2.65-30.43-5.71-60.89-11.31-93.65-17.37Z"/>
        <path class="cls-69" d="M175.67,787.63c-3.71-4.55-5.57-9.51-5.37-15.63.38-11.72.04-23.46,0-35.18-1.21-3.45-4.51-5.05-7.37-8.22,14.27-2.52,28.03-4.95,41.8-7.37-8.81,7.67-6.75,17.72-6.94,27.19-.48,22.8-.98,45.6-1.46,68.4-.05,2.56-.02,5.13-.02,7.8,11.52-1.29,22.13-5.28,33.33-5.92,3.28.22,4.27,2.24,4.08,5.19-.85,2.48-3.06,2.82-5.17,3.21-10.79,2-21.52,4.39-32.33,6.29-6.66,1.17-8.12-.02-8.28-6.87-.23-9.9-.07-19.81,0-29.71.03-4.15-1.09-7.46-4.66-10.01-3.03-2.16-5.38-2.21-7.61.84Z"/>
        <path class="cls-29" d="M349.23,907.92c-1.38-2.6-1.8-4.5,1.19-6.39,6.08-3.81,8.15-9.47,7.35-16.57-.4-3.6.11-7.3.15-10.97.07-5.65-3.88-9.95-9.55-9.52-12.86.98-25.69,2.39-39.39,3.72,6,5.03,3.46,11.12,3.59,16.65.15,5.62,1.32,11.93-6.73,14.17,2.15,2.79,6.4,1.88,6.14,4.68-.79,8.92,3,18.45-3.54,27.04,7.21-.92,14.09-1.8,21.26-2.72-1.07-2.2-3.6-2.13-3.64-4.16-.13-5.59-.66-11.24-.03-16.74.38-3.27,5.07-2.32,5.56-1.17,2.84,6.85,8.99,12.35,8.79,20.58,6.44-.04,12.97-.58,20.44-1.88-6.11-4.65-8.49-10.9-11.58-16.73ZM335.22,878.56c9.77-.36,9.66-.38,8.55,8.76-.34,2.85-1.33,4.31-4.32,4.21-1.9-.07-3.84.09-5.74.19-8.36.44-8.1.46-8.14-7.91-.03-8.92,6.98-3.25,9.66-5.25Z"/>
        <path class="cls-52" d="M441.01,918.79c-8.08.47-14.73.86-21.65,1.27,6.21-8.14,5.24-27.47-1.27-30.67,6.66-5.83,8.42-22.73,2.66-30.91,7.1-.41,13.76-.79,20.99-1.2-6.03,7.34-2.92,15.33-3.68,22.76-.02.19.06.54.17.57,5.65,1.84,11.39.44,17.06.25,3.7-.12,2.41-3.62,2.32-5.61-.27-6.04,2.41-12.49-3.14-18.39,7.52.01,14.09.02,22.4.04-5.46,2.09-4.92,5.65-4.96,9.07-.18,14.06-.28,28.12-.72,42.17-.12,3.85-.16,7.19,3.92,9.65-6.79-.01-13.57-.02-19.99-.04,4.92-6.57,1.42-14.74,2.39-22.37.04-.3-.38-.73-.68-.97-.82-.68-18.47.13-19.05.91-.36.48-.64,1.15-.65,1.73-.1,5.82-.16,11.64-.18,17.46,0,2.01,1.97,2.59,4.05,4.27Z"/>
        <path class="cls-47" d="M607.89,903.46c-.01,6.56-.05,11.08-.01,15.6.02,2.16-.1,3.52-3.12,3.29-13.93-1.07-27.88-1.84-42.2-2.74,4.54-5.32,2.21-11.48,2.58-17.25.38-5.97,1.59-12.53-7.42-15.07,9.57-1.59,7.39-8.19,7.24-13.69-.15-5.43,1.57-11.33-2.81-14.94,13.34.02,27.13.04,40.91.08,2.65,0,3.03,1.65,2.98,3.88-.11,4.42-.05,8.85-.06,15.43-6.4-9.89-14.91-7.47-22.53-8.29-2.36-.26-3.27.41-3.47,3.06-.81,10.68,1.9,12.47,14.06,8.35-.01,6.04-.02,11.92-.03,18-1.45-.75-3.12-1.95-4.98-2.51-2.87-.85-7.01-2.25-8.62-.38-2.26,2.63-.77,7.01-.88,10.63-.04,1.4,1.14,1.77,2.24,1.68,8.46-.7,17.64,3.97,26.12-5.13Z"/>
        <path class="cls-18" d="M609.4,889.48c7.68-1.1,7.43-6.08,6.98-11.3-1.33-15.37,1.2-17.75,16.98-16.2,4.93.48,9.86.91,14.78,1.45,9.38,1.02,14.88,10.67,11.04,19.12-.75,1.65-2.09,1.14-3.21,1.4-2.92.69-5.87,1.26-8.9,1.9-.11-.16-.43-.44-.49-.76-.6-3.1,1.58-7.74-1.17-9.06-3.85-1.85-8.76-1.53-13.22-2.09-1.54-.19-1.68,1.02-1.68,2.08-.02,10.85,0,21.71.03,32.56,0,1.45.73,2.34,2.29,2.56,4.26.6,8.51,1.3,12.76,1.91.59.08,1.35.1,1.8-.2q5.28-3.54,14.42-5.21c0,3.28-.08,6.44,0,9.6.19,7.64-2.12,10.04-9.85,9.41-7.93-.65-15.85-1.56-23.75-2.59-6.79-.88-12.05-6.77-12.42-13.59-.13-2.36-.06-4.74-.08-7.11q-.07-8.17-6.31-13.9Z"/>
        <path class="cls-43" d="M305.51,931.13c-3.28-2.46-3.89-5.67-4.78-8.73-3.83-13.08-7.55-26.2-11.61-39.2-1.31-4.2-2.61-8.09.98-12.21-5.93.82-11.24,1.6-16.56,2.27-3.29.42-7.44-.25-4.78,5.51.47,1.02-.87,2.78-1.17,4.25-2.46,12.25-9.67,22.83-12.12,35.16-1.56,7.79-4.73,15.21-10.31,22.19,8.07-1.5,15.17-2.79,23.09-4.26-5.82-3.39-2.41-7.18-1.54-10.8.89-3.78,2.9-4.72,5.67-1.78,2.53,2.68,4.4,2.05,6.94-.03,5.91-4.84,6.14-4.55,7.74,2.83.62,2.85-.37,4.99-1.68,7.52,6.91-.93,13.52-1.82,20.13-2.72ZM272.07,906.35c1.65-4.81,3.13-9.67,5.05-15.68,1.69,6.05,3.02,10.94,4.44,15.82.36,1.24.11,2.39-1.04,2.48-2.53.18-5.1.12-7.63-.19-1.27-.14-1.24-1.23-.81-2.44Z"/>
        <path class="cls-17" d="M412.13,900.86c0,3.5.14,6.51-.05,9.49-.41,6.54-3.82,10.29-10.41,10.94-7.93.78-15.89,1.37-23.84,1.64-7.58.25-10.52-3.43-10.96-11.04-.36-6.27,3.51-13.2-2.37-18.8-.16-.15-.04-.96.17-1.1,7.83-5.03,3.45-12.85,4.18-19.36.71-6.36,4.41-11.53,10.71-12.01,7.73-.58,15.48-.8,23.22-1.31,3.8-.25,7.58,1.1,8.94,4.02,1.87,4.01,2.14,9.86-.11,13.01-2.15,3.01-8.11,2.45-11.98,5.52-.51-10.44-.5-10.32-12.67-9.11-2.97.3-4.16,1.19-4.24,4.18-.26,9.49-.57,18.99-1.16,28.46-.23,3.59,1.07,4.52,4.37,4.16,2.99-.32,6.03-.18,9.04-.38,1.25-.09,2.84-.15,3.66-.9,6.2-5.74,6.16-5.79,13.51-7.43Z"/>
        <path class="cls-17" d="M506.83,873.54q-2.45-17.85,14.47-17.46c9.48.22,18.97.67,28.44.48,4.22-.08,5.1,1.34,4.78,5.14-.34,4.07-.09,8.18-.1,13.15-4.94-4.71-10.28-8.44-16.33-4.69-2.93,1.82.38,14.83,3.6,16.74-5.48,5.65-5.7,25.77-.07,31.24-6.78-.01-13.29-.02-19.33-.03,2.04-10.21,4.41-20.05-.69-29.77-.63-1.21-1.75-2.35-.16-3.13,3.26-1.59,2.27-4.42,2.1-6.77-.23-3.25,1.98-8.05-1.31-9.43-4.02-1.68-8.93-.37-12.9,2.31-.83.56-1.52,1.33-2.49,2.2Z"/>
        <path class="cls-6" d="M666.21,882.35c.01-6.4.02-11.72.03-17.03,5.27.46,10.55.8,15.8,1.39,9.62,1.09,19.21,2.51,28.84,3.41,3.32.31,4.48,1.36,4.3,4.67-.25,4.5-.08,9.02-.08,14.39-4.13-4.13-8.03-7.48-13.73-7.75-3.05-.14-4.48.18-3.72,3.65,1.19,5.41-1.73,11.55,2.94,16.35-4.95,6.37-.77,13.52-1.71,20.24-.6,4.27.41,8.09,4.84,11.51-7.61-1.03-14.14-1.91-19.85-2.68,1.71-10.58,3.87-20.74-1.3-30.79-.36-.69-.84-2.07-.7-2.15,4.93-2.83,2.1-7.37,2.2-11.01.22-8.24-5.75-11.28-13.28-7.13-1.28.7-2.47,1.58-4.58,2.95Z"/>
        <path class="cls-46" d="M481.25,856.18c6.1.01,12.48.02,19.3.03-4.5,5.73-1.86,12.81-3.21,19.2-1.14,5.41,4.1,9.48,1.14,15.29-2.59,5.08-.57,11.45-.9,17.23-.2,3.42-.44,6.9,4.66,9.5-8.09-.01-14.45-.03-20.27-.04,2.62-10.22.95-20.34.62-30.69-.32-10.01,2.57-20.13-1.33-30.53Z"/>
        <path class="cls-69" d="M247.8,806.6c-.04,2.5.84,5.09-.69,7.73-2.3-.67-2.7-2.46-2.96-4.35,1.21-1.13,2.43-2.25,3.64-3.38Z"/>
        <path class="cls-73" d="M462.67,815.72c-6.57-.01-12.09-.1-17.6.01-1.71.04-2.28-.14-2.97-2.1-4.51-12.79-11.49-24.45-17.41-36.59-1.1-2.26-2.82-3.7-5.63-3.43-3.85.36-7.72.51-11.58.8-2.92.22-4.53,1.34-4.54,4.79-.02,12.02-1.9,24.04-.24,36.06.31,2.22-.48,2.61-2.21,2.78-4.89.48-9.76,1.39-14.69.72,1.41-14.07,1.68-27.94,1.9-41.82.05-3.05-1.78-4.63-3.89-6.24-1.3-.99-3.69-1.67-3.14-3.61.59-2.1,3.2-1.86,4.94-2.02,6.85-.63,13.72-1.05,20.59-1.38,11.17-.52,22.35-1.1,33.53-1.25,4.83-.07,8.75-1.06,11.9-4.98,4.78-5.94,6.94.89,9.42,2.66,4.3,3.08-.9,3.89-2.25,5.16-3.12,2.94-6.49,5.68-10.05,8.08-4.51,3.03-4.8,6.3-2.27,10.9,5.47,9.92,9.47,20.6,16.18,31.45Z"/>
        <path class="cls-58" d="M262.09,832.34c7.27-15.28,11.05-31.48,16.57-47.04,3.37-9.51,6.08-18.34,18.18-19.19-1.27,4.38-2.57,9.43-4.22,14.35-1.37,4.08-.02,5.38,3.86,7.49,11.34,6.16,20.24.75,29.58-4.32,3.51-1.9,2.43-4.8,1.82-7.32-1.11-4.56-2.65-9-2.94-14.44,8.05,5.9,15.93,10.27,18.34,21.2,2.52,11.44,7.71,22.31,11.9,33.36,1.24,3.28,2.11,5.09-2.95,5.53-12.01,1.05-11.96,1.36-15.45-9.98-1.65-5.34-3.49-10.61-5.11-15.96-1.38-4.58-4.09-5.21-7.74-2.69-4.24,2.94-8.52,5.88-12.44,9.22-2.4,2.04-4.12,2.24-6.72.44-3.51-2.43-7.14-4.8-11.3-6.11-2.79-.87-4.8-.98-5.63,2.74-2.09,9.37-6.96,18.07-7.08,27.93-.04,3.16-2.45,2.52-4.07,2.79-4.84.81-9.72,1.34-14.59,1.99Z"/>
        <path class="cls-34" d="M520.04,753.91c-1.4,5.4-2.65,10.12-3.82,14.87-.53,2.12-1.04,4.51,1.41,5.74,4.81,2.4,9.67,6.13,14.66,6.4,6.71.36,13-3.69,19.16-6.57,1.68-.79.61-3.17.17-4.79-1.17-4.29-2.42-8.56-3.54-12.48,12.91,4.25,17.47,15.05,21.49,26.4,3.85,10.88,7.06,21.99,12.49,33.07-5.97-.01-11.07,0-16.18-.05-1.17-.01-2.26.31-2.35-1.86-.42-10.09-6-18.7-8.45-28.23-.77-3-2.61-3.72-5.31-2.06-4.03,2.48-8.31,4.63-12.05,7.49-3.22,2.47-5.57,2.07-8.51-.26-3.2-2.53-6.79-4.54-10.14-6.87-2.99-2.07-4.56-1.04-5.64,2.12-2.9,8.54-6.35,16.97-7.42,25.96-.32,2.68-1.24,2.6-3,2.6-4.73-.01-9.47-.02-14.51-.03,5.7-17.06,11.34-33.82,16.86-50.61,1.07-3.26,3.65-4.59,6.33-6.02,2.58-1.38,5.08-2.91,8.35-4.81Z"/>
        <path class="cls-53" d="M175.67,787.63c.6-7.64.35-7.18,6.92-3.6,6.15,3.36,8.07,7.73,7.56,14.59-.73,9.86-.38,19.81-.51,29.72-.03,2.52-.27,4.67,3.7,3.8,13.42-2.93,26.92-5.53,40.38-8.26,2.95.53,5.25-1.54,7.92-2.1.25.41.67.77.63,1.07-1.43,13.13-1.45,13.03-14.78,15.45-15.81,2.87-31.63,5.76-47.36,9.03-4.87,1.01-6.21.24-5.84-4.96,1.32-18.21,1.5-36.47,1.37-54.73Z"/>
        <path class="cls-30" d="M699.64,768.91c12.59,1.51,25.18,3.01,37.76,4.52,1.7.2,3.5.81,5.08.47,4.16-.89,3.34,1.86,3.48,4.15.18,3.02-.88,4.42-4.12,3.91-6.37-1.01-12.85-1.5-19.12-2.93-4.59-1.04-5.13.73-4.92,4.5.52,9.25.91,18.51,1.2,27.76.09,2.79.99,4.41,3.96,4.81,15.14,2.01,30.29,3.95,45.38,6.32,2.64.42,5.17-3.89,6.64-.74,1.35,2.87.52,6.74.72,10.17.18,3.05-1.3,3.52-4.02,3.13-21.07-3.03-42.15-6.03-63.26-8.83-3.52-.47-4.12-1.34-4.1-5.12.06-13.99-.7-27.99-1.19-41.99-.12-3.53-1.47-6.59-3.5-10.12Z"/>
        <path class="cls-80" d="M603.72,764.42q13.5-5.53,17.99,8.16c3.14,9.55,6.32,19.1,9.89,29.87,3.94-6.28,4.76-12.24,6.89-17.67,2.04-5.2,3.72-10.54,5.55-15.81.57-1.63,1.03-3.4,2.71-4.23,3.81-1.9,8.37-5.76,11.66-3.97,2.81,1.53-1.04,6.46-1.97,9.76-3.98,14.06-9.54,27.75-12.47,42-1.74,8.48-5.06,7.66-11.78,7.64-8.68-.02-11.78-2.95-13.85-11.09-3.85-15.16-8.51-30.17-14.63-44.65Z"/>
        <path class="cls-60" d="M802.43,785.69c.79-.23,1-.36,1.18-.33q15.73,2.59,16.39,18.87c.31,7.3.91,14.6,1.06,21.9.07,3.43,1.23,4.84,4.72,5.44,14.38,2.49,28.74,5.17,43.03,8.15,3.58.75,6.72.6,9.85-1.42q2.68,15.16-11.39,12.65c-19.01-3.43-37.98-7.07-57.03-10.26-3.69-.62-4.34-1.95-4.43-5.32-.35-13.76-1.07-27.51-1.58-41.26-.11-2.83-.48-5.56-1.79-8.42Z"/>
        <path class="cls-74" d="M316.37,912.77c0-3.23.72-6.66-.13-9.65-1.72-6.05,1.73-6.18,5.94-6.38,6.44-.31,12.86-.98,19.31-1.25,2.74-.12,4.39-1.42,5.68-3.56,1.15-1.91,2.5-2.19,4.16-.61,1.51,1.44,1.74,2.89.16,4.43-.15.15-.27.36-.45.46-12.56,6.81-4.61,14.5-1.05,22.09.62,1.32,3.05,2.74.95,4.33-1.47,1.11-3.74,1.71-5.47.51-1.14-.79-1.88-2.32-2.52-3.65-2.21-4.66-4.74-9.24-6.32-14.12-2.07-6.39-6.96-3.39-10.74-3.77-4.17-.42-3.32,3.07-3.46,5.43-.32,5.37-.62,10.75-.53,16.12.04,2.57-.15,4.25-3.19,4.18-3.15-.08-2.4-2.44-2.43-4.22-.07-3.44-.01-6.89,0-10.34.03,0,.07,0,.1,0Z"/>
        <path class="cls-39" d="M427.36,901.09c.28-14.43.28-14.33,14.62-14.69,7.09-.18,14.23.52,21.28-.8,3.08-.58,4.37.87,4.35,3.91-.07,7.33-.08,14.66-.05,21.99.01,2.32-.7,3.64-3.3,3.65-2.89.01-2.93-1.84-2.91-3.89.04-5.61-.04-11.22.12-16.82.08-3.01-.99-4.29-4.11-4.18-6.46.22-12.94.33-19.4.26-3.68-.04-4.93,1.53-4.81,5.08.17,4.95.11,9.92-.12,14.87-.11,2.23,1.32,5.85-3.07,5.64-4.42-.21-2.29-3.84-2.53-5.98-.34-2.98-.08-6.03-.07-9.05Z"/>
        <path class="cls-55" d="M604.61,910.87c1.33,6.07.12,8.6-6.98,7.44-7.38-1.21-15.05-.82-22.59-.76-4.23.03-5.6-1.48-5.41-5.71.31-6.88.16-13.8-.08-20.69-.08-2.3-.11-3.71,2.74-3.59,5.6.22,11.2.28,16.8.38,1.37.03,2.71.15,2.68,1.92-.02,1.69-1.31,2.02-2.69,2.01-2.59-.02-5.33.45-7.73-.25-5.31-1.54-5.65,1.19-5.26,5.16.17,1.71.05,3.45,0,5.17-.28,10.36-.28,10.29,10.53,10.59,4.07.11,8.3-.69,12.16.91,3.09,1.28,3.91-1.68,5.82-2.6Z"/>
        <path class="cls-26" d="M657.3,910.53c1.5,11.74.11,13.3-8.42,12.34-6.82-.76-13.64-1.52-20.45-2.39-5.47-.7-8.47-3.69-8.4-9.45.07-5.37-.06-10.75-.02-16.12.01-1.46-1.54-3.93,1.39-3.93,2.08,0,4.29,1.09,4.35,3.84.1,4.51.24,9.03.09,13.54-.14,4.45,1.51,6.92,6.21,7.1,2.35.09,4.67.67,7.01,1,6.36.9,13.15,3.97,18.23-5.95Z"/>
        <path class="cls-56" d="M253.13,934.96c5.01-9.45,6.41-19.73,11.43-28.6.96-1.69,2.11-3.27,3.38-5.2,3.12,4.47-3.4,7.94,1.6,10.92,5.44,3.24,10.42,1.52,15.14-1.26,4.71-2.78-1.29-6.57.79-10.1,4.27,3.05,7.23,6.95,8.57,12.13,1.08,4.16,2.4,8.25,3.55,12.39.42,1.53,3.02,3.6-.49,4.45-2.29.56-5.31,1.81-6.27-2.12-.25-1.04-.28-2.14-.53-3.19-2.53-10.72-2.74-10.94-11.77-4.72-2.91,2-4.2.28-6.1-.93-4.1-2.62-7.36-3.21-8.35,3.08-.4,2.51-1.82,4.85-2.36,7.36-.91,4.23-3.26,6.24-8.58,5.78Z"/>
        <path class="cls-38" d="M408.97,905.88c-1.48,10.78-2.93,12.12-12.82,12.71-5.37.32-10.73.93-16.1,1.19-7.66.36-9.3-1.25-9.1-8.74.15-5.59.62-11.18.64-16.77,0-2.17.35-3.29,2.71-3.13,2.07.14,3.75.23,3.49,3.23-.44,4.93-.33,9.9-.62,14.84-.2,3.36,1.21,4.71,4.53,4.56,4.95-.22,9.91-.31,14.87-.37,3.23-.04,5.8-.99,7.57-3.96.94-1.57,2.08-3.31,4.83-3.56Z"/>
        <path class="cls-51" d="M533.8,901.58c0,3.44-.05,6.88,0,10.31.03,1.98-.4,3.33-2.81,3.28-2.01-.04-2.55-1.11-2.54-2.85.05-7.31.09-14.61.1-21.92,0-1.85.72-2.73,2.67-2.68,2.01.05,2.54,1.19,2.53,2.9-.01,3.65-.01,7.31-.02,10.96h.07Z"/>
        <path class="cls-14" d="M689.27,900.12c3.7,1.08,5.12,2.67,5.18,5.74.12,6.42.57,12.84.72,19.27.03,1.32,1.49,3.84-1.76,3.6-2.15-.16-4.27-.42-4.22-3.57.13-8.13.07-16.26.08-25.03Z"/>
        <path class="cls-77" d="M493.53,900.31c0,3.85-.04,7.7,0,11.56.01,1.66-.26,2.94-2.32,3.06-2.28.13-2.99-1.01-2.98-3.1.06-7.28.14-14.55.03-21.83-.04-2.59,1.05-3.32,3.42-3.37,2.97-.06,2.07,1.77,2.02,3.42-.1,3.42-.04,6.85-.05,10.27-.04,0-.08,0-.11,0Z"/>
      </g>
      <g>
        <path class="cls-12" d="M479.13,621.24c4.62,0,10.35.02,16.36.03-3.04,7-1.24,14.2-1.82,21.22-.19,2.37,1.49,2.84,3.39,2.6,4.74-.6,12.5,2.2,13.65-1.4,2.17-6.8,3.29-15.01-1.96-22.16,6.46.01,12.73.02,17.83.03-.65,20.04-5.18,39.85-.42,60.28-4.52,0-10.88-.02-17.95-.03,3.6-4.47,1.85-9.75,2.4-14.78.79-7.23-2-8.89-9.08-8.9-7.15-.02-9.09,2.44-8.17,8.79.69,4.82-2.27,10.06,3.08,15.05-7.09-.01-12.78-.02-17.95-.03,3.46-19.7-.48-39.82.64-60.69Z"/>
        <path class="cls-22" d="M574.9,669.21c2.02-1.79,4.42-5.5,4.85.93.13,2.01-.04,4.06.28,6.03.97,5.91-1.03,8.16-7.33,7.69-10.31-.76-20.69-.76-31.04-.99-4.57-.1-7.74.73-5.66-6.78,1.87-6.76,2.19-14.53-.62-22.4-1.13-3.16,1.51-10.07,1.58-15.39.08-5.42.39-10.87-1.85-16.5,12.46.02,24.18.11,35.9.03,3.87-.03,4.9,1.93,4.75,5.37-.15,3.71-.05,7.44-.06,12.82-6.64-8.25-14.6-5.15-21.83-5.61-4.52-.29-2.76,3.51-2.79,5.65-.03,2.16-1.53,5.61,2.98,5.53,3.96-.06,7.97.21,11.91-2.24-.01,6.28-.02,12-.03,18.54-4.27-3.44-9.39-4.81-13.56-2.43-2.74,1.56-1.01,6.36-1.09,9.73,7.87,1.83,15.74,1.93,23.61,0Z"/>
        <path class="cls-59" d="M435.76,682.66c2.96-9.31,3.67-18.82.8-28.24-1.44-4.71,2.15-8.16,1.67-12.81-1.02-9.9-1.44-10.69-11.15-7.46-2.1.7-4.06,1.86-6.14,2.83-.23-.44-.63-.84-.63-1.24-.02-14.55-.02-14.43,14.17-14.26,8.62.11,17.29.36,25.84-.48,7.17-.71,9.06,1.94,8.08,8.43-.38,2.53-.07,5.16-.07,7.7-3.02.58-3.09-2.35-4.69-3.26-3.47-1.98-7.38-2.02-10.78-.71-2.87,1.1-1.7,4.62-1.55,6.98.66,10.86-.73,21.69-.27,32.54.14,3.33-.9,7.02,5.62,10-8.93-.02-14.96-.03-20.89-.04Z"/>
        <g>
          <path class="cls-20" d="M502.65,650.19c16.98.22,17.16.22,16.74,17.19-.1,3.86,2.29,11.01-2.16,10.97-4.76-.04-1.49-7.08-2.35-10.93-.94-4.19,2.74-10.42-2.54-12.35-6.39-2.34-13.83-.81-20.27.89-3.77.99-1.9,7.12-2.75,10.89-.85,3.77,2.41,10.78-2.92,10.62-4.62-.14-2.17-7.2-2.16-11.08.05-20.21-1.25-15.82,18.41-16.19Z"/>
          <path class="cls-2" d="M563.99,652.77c-2.73.79-3.71,1.1-4.71,1.35-3.75.93-9.35-2.32-11.06,1.61-1.93,4.45-1.2,10.13-1.32,15.29-.08,3.32,2.71,3.19,4.98,3.25,6.6.19,13.2.32,19.8.36,1.51,0,3.42-1.55,3.61,1.51.14,2.38-.49,3.77-3.3,3.62-8.88-.45-17.77-.74-26.65-1.13-1.38-.06-2.86.01-3.79-1.44-.83-1.31-.17-24.47.92-25.59.49-.5,1.52-1.04,2.07-.86,5.77,1.91,11.91-1.8,19.46,2.03Z"/>
          <path class="cls-31" d="M442.4,665.23c0-2.87-.03-5.74.03-8.61.03-1.65-.26-3.89,2.18-3.8,1.98.07,2.69,1.93,2.69,3.79,0,6.6-.03,13.2-.12,19.8-.02,1.54-.72,2.97-2.4,2.99-1.72.02-2.34-1.43-2.36-2.97-.04-3.73,0-7.46,0-11.19h-.03Z"/>
        </g>
      </g>
    </g>
    <g>
      <path class="cls-40" d="M314.64,533.97c-.73.17-1.46.33-2.19.48-.9.19-1.81.34-2.72.49-.74.12-1.45.21-2.15.3l-.5.06c-.79.1-1.59.2-2.39.25-1.35.1-2.7.16-4.05.2-1.01.03-2.03.03-3.05.01-.98-.02-1.96-.05-2.93-.11-1.23-.09-2.45-.19-3.67-.33-2.03-.22-4.07-.57-6.25-1.07-2.76-.64-5.24-1.43-7.58-2.44-2.59-1.11-4.77-2.37-6.65-3.84-1.8-1.41-3.18-2.91-4.23-4.59-.93-1.49-1.53-3.07-1.78-4.69l-.13-1.85c0-.24,0-.49.02-.73.11-1.51.51-3,1.18-4.44.8-1.71,1.92-3.3,3.43-4.85,1.67-1.71,3.6-3.21,5.91-4.59,3.49-2.08,7.34-3.7,11.76-4.93,1.18-.33,2.37-.61,3.56-.89.86-.21,1.63-.35,2.4-.49.65-.12,1.31-.22,1.97-.31l.29-.04c.79-.11,1.59-.23,2.39-.32.63-.07,1.27-.13,1.91-.18l2.98-.19c.53-.02,1.06-.04,1.59-.05,1.27,0,2.54,0,3.81.03,1.04.03,2.09.08,3.13.17,1.26.11,2.53.26,3.78.43,2.15.29,4.31.73,6.43,1.3,2.79.75,5.21,1.64,7.4,2.7,2.5,1.21,4.56,2.56,6.29,4.13,1.52,1.37,2.67,2.8,3.52,4.38h0c.69,1.27,1.13,2.6,1.34,3.93l.14,1.5-.03.57c-.01.38-.02.75-.07,1.12-.18,1.45-.63,2.89-1.35,4.29-.97,1.9-2.33,3.64-4.16,5.32-1.59,1.47-3.42,2.79-5.59,4.03-3.55,2.04-7.5,3.61-12.05,4.81-.57.15-1.13.29-1.7.42ZM267.63,517.35l.11.85c.18,1.19.61,2.32,1.32,3.44.85,1.36,1.98,2.58,3.47,3.75,1.65,1.3,3.59,2.41,5.92,3.41,2.16.93,4.46,1.66,7.02,2.26,2.05.47,3.97.8,5.87,1,1.18.13,2.36.23,3.55.32.92.06,1.84.09,2.76.11.96.02,1.92.02,2.88-.01,1.31-.04,2.62-.1,3.92-.2.74-.05,1.48-.15,2.22-.24l.51-.06c.66-.08,1.32-.17,1.97-.27.9-.15,1.76-.28,2.61-.47,1.25-.27,2.51-.54,3.75-.86,4.27-1.12,7.95-2.59,11.25-4.48,1.95-1.12,3.59-2.3,5-3.6,1.54-1.42,2.67-2.86,3.47-4.4.55-1.07.88-2.11,1.01-3.19.03-.27.04-.54.05-.82v-.99s-.08-.49-.08-.49c-.15-.97-.47-1.91-.98-2.86h0c-.67-1.24-1.59-2.39-2.83-3.5-1.51-1.36-3.31-2.54-5.53-3.61-2.01-.97-4.24-1.79-6.82-2.49-1.98-.54-4.01-.94-6.01-1.21-1.21-.16-2.42-.3-3.64-.41-.97-.09-1.95-.14-2.92-.16-1.24-.03-2.47-.03-3.71-.03-.49,0-.98.02-1.47.04l-1.71.07c-.09.02-.17.03-.26.04l-.88.08c-.61.05-1.21.1-1.82.17-.76.09-1.52.2-2.28.31l-.29.04c-.62.09-1.23.18-1.84.29-.71.13-1.43.28-2.13.43-1.25.29-2.4.56-3.53.88-4.13,1.15-7.72,2.65-10.96,4.59-2.06,1.23-3.77,2.56-5.24,4.06-1.24,1.28-2.16,2.57-2.81,3.95-.5,1.07-.8,2.18-.88,3.29-.01.16-.01.33-.01.49v.49Z"/>
      <g>
        <path class="cls-79" d="M266.02,517.82c-.01-.17-.02-.35-.03-.52,0-.05.01-.1.02-.16,0-.3,0-.61.02-.91.1-1.35.46-2.64,1.03-3.87.77-1.65,1.85-3.1,3.12-4.4,1.65-1.7,3.54-3.11,5.57-4.33,3.56-2.12,7.38-3.65,11.36-4.76,1.19-.33,2.39-.61,3.6-.9.73-.17,1.47-.31,2.21-.45.63-.12,1.27-.21,1.9-.3.87-.13,1.75-.26,2.63-.35.91-.1,1.82-.17,2.73-.25.07,0,.13-.02.2-.04.29-.02.58-.04.86-.05.07,0,.14.01.21,0,.77-.03,1.54-.07,2.3-.08,1.25,0,2.51,0,3.76.03,1.01.03,2.02.08,3.03.17,1.24.11,2.48.26,3.71.42,2.1.28,4.18.7,6.22,1.26,2.45.66,4.83,1.49,7.11,2.59,2.14,1.04,4.14,2.28,5.91,3.87,1.27,1.14,2.36,2.43,3.17,3.94.57,1.07.98,2.2,1.16,3.4.03.21.07.43.1.64l.03.49c0,.07-.01.13-.02.2-.02.47-.02.95-.08,1.42-.16,1.32-.58,2.56-1.18,3.74-.96,1.87-2.28,3.45-3.81,4.86-1.61,1.48-3.4,2.73-5.3,3.81-3.66,2.1-7.58,3.57-11.65,4.64-1.26.33-2.54.61-3.82.88-.89.19-1.79.33-2.69.48-.68.11-1.36.2-2.04.28-.93.11-1.87.24-2.81.31-1.33.09-2.66.16-3.99.2-.99.03-1.98.03-2.97.01-.95-.02-1.9-.05-2.85-.11-1.2-.08-2.41-.19-3.61-.32-2.04-.22-4.06-.58-6.06-1.04-2.5-.58-4.94-1.33-7.3-2.35-2.24-.96-4.36-2.12-6.28-3.62-1.51-1.18-2.83-2.54-3.85-4.17-.78-1.25-1.32-2.6-1.55-4.07-.03-.21-.07-.42-.1-.62ZM309.81,525.94s.07,0,.1,0c1.5-.09,2.99-.19,4.49-.28.09,0,.12-.04.13-.12.06-.47.12-.93.17-1.4.15-1.19.3-2.38.45-3.57.01-.09.03-.15.15-.16,1.44-.09,2.89-.19,4.33-.26,1-.05,1.96-.22,2.89-.61,1.92-.81,3.38-2.14,4.34-3.98,1.07-2.06,1.34-4.24.82-6.5-.39-1.66-1.4-2.81-3-3.42-1.05-.4-2.15-.54-3.27-.48-2.31.13-4.61.28-6.92.43-.61.04-1.23.08-1.84.11-.11,0-.15.05-.16.15-.02.21-.05.42-.08.63-.27,1.99-.53,3.98-.8,5.98-.29,2.14-.57,4.28-.85,6.42-.27,1.99-.53,3.98-.8,5.98-.05.36-.09.71-.14,1.07ZM276.79,528.02h.19c1.44-.1,2.89-.2,4.33-.28.15,0,.19-.06.21-.2.2-1.64.41-3.27.62-4.91.01-.1.05-.14.15-.14.19,0,.38-.02.58-.03,1.33-.08,2.66-.16,3.99-.24.89-.05,1.75-.22,2.57-.57,2.32-.97,3.94-2.64,4.86-4.98.42-1.06.61-2.18.62-3.32,0-.84-.07-1.66-.31-2.46-.4-1.33-1.2-2.34-2.46-2.95-1.14-.56-2.37-.76-3.63-.69-2.96.15-5.91.36-8.86.54-.12,0-.17.04-.19.17-.27,2.07-.55,4.15-.82,6.22-.27,2.06-.55,4.12-.82,6.18-.27,2.04-.55,4.08-.82,6.12-.07.51-.13,1.02-.2,1.55ZM301.91,501.21c-.08,0-.13,0-.18,0-1.45.09-2.9.18-4.35.27-.14,0-.18.06-.2.19-.27,2.04-.54,4.08-.81,6.12-.3,2.29-.61,4.57-.92,6.86-.28,2.1-.56,4.2-.84,6.3-.03.25-.06.49-.1.75.07,0,.11,0,.16,0,1.46-.09,2.93-.18,4.39-.27.11,0,.15-.04.17-.16.19-1.43.39-2.86.58-4.29.25-1.87.51-3.74.76-5.6.05-.39.11-.79.16-1.18.04,0,.08-.01.11-.01,1.24-.08,2.48-.16,3.73-.23.32-.02.64,0,.95.12.29.11.46.32.52.63.08.39.01.79-.03,1.17-.09.79-.2,1.58-.3,2.37-.26,2.04-.51,4.07-.76,6.11-.03.23-.05.46-.08.71h.24c.84-.07,1.68-.12,2.52-.17.68-.04,1.35-.09,2.03-.13.11,0,.16-.03.18-.16.16-1.51.32-3.01.48-4.52.2-1.86.4-3.73.6-5.59.06-.59.05-1.17-.14-1.74-.32-.97-1-1.61-1.91-2.02-1.05-.48-2.17-.61-3.31-.57-1.37.05-2.73.16-4.1.25-.06,0-.12,0-.2.01.22-1.75.44-3.48.66-5.22Z"/>
        <path class="cls-13" d="M309.81,525.94c.05-.36.09-.72.14-1.07.27-1.99.53-3.98.8-5.98.29-2.14.57-4.28.85-6.42.27-1.99.53-3.98.8-5.98.03-.21.06-.42.08-.63.01-.1.05-.15.16-.15.61-.03,1.23-.07,1.84-.11,2.31-.14,4.61-.3,6.92-.43,1.12-.06,2.22.08,3.27.48,1.6.61,2.62,1.76,3,3.42.52,2.26.26,4.45-.82,6.5-.96,1.84-2.42,3.17-4.34,3.98-.92.39-1.89.56-2.89.61-1.44.07-2.89.18-4.33.26-.12,0-.14.07-.15.16-.15,1.19-.3,2.38-.45,3.57-.06.47-.12.93-.17,1.4,0,.08-.04.11-.13.12-1.5.09-2.99.19-4.49.28-.03,0-.06,0-.1,0ZM315.92,516.63c.08,0,.14,0,.2,0,.71-.04,1.43-.09,2.14-.13.44-.02.88-.08,1.31-.18.7-.17,1.36-.43,1.91-.9.67-.56,1.03-1.31,1.24-2.14.18-.7.24-1.41.23-2.13-.01-.88-.42-1.52-1.23-1.88-.56-.25-1.15-.3-1.75-.27-1.05.05-2.09.13-3.14.19h-.16c-.26,2.5-.51,4.96-.77,7.44Z"/>
        <path class="cls-13" d="M276.79,528.02c.07-.54.14-1.05.2-1.55.27-2.04.55-4.08.82-6.12.28-2.06.55-4.12.82-6.18.28-2.07.55-4.15.82-6.22.02-.13.07-.16.19-.17,2.95-.18,5.91-.39,8.86-.54,1.25-.07,2.48.13,3.63.69,1.26.62,2.06,1.62,2.46,2.95.24.8.31,1.63.31,2.46,0,1.14-.2,2.26-.62,3.32-.92,2.34-2.54,4.01-4.86,4.98-.82.34-1.69.51-2.57.57-1.33.08-2.66.16-3.99.24-.19.01-.38.03-.58.03-.1,0-.14.05-.15.14-.2,1.64-.41,3.27-.62,4.91-.02.14-.06.19-.21.2-1.44.08-2.89.18-4.33.27h-.19ZM283.68,511.26c-.01.06-.02.1-.03.14-.09.83-.17,1.65-.25,2.48-.16,1.54-.32,3.08-.47,4.62-.02.21-.02.21.19.2.78-.05,1.56-.11,2.34-.14.52-.03,1.02-.14,1.51-.29,1.41-.42,2.31-1.34,2.7-2.76.2-.73.27-1.47.28-2.22.01-1.02-.5-1.64-1.24-1.96-.56-.24-1.15-.29-1.75-.27-.96.05-1.93.12-2.89.18-.12,0-.25.02-.39.02Z"/>
        <path class="cls-13" d="M301.91,501.21c-.22,1.75-.44,3.47-.66,5.22.08,0,.14,0,.2-.01,1.37-.09,2.73-.19,4.1-.25,1.14-.05,2.26.09,3.31.57.91.41,1.59,1.05,1.91,2.02.19.57.2,1.15.14,1.74-.2,1.87-.4,3.73-.6,5.59-.16,1.51-.33,3.01-.48,4.52-.01.13-.07.16-.18.16-.68.04-1.35.08-2.03.13-.84.05-1.68.11-2.52.16h-.24c.03-.24.06-.47.08-.7.25-2.04.51-4.07.76-6.11.1-.79.2-1.58.3-2.37.05-.39.11-.78.03-1.17-.06-.3-.23-.51-.52-.63-.31-.12-.63-.14-.95-.12-1.24.07-2.48.15-3.73.23-.03,0-.07,0-.11.01-.05.4-.11.79-.16,1.18-.25,1.87-.5,3.74-.76,5.6-.19,1.43-.39,2.86-.58,4.29-.02.12-.06.15-.17.16-1.46.09-2.93.18-4.39.27-.05,0-.09,0-.16,0,.03-.26.06-.51.1-.75.28-2.1.56-4.2.84-6.3.31-2.29.61-4.57.92-6.86.27-2.04.54-4.08.81-6.12.02-.13.06-.19.2-.19,1.45-.09,2.9-.18,4.35-.27.05,0,.1,0,.18,0Z"/>
        <path class="cls-79" d="M315.92,516.63c.26-2.48.51-4.95.77-7.43h.16c1.05-.08,2.09-.15,3.14-.2.6-.03,1.19.02,1.75.27.81.36,1.22,1,1.23,1.88,0,.72-.06,1.43-.23,2.13-.21.83-.58,1.58-1.24,2.14-.55.47-1.21.73-1.91.9-.43.11-.87.16-1.31.18-.71.04-1.43.09-2.14.13-.06,0-.12,0-.2,0Z"/>
        <path class="cls-79" d="M283.68,511.26c.14,0,.26-.02.39-.02.96-.06,1.93-.13,2.89-.18.6-.03,1.19.02,1.75.27.74.32,1.25.94,1.24,1.96,0,.75-.08,1.49-.28,2.22-.39,1.42-1.29,2.34-2.7,2.76-.49.15-.99.26-1.51.29-.78.04-1.56.1-2.34.14-.21.01-.21.01-.19-.2.16-1.54.32-3.08.47-4.62.08-.83.17-1.65.25-2.48,0-.04.02-.08.03-.14Z"/>
      </g>
    </g>
  </g>
</svg>