<?xml version="1.0" encoding="UTF-8"?>
<svg id="Layer_1" data-name="Layer 1" xmlns="http://www.w3.org/2000/svg" width="1000" height="1000" viewBox="0 0 1000 1000">
  <defs>
    <style>
      .cls-1 {
        fill: #6d6d6d;
      }

      .cls-2 {
        fill: #dfdfdf;
      }

      .cls-3 {
        fill: #939393;
      }

      .cls-4 {
        fill: #cecece;
      }

      .cls-5 {
        fill: #bdbdbd;
      }

      .cls-6 {
        fill: #ddd;
      }

      .cls-7 {
        fill: #545454;
      }

      .cls-8 {
        fill: #d6d6d6;
      }

      .cls-9 {
        fill: #707070;
      }

      .cls-10 {
        fill: #a2a2a2;
      }

      .cls-11 {
        fill: #ababab;
      }

      .cls-12 {
        fill: #d9d9d9;
      }

      .cls-13 {
        fill: #a5a5a5;
      }

      .cls-14 {
        fill: #e5e5e5;
      }

      .cls-15 {
        fill: #9d9d9d;
      }

      .cls-16 {
        fill: #b4b4b4;
      }

      .cls-17 {
        fill: #9b9b9b;
      }

      .cls-18 {
        fill: #a0a0a0;
      }

      .cls-19 {
        fill: #dadada;
      }

      .cls-20 {
        fill: #b3b3b3;
      }

      .cls-21 {
        fill: #fff;
      }

      .cls-22 {
        fill: #d7d7d7;
      }

      .cls-23 {
        fill: #e1e1e1;
      }

      .cls-24 {
        fill: #fefefe;
      }

      .cls-25 {
        fill: #4a4a4a;
      }

      .cls-26 {
        fill: #d5d5d5;
      }

      .cls-27 {
        fill: #dbdbdb;
      }

      .cls-28 {
        fill: #afafaf;
      }

      .cls-29 {
        fill: #737373;
      }

      .cls-30 {
        fill: #ededed;
      }

      .cls-31 {
        fill: #dcdcdc;
      }

      .cls-32 {
        fill: #484848;
      }

      .cls-33 {
        fill: #535353;
      }

      .cls-34 {
        fill: #aeaeae;
      }

      .cls-35 {
        fill: #4c4c4c;
      }

      .cls-36 {
        fill: #4d4d4d;
      }
    </style>
  </defs>
  <path class="cls-21" d="M884.8,638.53c35.83-73.64,56.04-152.5,69.65-212.98,2.52-11.3-4.85-16-7.99-18.01-.32-.21-.66-.42-1.01-.65-32.12-21.54-66.49-39.85-102.18-54.42,20.11-37.59,45.95-69.04,76.82-93.52,6.4-5.06,12.7-12.49,4.63-25.04-8.1-12.58-16.06-25.6-23.76-38.2-5.89-9.63-11.98-19.59-18.11-29.32-2.53-4.01-5.04-8.03-7.55-12.05-16.63-26.64-33.83-54.18-55.87-78.28-15.75-17.22-35.06-25.94-59.02-26.65-39.52-1.2-79.74,7.83-126.62,28.41-6.27,2.76-9.4,2.62-15.2-.65-38.02-21.45-74.99-32.29-113-33.15-41.75-.96-82.85,9.97-122.17,32.5-7.07,4.05-11.06,4.34-17.79,1.26-30.63-13.99-63.21-23.35-96.83-27.81-44.51-5.88-76.94,7.02-99.09,39.4-.47.69-1.09,1.45-1.74,2.26l-.84,1.05c-24.96,31.89-46.32,66.66-66.97,100.27-9.02,14.69-18.35,29.88-27.81,44.53-6.32,9.7-.71,15.95,3.19,18.81,31.44,23.08,57.18,53.62,80.88,96.02-39.96,15.03-75.9,37.2-102.87,54.94-7.35,4.82-9.91,11.25-7.82,19.65,1.63,6.57,3.11,13.36,4.54,19.93.82,3.77,1.64,7.54,2.49,11.29,22.65,100.4,54.59,178.91,100.14,246.01l-10.9,1.88,7.72,32.57,1.53,1.7c.47.53.94,1.02,1.39,1.48l.02,1.71c.09,8.09.17,15.73-.08,23.3-.12,1.43-1.99,5.53-3.23,8.25-3.27,7.19-6.93,15.22-4.51,22.29v.99c.08,15.27.21,43.7-.93,59.35-.21,2.85.79,5.61,2.74,7.59,3.21,3.25,7.18,3.02,9.32,2.89,2.12-.13,2.89-.09,3.91.8,7.3,6.4,16.24.94,21.58-2.31.81-.5,1.94-1.19,2.67-1.57,2.65-.14,4.76-.58,5.86-.8,14.78-3.07,29.58-5.79,46.04-8.77l.29-.05c4.31-.78,8.41-1.52,12.36-2.96l7.69-1.01c-1.67,1.58-3.13,3.42-4.36,5.52-2.71,4.62-3.83,9.88-3.29,15.31-.75,3.71-2.6,8.09-4.57,12.76-2.67,6.31-5.69,13.47-7.35,21.84-.91,4.56-2.67,8.35-5.54,11.94l-.87,1.08-13.86,35.92,36.08.23.84-.16c4.17-.77,8.07-1.49,11.97-2.2l9.34-1.72,23.28-3.14c4.63-.62,9.16-1.23,13.69-1.85l55.7-7.58-3.84-2.88c.29-.16.58-.32.86-.49,4.58,2.08,9.84,3.14,15.2,3.11.31,0,.62-.01.88-.02,7.67-.25,15.83-.81,24.94-1.71.81-.08,1.63-.19,2.45-.32l51.92-3.03,33.97.07-.05.23,44.03.09,22.26,1.4c2.91.18,5.8.36,8.69.54l2.74.17c10.26.63,19.96,1.22,29.77,1.97.9.07,1.8.1,2.65.09,3.08-.03,5.99-.54,8.7-1.51,3.32,1.51,6.84,2.51,10.52,2.99,9.38,1.22,17.15,2.06,24.44,2.66.87.07,2.49.2,4.46.19.79,0,1.58-.04,2.35-.1l-.19,1.15,79.16,4.2-8.09-18.99,9.27,9.27.1-55.52c0-1.64-.01-3.2-.02-4.71v-.25c-.03-2.89-.06-5.61.07-7.97.34-6.07-1.03-11.66-3.86-16.29,4.25.6,8.47,1.19,12.65,1.78,8.65,1.23,17.3,2.45,25.95,3.64,2.57.66,5.16.96,7.55.96.92-.01,1.85-.07,2.77-.19l22.27,4.12c24.83,4.59,48.29,8.92,71.85,13.35,2.1.39,4.15.57,6.15.56,6.33-.07,12.03-2.3,16.49-6.44,5.87-5.45,8.56-13.25,7.58-21.96-.95-8.42-1.64-16.15-2.14-23.65-.59-8.88-4.45-16.17-10.93-20.69l-1.87-10.56-9.66,6.25c-6.83-.71-12.38,1.57-14.44,2.41-.62.26-1.25.52-1.87.79-.02,0-.04.02-.06.03-5.83-1.2-12.22-2.5-18.79-3.77-.86-20.58-1.88-40.91-2.88-60.63-.03-.59-.06-1.18-.1-1.82-.01-.24-.03-.54-.05-.85l4.53-28.03c13.56-21.36,25.97-43.84,38.94-70.51Z"/>
  <g>
    <path class="cls-32" d="M945.72,423.6c-16.32,72.53-36.28,143.84-68.97,211.01-11.82,24.29-24.6,48.02-39.86,71.84l-670.65,4.55c1.34-1.98.28-2.91-.37-3.86-53.5-75.89-84.14-161.28-104.38-250.99-2.37-10.46-4.49-20.99-7.07-31.4-1.15-4.62-.16-7.25,4.04-10.01,32.77-21.56,66.49-41.34,103.44-54.91,6.38-2.34,6.36-4.62,3.43-9.91-21.63-39.13-48.11-74.14-84.5-100.85-3.19-2.34-2.88-3.8-.98-6.71,31.13-48.26,58.81-98.79,94.33-144.17.98-1.24,2.01-2.45,2.91-3.74,22.14-32.36,53.59-40.49,90.55-35.61,32.82,4.36,64.3,13.38,94.28,27.08,9.85,4.51,16.9,3.55,25.96-1.64,36.3-20.8,75.41-32.28,117.51-31.31,39.04.88,75.1,12.98,108.81,32,8.17,4.61,14.31,4.95,23.2,1.04,39.01-17.13,79.42-28.97,122.74-27.66,20.96.63,38.28,8,52.69,23.75,24.72,27.03,43.1,58.36,62.45,89.06,14.13,22.42,27.57,45.31,41.92,67.59,4.04,6.28,2.92,8.76-2.66,13.17-34.16,27.09-60.51,60.64-80.69,99.22-3.43,6.56.58,7.38,4.79,9.1,35.8,14.52,69.74,32.55,101.83,54.08,3.34,2.25,6.56,3.4,5.25,9.28Z"/>
    <path class="cls-5" d="M730.85,557.01c-12.03,7.36-22.96,3.28-33.56-3.34-2.93-1.83-5.63-4.05-8.43-6.09-15.69-9.79-20.84-9.81-32.67,3.1-28.31,30.91-62.63,31.21-98.45,18.69-41.6-14.53-70.82-43.83-91.29-82.36-10.96-20.61-18.83-42.46-26.32-64.48-6.32-31.64-15.85-63.09-5.5-95.84-9.22,13.54-13.32,28.56-15.13,44.35-1.62,3.92-.49,8.02-.74,12.03-.18,2.86-1.8,4.8-3.98,2.88-10.68-9.42-23.44-9.84-36.53-9.31,1.56-12.58,9.59-21.15,20.36-30.6-11.38,3.22-17.55,9.85-24.2,15.75-11.76-.32-17.22-9.89-22.93-17.44-14.45-19.09-13.28-40.39-4.85-61.55,2.36-5.93,6.32-11.85,14.63-10.68,15.24,2.25,29.86,6.8,45.32,11.23-3.4,4.66-8.58,4.1-12.34,7.7,13.06-.41,24.65-3.38,36.45-8.56,1.14,4.89-2.35,7.38-3.63,10.57-.97,2.44-1.32,5.26-3.99,6.7,2.27-1.17,3.32-4.17,6.21-4.47,14.51-13.59,23.55-30.97,33.19-47.94-.9-1.88-.45-3.5.95-4.94,3.34-2.16,6.69-4.32,10.03-6.49-.12-.4-.24-.8-.35-1.2-7.02,1.75-14.03,3.5-21.05,5.24-4.31-3.62-4.16-8.99-5.25-13.81-4.84-21.32-14.82-39.23-33.09-52.13-7.83-5.53-14.94-5.29-22.59-.06-7.81,5.34-13.56,12.42-16.93,21.04-5.18,13.27-6.67,27.23-5.75,41.44.12,8.22,2.01,16.11,4.78,23.89-16.1-.34-16.22-.32-18.64-14.92-3.87-23.29-9.2-46.46-5.38-70.36.8-5.02,1.92-9.88,4.01-14.51.9-4.33,2.43-8.42,5.27-11.85,3.48-4.2,3.4-6.6-2.5-8.58-25.67-8.62-50.88-18.55-76.31-28.47,2.4,2.89,5.11,5.24,3.18,9.2-.08.17-.49.28-.73.27-.3-.02-.6-.19-.89-.3-6.44-2.53-12.74-5.59-19.36-7.5-22.14-6.37-41.66-1.79-58.34,14.55-15.5,15.19-26.21,33.86-38.21,51.6-.96,5.09-3.3,9.47-7.35,13.87,17.79-12.18,36.05-21.56,56.01-27.84,24.54-7.72,45.25-1.95,63.53,15.36,18.45,17.47,30.11,38.64,35.32,63.47,2.64,12.59,1.39,24.81-5.35,35.67-12.98,20.92-24.3,42.81-37.78,63.43-3.31,5.06-7.15,9.64-12.11,13.17-10.48,7.46-18.02,6.74-26.33-3.07-9.18-10.84-16.28-23.3-25.76-33.91-13.02-14.58-26.06-29.2-43.47-38.89-14.25-14.32-28.85-28.24-45.77-39.49-5.09-3.39-5.04-7.45-1.14-11.91,23.83-27.29,40.56-59.46,61.09-89.01,7.56-10.88,15.34-21.55,25.21-30.65,26.49-24.44,56.96-25.77,89.54-16.38,20.96,6.04,41.78,12.57,62.05,20.61,11.22,4.45,20.38,4.65,31.7-2.3,28.88-17.74,60.74-26.88,94.89-29.8,45.15-3.86,87.99,2.8,126.78,25.95,16.74,9.99,30.59,10.24,47.73,3.17,19.51-8.05,39.85-14.21,60.5-19.12,45.61-10.84,76.32,1.13,103.33,39.53,17.65,25.09,32.82,51.76,50.37,76.9,5.25,7.52,10.87,14.75,16.29,22.13,2.66,3.62,4.41,7.95-.09,10.79-17.75,11.23-31.67,26.97-47.95,39.9-17.02,11.22-30.8,25.95-43.84,41.33-7.53,8.88-14.07,18.61-20.92,28.06-8.88,12.24-21.13,13.23-32.48,3.29-6.57-5.74-11.05-13.01-14.9-20.57-7.74-15.2-16.04-30.11-25.71-44.1-15.25-22.07-15.51-44.41-4.09-67.94,8.75-18.05,18.43-35.36,35.5-46.93,18.38-12.45,38.07-16.03,59.28-7.51,16.43,6.6,32.3,14.25,47.29,23.49.2-4.1-3.84-6.74-3.47-10.78-9.07-15.93-18.99-31.29-31.13-45.08-22.6-25.67-48.46-30.73-79.13-15.62-2.54,1.25-5.04,2.6-7.55,3.91q-1.45-3.55,3.06-9.61c-25.48,9.05-49.58,19.6-74.65,27.5-5.61,1.77-5.71,4.53-2.62,9.01,2.22,3.21,5.93,5.82,5.53,10.47,8.87,31.65,3.8,63.03-1.95,94.37-.98,5.34-1.31,5.28-17.55,7.06,1.08-3.96,2.12-7.8,3.17-11.64,1.25-14.41,2.29-28.73-1.23-43.11-3.31-13.51-10.46-24.14-21.03-32.88-5.22-4.32-10.62-5.18-16.68-2.23-10.13,4.94-18.9,11.49-24.61,21.45-6.64,11.57-12.03,23.62-14.02,36.99-.84,5.68-2.48,10.91-10.22,8.73-5.26-1.35-10.51-2.71-18.17-4.68,5.61,3.74,9.13,6.09,12.65,8.43,1.51,2.19,1.23,4.84,1.88,7.25,10.86,19.13,21.46,38.45,40.5,54.24-3.42-8.28-9.37-13.06-10.68-21.14,12.17,3.4,23.6,8.67,36.77,8.16-2.95-3.59-8.28-2.68-11.06-7.39,12.26-4.23,24.37-8.02,37.11-9.63,16.29-1.58,21.11,1.63,25.41,17.55,6.8,25.1.43,46.55-18.49,64.24-3.87,3.61-7.99,7.32-14.1,5.9-6.69-6.36-12.87-13.44-24.03-16.37,9.76,7.32,15.83,15.33,18.55,25.64,1.97,5.04.14,7.57-5.03,6.12-9.12-2.55-16.43.55-23.34,6.05-2.11,1.67-4.45,4.5-7.28,3-2.88-1.53-1.06-5.06-1.41-7.68-.25-1.82.27-3.74-.69-5.48-1.82-15.37-6.15-29.86-15.23-42.85,5.33,20.71,6.06,41.31-.17,61.87-6.29,12.38-12.04,24.84-13.22,39.06-2.94,35.44,7.04,65.97,33.54,90.34,20.68,19.02,51.9,14.66,66.51-6.21,4.27-6.1,9.87-11.44,15.28-16.72,14.75-14.39,48.29-19.53,66.65-10.25,6.63,3.35,10.39,8.82,11.89,16.12,4.2,20.4-.91,37.97-15.59,52.75Z"/>
    <path class="cls-3" d="M840.63,194.72c-12.78-6.73-25.35-13.9-38.37-20.12-37.86-18.08-65.17-12.16-90.28,21.34-13.03,17.38-23.5,36.65-23.09,59.75.14,7.81,2.12,14.99,5.91,21.61,12.23,21.33,24.75,42.48,36.98,63.81,3.07,5.36,7.32,9.59,11.97,13.28,8.68,6.9,19.63,4.42,26.54-5.93,16.74-25.07,36.26-47.59,59.91-66.4,1.43-1.13,2.47-4.37,5.24-1.68,1.63,4.02-1.33,6.53-3.23,9.26-22.09,31.79-36.26,66.82-42.82,104.93-1.28,7.46-4.34,14.39-5.95,21.74-10.48,15.46-26.69,19.95-43.73,22.84-33.51,5.69-58.61-9.21-80.33-32.65-2.76-2.98-1.49-4.69.4-7.17,4.21-5.52,8.21-11.2,12.14-16.91,20.11-29.21,22.32-60.31,9.17-92.73-3.43-8.45-7.04-17.21-12.51-24.33-6.6-8.6-6.52-16.76-4.25-26.5,6.81-29.27,17.86-56.52,36.31-80.42,11.05-14.32,24.84-25.04,42.49-30.22,13.89-4.08,26.72-2.43,38.52,6.46,18.26,13.75,33.87,30.26,49.53,46.73,4.76,3.3,8.36,7.42,9.44,13.32Z"/>
    <path class="cls-21" d="M783.45,416.32c3.05-27.4,9.54-53.92,20.07-79.45,8.32-20.16,19.37-38.73,31.92-56.48,14.31-14.73,28.83-29.21,46.55-39.96,3.02-1.83,5.25-3.39,2.06-7.22-26.79-32.06-45.57-69.58-70.09-103.2-13.81-18.93-30.44-33.66-54.17-38.41-13.85-2.77-27.49-1.14-41.18,1.8-28.75,6.17-55.82,17.61-83.79,26.23-6.36,1.96-11.53,1.04-16.92-2.57-37.73-25.29-79.86-35.41-124.68-33.88-42.3,1.45-82.2,12.06-117.25,36.99-4.73,3.37-8.6.92-12.37-.3-16.79-5.43-33.3-11.71-50.09-17.13-18.85-6.09-37.7-12.15-57.9-12.44-25.82-.37-45.17,12.11-61.4,30.43-15.95,18.01-28.1,38.8-40.67,59.18-11.13,18.03-23.16,35.33-37.01,51.33-2.82,3.25-3.81,4.72.65,7.72,17.3,11.63,33.18,24.99,46.56,41.12,11.48,6.91,15.61,19.38,21.95,29.96,10.5,17.52,18.27,36.42,24.63,55.84.96,2.92,2.5,5.86.91,9.07-11.26,7.41-11.16,7.37-16.29-4.93-19.89-47.63-48.12-89.36-87.42-123.22-2.87-2.47-5.7-3.99-2.62-8.99,26.03-42.17,51.54-84.67,80.64-124.86,1.48-2.04,3.34-3.82,4.74-5.91,17.77-26.59,42.9-33.71,73.42-29.49,37.61,5.2,73.46,15.38,106.63,33.99,4.44,2.49,6.99.84,10.13-1.16,26.06-16.57,53.82-29.1,84.28-35.06,54.92-10.75,104.45,3.85,150.6,32.88,6.67,4.2,11.07,4.69,18.28,1.03,36.93-18.79,75.84-30.7,117.67-32.45,22.43-.94,39.52,7.44,53.56,24.53,20.72,25.23,37.78,52.88,54.83,80.57,11.25,18.27,22.36,36.63,33.82,54.77,2.63,4.16,2.86,6.46-1.28,9.99-39.53,33.66-66.77,76.16-87.75,123.1-6.95,15.55-14,31.04-21.01,46.57Z"/>
    <path class="cls-20" d="M152.09,545.89c.85,37.22,8.81,72.53,27.97,104.87,2.33,3.94,2.39,8.42,2.75,12.84,1.2,14.53,2.9,28.94,10.97,42.08-5.81,2.27-6.74-2.72-8.64-5.26-37.1-49.52-62.86-104.78-82.05-163.28-11.02-33.6-20.35-67.67-27.29-102.38-.94-4.72-1.09-8.01,3.7-11.15,28.33-18.58,58.17-34.17,89.53-46.97,6.15-2.51,8.32-1.01,11.18,4.8,4.79,9.74,4.55,18.46-1.23,27.33-3.24,4.24-8.18,5.62-12.76,7.67-12.35,5.53-24.11,12.2-35.95,18.74-5.87,3.25-7.67,7.29-6.27,13.9,6.04,28.35,13.94,56.15,23.97,83.33,1.64,4.44,2.69,9.01,4.11,13.49Z"/>
    <path class="cls-20" d="M809.7,404.27c3.65-8.38,7.5-16.68,10.86-25.18,1.68-4.26,3.82-4.99,7.9-3.29,32.4,13.49,63.34,29.72,92.81,48.78,2.87,1.86,3.54,4,2.84,7.14-19,84.32-44.24,166.32-89.22,241.02-.61,1.01-1.55,1.81-3.58,4.13,4.09-28.75,2.01-55.42-4.28-81.83.08-8.57,4.85-15.55,8.16-22.91,17.92-39.89,29.65-81.74,40.11-124.02,1.57-6.33-1.1-9.21-6.24-11.79-16.64-8.33-33.25-16.69-50.5-23.72-3.83-1.56-8.9-2.4-8.85-8.34Z"/>
    <path class="cls-3" d="M211.23,374.96c-11.43-33.83-26.04-66.07-47.5-94.88,4.72-.98,6.94,2.97,9.88,5.22,22.74,17.49,40.25,39.67,56.54,62.99,10.04,14.38,18.1,14.99,30.5,2.63,8.82-8.79,14.09-20.04,20.39-30.54,6.48-10.8,12.23-22.07,19.24-32.5,9.85-14.65,14.09-29.99,9.44-47.39-7.41-27.75-21.65-51.01-45.63-67.32-21.4-14.55-43.17-8.53-64.94.03-16.48,6.48-30.89,16.43-47.68,27.2,5.34-8.35,8.49-15.32,13.86-20.94,3.91,3.83,4.71-1.3,6.08-2.59,10.83-10.15,20.97-21.06,32.03-30.93,31.49-28.09,62.76-25.74,91.01,6.51,24.71,28.2,36.45,62.28,44.35,98.13,1.01,4.6-1.75,7.12-3.74,10.15-12.11,18.44-20.62,38.22-24.21,60.15-2.04,12.5.19,24.38,4.09,37.25-36.41-1.69-70.7,3.86-103.72,16.82Z"/>
    <path class="cls-14" d="M809.7,404.27c1.54,3.73,5.29,4.27,8.39,5.52,19.05,7.65,37.35,16.86,55.58,26.25,3.45,1.78,6.36,2.87,5.08,8.27-12.35,51.94-27.26,102.97-51.73,150.74-5.74-18.96-10.83-38.18-19.28-56.18-14.95-31.82-34.47-60.02-64.97-79.33,2.9-3.02,6.54-2.87,9.77-3.66,28.41-6.87,46.49-25.12,57.16-51.61Z"/>
    <path class="cls-3" d="M781.92,702.69c-30.17-2.08-60.34-4.2-90.52-6.2-5.11-.34-7.5-3.29-9.75-7.54-7.79-14.68-5.12-30.18-3.88-45.48,1.9-23.27,3.81-46.52,3.84-69.88,0-6.52,1.45-7.76,7.31-4.04,12.87,8.18,26.97,9.98,41.77,6.45,10.38,20.41,16.29,42.17,19.46,64.73,1.05,7.49,2.72,14.83,4.39,22.2,3.2,14.19,10.58,25.38,22.93,33.24,2.33,1.49,4.99,2.97,4.44,6.52Z"/>
    <path class="cls-5" d="M241.42,509.46c3.36,13.16-3.38,22.6-12.04,31.93,6.37-.23,11.88-1.71,17.35-4.07,13.09-5.63,22.84,1.13,22.96,15.65-3.86,5.27-9.89,6.35-15.59,7.98-12.4,3.55-24.57,7.6-35.33,15-.97.78-2.77,1.56-2.77,2.34,0,2.48,2.16,1.45,3.37,1.27,10.79-1.62,21.52-3.77,32.51-3.43,12.79.39,14.47,2.21,14.27,14.92-13.67,4.76-27.71,8.65-39.89,16.91-2.12,1.59-4.24,3.19-8.08,6.07,12.53-1.94,22.85-3.79,33.24-5.03,5.03-.6,10.6-2,14.73,2.88,2.97,6.47-1.2,10.69-4.96,14.76-7.16,7.75-16.62,12.02-25.95,16.43-3.06,1.45-6.69,1.88-8.94,4.82-7.89,2.11-15.78,4.27-23.23-1.33-11.7-22.97-13.05-48.39-17.14-73.13-2.56-15.5-5.01-31.05-4.09-46.9.71-12.32,6.09-18.47,18.39-19.61,9.06-.84,18.05-2.66,27.24-2.1,5.13.31,10.04.88,13.96,4.65Z"/>
    <path class="cls-26" d="M326.78,575.64c-12.9,1.09-25.64,3.09-38.27,5.98-2.94.67-6.69,3.98-9.21-.59-2.03-3.67-2.9-7.56-.41-11.66,3.72-6.1,4.94-12.85,4.72-19.97-.42-13.67-7.62-23.36-20.96-26.77-4.88-1.25-7.25-2.46-7-8.41.44-10.29-4.21-18.77-13.25-24.73,29.79-12.95,60.22-18.19,91.96-15.75,8.26-.28,10.27,4.38,10.66,11.83,1.28,24.19,1.12,48.46,3.56,72.6.22,2.19.03,4.41.08,6.61.14,7.31-2.56,11.23-10.69,10.24-3.64-.44-7.54-.84-11.2.63Z"/>
    <path class="cls-5" d="M379.9,507.59c.22-.58.33-1.24.67-1.74,5.06-7.62,8.63-17.46,15.65-22.21,7.24-4.9,16.02,4.5,24.57,4.45,16.32-.1,23.98,8.01,29.86,23.13,10.69,27.49,30.48,49.05,52.67,68.25-.51,5.21-5.05,5.12-8.39,5.76-23.47,4.48-46.81,3.97-70.2-1.44-22.42-5.18-35.54-19.29-41.01-40.88-2.91-11.5-6-23.18-3.83-35.32Z"/>
    <path class="cls-3" d="M379.9,507.59c3.04,6.41,2.57,13.5,3.6,20.25,6.01,39.4,19.49,48.89,48.53,54.85,22.68,4.66,45.58,4.12,68.21-1.34,1.12-.27,2.06-1.24,3.09-1.88,14.13,9.29,28.35,18.41,44.68,23.77-.15.82-.31,1.64-.46,2.46-7.99,0-15.97.12-23.96-.02-30.6-.52-61.21-1.13-91.81-1.7-1.89-.04-3.79-.02-5.68-.14q-21.51-1.29-21.63,19.83c-.03,5.37-.15,10.74.06,16.1.17,4.34-.53,7.83,5.49,11.01,5.66,3,2.04,12.12,1.67,18.41-.31,5.19-5.46,3.05-8.45,2.99-16.71-.37-33.42-1.08-50.13-1.69-2.48-.09-5.52.3-6.44-2.71-1.16-3.77,2.17-4.67,4.68-5.91,2.26-1.12,4.53-2.23,6.78-3.36,15.23-7.58,22.78-18.52,21.8-36.88-1.81-33.69-3.53-67.39-5.59-101.07-.33-5.43.46-10.04,5.57-12.98Z"/>
    <path class="cls-5" d="M781.92,702.69c-3.04-4.73-8.69-5.87-12.79-9.33-15.61-13.18-18.36-31.77-21.11-49.94-3.11-20.59-8.06-40.47-16.18-59.6-1.08-2.54-3.18-4.86-1.14-7.83,17.16-5.47,26.11-18.55,31.97-34.5,7.41,12.95,10.7,27.51,15.98,41.29,10.74,28.04,20.28,56.47,25.45,86.17,1.08,6.22,2.08,12.43,2.17,18.75-7.46,15.48-9.49,16.72-24.35,14.98Z"/>
    <path class="cls-3" d="M664.39,575.34c.85,28.14-2.89,53.8-4.88,79.53-.47,6.11,2.46,14.03-2.35,18.05-4.76,3.98-12.11-.22-18.37-.18-11.36.06-22.73-.24-34.08-.8-9.53-.47-15.94-13.08-9.31-19.59,4.34-4.26,3.62-8.13,3.88-12.58.09-1.56-.29-3.14-.34-4.71-.24-7.88-2.62-16.58-.06-23.41,2.77-7.37,12.98-4.91,19.8-6.95,17.41-5.2,31.22-15.83,45.69-29.34Z"/>
    <path class="cls-14" d="M152.09,545.89c-13.42-24.23-19.09-51.1-26.22-77.46-1.8-6.66-2.39-13.69-4.59-20.2-2.36-7.02-.42-10.99,5.94-14.36,16.96-9,33.53-18.73,51.76-25.09-2.84,6.96-5.93,13.84-8.46,20.92-7.53,21.06-2.19,35.69,16.93,47.25,1.56.94,2.91,2.22,4.15,3.18-.22,3.2-2.58,2.91-4.22,3.32-21.36,5.3-30.74,20.24-33.02,40.91-.79,7.18-1.52,14.36-2.28,21.55Z"/>
    <path class="cls-3" d="M440.13,422.52c7.69,8.45,9.08,19.78,13.12,29.81,10.9,27.1,23.54,53.27,44,74.32,30.71,31.59,67.37,50.76,112.94,47.14,13.89-1.1,25.7-8.11,36.2-17.06,3.6-3.06,6.82-6.58,10.15-9.95,11.74-11.9,20.12-11.71,32.33.79-19.57-6.68-20.87-6.29-33.22,9.98-22.28,29.32-56.54,39.67-96.99,29.04-35.12-9.23-60.92-31.17-80.46-60.85-20.65-31.37-31.2-66.66-38.06-103.21Z"/>
    <path class="cls-24" d="M231.9,485.02c-5.87-.86-11.73-1.86-17.62-2.53-3.51-.4-4.58-2.43-5.27-5.54-1.22-5.52-2.14-11.29-4.47-16.35-4.23-9.2-1.43-13.84,7.55-17.8,42.75-18.86,87.11-26.19,133.59-20.71,8.02.94,12.3,3.52,11.4,12.8-.85,8.72-.21,17.64.44,26.42.45,6.08-1.33,8.04-7.28,6.35-3.31-.94-6.79-1.27-10.2-1.88-4.1-5.13-2.23-11.54-3.61-17.28-1.27-5.31-3.54-8.45-9.41-8.4-30.12.25-59.61,4.2-87.66,15.71-11.9,4.88-12.19,6.44-8.32,18.56,1.09,3.43,3.77,6.84.88,10.65Z"/>
    <path class="cls-21" d="M231.9,485.02c-1.86-5.67-3.53-11.41-5.62-17-2.21-5.9-.3-9.01,5.35-11.72,19.89-9.56,41-14.4,62.71-16.82,11.25-1.25,22.55-2.33,33.96-2.01,6.2.17,9.86,1.02,10.49,8.55.55,6.59,1.31,13.14,1.25,19.77-37.68-2.79-73.7,3.78-108.13,19.24Z"/>
    <path class="cls-21" d="M730.85,557.01c1.17-6.86,6.83-11.16,9.78-17.12,6.31-12.75,6.41-25.59,2.61-38.62-3.31-11.37-13.46-13.16-23.32-14.48-28.08-3.77-49.69,6.9-66.42,29.35-18.37,24.64-48.05,26.76-70.82,5.94-18.85-17.24-27.82-39.24-32.17-63.71-3.96-22.27-.55-43.21,11.32-62.59.93-1.52,2.61-2.58,3.95-3.86-4.48,24.65-6.89,49.38-1.88,74.23,3.94,19.52,11.33,37.39,26.24,51.35,19.42,18.17,44.11,16.79,61.54-3.36,7.43-8.58,14.49-17.56,22.56-25.5,18.03-17.73,43.67-20.33,65.3-7.36,3,1.8,6.08,3.58,6.95,7.32,4.19,18.07,6.28,36.15-1.71,53.77-2.89,6.37-6.85,12.1-13.95,14.63Z"/>
    <path class="cls-3" d="M211.1,667.03c12.08-.01,23.84-1.86,35.07-6.42,3.12-1.27,5.73-2.01,8.47.98,12.07,13.18,28.2,12.11,43.94,12.12,3.13,0,6.26-.9,9.39-.91,3.35-.01,7.79-2.28,9.84.87,2.55,3.92-1.16,7.68-2.99,11.22-3.61,6.96-8.84,10.08-17.26,10.66-22.59,1.54-45.08,4.49-67.62,6.8-3.12.32-6.27.24-9.41.35-8.02-10.6-13.12-21.97-9.42-35.67Z"/>
    <path class="cls-3" d="M624.43,361.63c28.1-14.35,39.49-44.02,28.87-74-3.78-10.68-11.14-14.38-21.68-13.69.25-.19.47-.47.76-.56q20.23-6.02,29.75,12.98c21.5,42.93,11.62,82.38-30.52,115.79,1.06-15.02,1.07-28.74-7.16-40.54Z"/>
    <path class="cls-3" d="M281.24,120.83c2.56-6.38-5.11-7.64-6.36-13.25,10.98,4.07,21.43,7.96,31.89,11.82,18.24,6.73,36.46,13.5,54.74,20.12,2.64.96,6.39.54,3.09,5.03-3.88,5.27-7.59,10.67-11.37,16.01-6.98,3.11-7.32,10.61-10.45,16.2-2.25,4.01-3.36,8.66-5.31,13.92-12.99-28.77-29.37-53.58-56.23-69.85Z"/>
    <path class="cls-3" d="M646.73,159.97c-5.08-3.57-6.82-9.75-11-14.06-2.43-2.51-1.35-4.67,1.65-5.76,28.02-10.15,56.06-20.24,84.15-30.38,1.08,6.24-7.24,7.12-6.13,12.84-23.93,17.17-40.07,40.41-52.32,67.84-5.26-10.79-7.91-22.27-16.35-30.48Z"/>
    <path class="cls-21" d="M241.42,509.46c-14.74-3.96-29.49-.95-44.14.43-8.01.76-12.62,5.8-12.92,14.72-.76,21.91,3.95,43.17,6.83,64.66,2.43,18.1,5.35,36.07,12.51,53.05.63,1.5.89,3.03-.64,4.24-6.95-3.49-10.46-9.95-13.56-16.48-15.98-33.67-21.76-69.04-16.43-105.98,2.59-17.94,7.52-22.46,25.34-25.09,10.07-1.48,20.19-1.48,30.11,1.01,5.43,1.37,11.16,2.82,12.9,9.44Z"/>
    <path class="cls-3" d="M361.27,272.13c-11.38,4.11-14.57,14.02-16.83,24.31-5.93,27,5.43,51.53,29.98,65.35-4.47,7.05-6.75,14.81-7.52,23.07-.16,1.75.41,4.11-1.97,4.76-2.17.59-3.38-1.35-4.57-2.7-6.9-7.82-15.65-13.83-22.58-21.34-9.6-10.4-13.65-24.13-12.09-38.4,1.9-17.41,8.64-33.35,17.04-48.7,4.53-8.28,9.82-11.66,18.56-6.36Z"/>
    <path class="cls-21" d="M328.64,621.14c-11.21,2.07-22.43,4.14-33.64,6.21-1.29.39-2.95.34-3.42-.73-5.03-11.28-10.67-22.5-6.44-35.47,12.92-3.42,26.04-5.64,39.42-6.11,5.27-1.33,10.64-.18,15.93-.66,6.03-.54,7.88,3.02,7.78,8.02-.14,6.91-1.2,13.76-2.2,20.58-.73,4.92-3.55,7.81-9.06,7.47-2.76-.17-5.66-.61-8.35.69Z"/>
    <path class="cls-21" d="M599.32,408.9c9.88-11.39,14.88-10.98,21.21,2.09,10.58,21.84,20.91,43.83,35.8,63.2,2.48,3.22,1.98,5.35-.65,8.02-3.75,3.81-7.17,7.95-10.73,11.95-6.18,2.59-8.3-2.69-11.01-6.06-16.37-20.37-24.43-44.67-32.11-69.11-1.03-3.29-1.97-6.66-2.51-10.1Z"/>
    <path class="cls-21" d="M275.3,401.2c28.58-4.54,57.04-4.68,85.26,2.54,3.91,1,7.15,2.39,5.58,7.7-1.75,5.92-5.38,2.36-8.29,1.9-56.9-9.02-111.02-.62-162.26,25.82-2.23,1.15-4.33,2.58-6.36,4.07-2.01,1.49-3.85,3.21-5.76,4.84-4.2-11.62,5.23-21.68,27.71-29.54,15.11-1.31,28.76-8.25,43.46-11.26,9.2-1.88,18.25-4.46,27.69-4.89,1.06.39,1.13.18.08-.04-2.34-.5-5.02,1.07-7.1-1.14Z"/>
    <path class="cls-3" d="M542.61,238.71c6.44.12,7.07-4.29,8.01-9.29,4.11-21.75,11.85-41.5,30.76-55.19,14.39-10.41,20.89-10.18,33.45,2.21,15.75,15.52,21.04,34.4,17.77,55.89-.88,5.8,1.48,12.01-2.21,17.44.79-15.52.07-30.58-7.96-44.72-13.39-23.56-35.53-24.81-50.57-2.4-5.89,8.77-9.81,18.27-10.34,28.91-.39,7.82-2.65,12.58-11.81,9-2.21-.86-5.04.05-7.1-1.84Z"/>
    <path class="cls-3" d="M368.46,236.46c-6.55-25.79,4.09-56.7,25.49-67.11,6.92-3.37,12.44-2.95,18.51.86,21.75,13.66,32.51,34.33,37.54,58.66.76,3.69,1.38,7.4,2.07,11.11-12.36,3.43-12.03,3.39-13.52-8.81-1.72-14.14-7.01-26.79-17.64-36.78-10.82-10.16-24.52-10.08-35.6,0-12.45,11.33-14.51,26.73-16.85,42.06Z"/>
    <path class="cls-21" d="M812.36,663.45c-.12,1.1-.23,2.2-.35,3.3-4.2-.2-4-3.7-4-6.21,0-26.24-10.43-49.54-20.29-73.01-6.45-15.35-12.92-30.7-20.65-45.46-1.35-2.58-1.15-5.48-2.47-7.98-.53-8.99,1.94-17.82,1.45-27.05,27.2,36.08,40.79,77.16,46.5,121.28.83,11.71,1.15,23.42-.19,35.12Z"/>
    <path class="cls-21" d="M764.6,534.1c9.34,12.13,14.25,26.53,20.22,40.33,9.85,22.8,20.25,45.4,24.89,70.13,1.39,7.41-1.66,15.16,2.3,22.19-.28,7.43-2.65,14.29-5.74,20.95-5.58-11.43-5.33-24.2-8.26-36.26-7.85-32.41-20.46-63.2-31.38-94.57-1.75-5.04-3.89-9.93-3.97-15.38.64-2.47,1.29-4.93,1.93-7.4Z"/>
    <path class="cls-28" d="M326.78,575.64c2.03-2.09,4.74-1.98,7.12-1.55,10.75,1.91,12.5-3.55,11.94-12.76-1.62-26.67-2.92-53.36-3.66-80.07-.18-6.31-5.09-5.2-7.8-7.52,22.61-.68,24.13.67,24.58,22.63.51,24.28,1.43,48.55,3.55,72.75.49,5.64.09,8.52-7.39,7.37-9.27-1.43-18.87-.66-28.33-.85Z"/>
    <path class="cls-21" d="M337.05,631.21c3.32.31,7.41.51,11.44,1.11,3.54.53,8.69-.12,9.46,4.09.61,3.35-3.85,5.47-6.8,7.01-21.98,11.41-45.35,16.34-70.1,14.34-1.25-.1-2.55-.22-3.71-.65-3.46-1.27-8.54-1.51-9.13-5.59-.63-4.41,4.5-5.56,7.66-6.93,19.25-8.33,39.48-12.44,61.18-13.38Z"/>
    <path class="cls-21" d="M237.49,382.08c12.71-5.04,26.01-6.99,39.58-7.57,7.11-1.24,14.28-.26,21.41-.55,1.58-.06,3.1.23,4.55.86,4.02,1.75,6.95,4.78,6.97,9.13.02,5.69-5.66,1.74-7.9,3.96-26.32,1.94-52.35,5.54-77.61,13.55-5.43-1.06-6.05-2-3.25-6.21,4.02-6.03,9.85-9.99,16.25-13.17Z"/>
    <path class="cls-21" d="M599.96,270.67c2.75-8.04,3.04-15.28,2.44-22.44-.45-5.36,3.28-14.02-8.53-12.41-2.34.32-5.35-3.41-5.88-6.67-.55-3.39,2.55-3.45,4.86-4.46,8.09-3.55,1.32-7.44,0-11.17-.95-2.7-6.41-4.1-3.69-7.45,2.88-3.54,7.61-4.07,12.17-2.11,4.47,1.92,8.06,4.85,10.74,8.92,8.65,13.15,8.15,38.46-1.01,51.43-2.66,3.77-2.8,3.85-11.1,6.37Z"/>
    <path class="cls-21" d="M398.9,270.32c-5.24-.43-8.98-2.18-11.23-6.42-8.93-16.79-9.54-33.78-.37-50.57,4.14-7.58,10.79-11.51,19.79-8.95,4.22,1.2,7.04,3.1,2.27,7.54-2.24,2.09-3.68,5.05-5.41,7.67-1.53,2.31-1.4,4.15,1.71,4.84,3.31.74,7.82.77,6.52,5.85-1,3.93-5.2,6.7-8.61,6.2-7.79-1.13-7.04,3.63-7.21,8.32-.31,8.49.28,16.91,2.54,25.53Z"/>
    <path class="cls-24" d="M599.32,408.9c3.46.83,3.52,3.68,4.29,6.47,7.04,25.44,15.73,50.15,32.26,71.3,2.47,3.15,4.46,6.92,9.08,7.5-9.14,10.49-9.35,10.54-17.69-.33-16.14-21.04-25.75-45.06-31.92-70.62-1.34-5.56-.83-10.51,3.97-14.31Z"/>
    <path class="cls-21" d="M398.74,407.32c6.53,4.75,7.66,11.46,5.68,18.53-6.06,21.67-15.88,41.5-31.84,59.1v-24.84c9.03-14.16,15.7-29.42,21.28-45.2,1.02-2.88,1.25-6.34,4.88-7.58Z"/>
    <path class="cls-21" d="M398.74,407.32c-4.8,16.02-11.19,31.39-19.19,46.07-1.56,2.87-2.37,6.85-6.96,6.71-1.7-16.57-.51-32.85,6.01-48.32,5.18-12.31,9.69-13.12,20.15-4.46Z"/>
    <path class="cls-21" d="M328.64,621.14c13.52-.04,17.11-7.89,15.64-19.79-.11-.88.4-1.82.56-2.74,2.25-12.95,2.05-13.14-10.98-13.05-3.1.02-6.2-.33-9.31-.52,11.24-3.27,22.38-.39,33.56.46,4.1.31,5.03,2.67,5.04,6.35,0,9.11.36,18.21.46,27.32.03,2.64.85,6.32-4.15,4.56-10.04-3.53-20.53-1.91-30.82-2.6Z"/>
    <path class="cls-10" d="M581.19,372.91c3.05,3.48.55,7.97,2.19,11.8,3.35.21,4.42-2.99,6.58-4.53,7.35-5.23,14.86-9.5,24.25-5.38,4.17,1.83,4.71-.73,4.75-3.9,3.24,4.61,1.6,9.71,1.32,14.61-.12,2.11-.98,4.53-4.1,3.87-13.48-2.86-21.71,5.34-29.75,14.01-.78.84-1.7,1.56-3.36,3.07-1.26-11.89-2.72-22.64-1.87-33.55Z"/>
    <path class="cls-3" d="M378.25,376.64c14.46-6.06,26.85-2.3,37.97,8.49,3.6-4.37-.44-10.2,3.28-14.09.89,11.6-.91,23.04-1.83,35.46-4.6-4.16-8.58-7.91-12.73-11.45-4.13-3.52-9.3-6.94-14.29-6.3-10.28,1.32-11.72-4.57-12.4-12.11Z"/>
    <path class="cls-5" d="M435.11,471.74c-9.78-1.18-17.31-4.11-24.7-7.45-2.01-.91-4.32-1.83-2.88-4.79,4.16-8.61,6.83-18,13.22-27.31,6.74,13.19,10.23,25.74,14.37,39.54Z"/>
    <path class="cls-13" d="M692.49,458.26c-3.39,1.24-4.47,1.62-5.54,2.02-4.9,1.84-10.69,6.25-14.49,4.93-5.92-2.06-8.53-9.54-12.24-14.94-4.57-6.64-8.61-13.56-11.83-23.68,14.87,11.84,26.31,24.14,44.1,31.67Z"/>
    <path class="cls-21" d="M302.1,387.9c2.23-.88,4.46-1.76,6.81-2.68-2.86-8.23-8.36-11.57-17.08-10.55-4.85.57-9.83-.07-14.76-.17,16.23-3.45,32.51-1.6,48.6.48,7.59.98,11.4,9.05,17.41,13.69-13.86-1.73-27.44-.61-40.98-.78Z"/>
    <path class="cls-21" d="M237.49,382.08c-4.67,4.6-9.35,9.18-13.99,13.81-2.26,2.26-4.15,4.57.99,5.57-10.03,4.22-20.07,8.45-30.09,12.68,2.81-15.96,19.14-28.11,43.09-32.05Z"/>
    <path class="cls-21" d="M275.3,401.2c3.09.25,6.18.49,11.67.93-24.14,5.08-45.56,11.52-67.08,17.56-2.95.83-6.14,1.74-8.7-1.16,20.36-9.52,41.68-15.51,64.12-17.33Z"/>
    <path class="cls-28" d="M621.34,510.97c-12.29-.62-25.7-11.26-28.99-21.3-1.27-3.89,1.06-4.97,3.47-6.51,2.75-1.76,4.8-2.26,6.75,1.36,4.92,9.1,11.05,17.42,18.76,26.45Z"/>
    <path class="cls-21" d="M285.13,591.16c1.67,12.51,2.77,25.17,9.87,36.2-5.47,1.98-10.93,3.97-17.73,6.43,3.48-10.84,5.97-20.09,1.75-30.26-1.35-3.25-1.16-10.84,6.11-12.37Z"/>
    <path class="cls-17" d="M218.77,575.96c6.9-7.92,16.35-11.5,25.83-14.86,8.28-2.94,16.72-5.43,25.09-8.12,0,12.16-1.27,13.49-13.15,13.45-13.41-.04-25.38,5.54-37.77,9.53Z"/>
    <path class="cls-5" d="M211.1,667.03c.17,12.67,5.41,24.01,9.42,35.67-4.79,1.01-6.6-2.86-8.71-5.71-4.68-6.32-7.67-13.55-9.75-21.1-.89-3.22-2.67-7.92-1.25-9.65,2.57-3.14,6.76.24,10.29.79Z"/>
    <path class="cls-13" d="M226.29,647.89c-2-5.14,2.59-4.58,5.03-5.62,10.97-4.71,21.51-9.97,29.93-18.84,3.24-3.4,5.37-6.81,4.9-11.56,3.83,10.54-1.08,18.64-8.66,24.53-8.94,6.94-19.51,11.17-31.2,11.48Z"/>
    <path class="cls-16" d="M538.98,249.72c-2.45-1.94-3.69-4.2-1.88-7.25,1.75.65,3.44,1.65,5.25,1.91,15.44,2.22,21.28,11.35,18.41,27.37-4.96-5.95-9.57-11.87-14.64-17.38-1.85-2.02-2.65-6.42-7.14-4.65Z"/>
    <path class="cls-11" d="M463.44,242.42c-.23,1.67.56,3.54-.96,4.95-7.6,3.35-11,10.95-16.57,16.36-2.65,2.58-4.47,6.11-8.22,7.57-.13-.42-.27-.71-.3-1.01-2.1-19.37,12.45-23.18,26.05-27.87Z"/>
    <path class="cls-34" d="M582.09,432.39c2.69,8.89,5.38,17.78,8.07,26.68,1.03,3.4-.56,5.38-3.58,6.54-2.74,1.05-4.33-.42-4.86-2.81-2.22-9.9-4.46-19.83-2.16-29.95.84-.15,1.69-.3,2.53-.45Z"/>
    <path class="cls-18" d="M226.26,607.96c10.88-11.34,24.42-16.41,39.89-16.91.3,2.93.33,6.61-3.14,6.82-13.02.79-24.37,7.25-36.76,10.1Z"/>
    <path class="cls-21" d="M812.36,663.45c.06-11.71.12-23.42.19-35.12,2.43,11.72,2.64,23.43-.19,35.12Z"/>
    <path class="cls-9" d="M429.29,295.31c-2.47,4.28-6.46,6.87-11.16,8.96,2.98-3.73,5.95-7.46,8.93-11.19.74.74,1.49,1.49,2.23,2.23Z"/>
    <path class="cls-29" d="M840.63,194.72c-3.15-4.44-6.29-8.88-9.44-13.32.68-.67,1.35-1.34,2.03-2.01,2.78,4.96,8.82,8.35,7.42,15.34Z"/>
    <path class="cls-25" d="M701.5,514.91c5.47-13.88,14.89-21.26,23.37-18.83,8.23,2.36,12.84,13.06,10.88,26.59-.8,5.56-2.06,11.22-4.18,16.4-3.86,9.45-10.07,10.43-17.5,3.4-3.08-2.91-4.78-5.68-7.16-11.67,5.03-1.22,10.27,6.95,14.3,1.08,3.33-4.85,2.37-11.68.52-17.43-1.05-3.26-2.88-3.02-20.22.46Z"/>
    <path class="cls-36" d="M563.55,159.1c7.35-23.86,18.48-34.18,35.06-34,16.14.18,29.24,12.09,35.25,32.98-10.75-9.54-20.56-18.99-34.98-19.54-15.32-.58-24.42,10.06-35.33,20.56Z"/>
    <path class="cls-35" d="M436.2,157.98c-32.2-26.3-39.87-26.55-68.66-2.23,4.9-18.61,19.45-30.74,35.97-29.99,16.68.76,29.93,13.82,32.68,32.21Z"/>
    <path class="cls-21" d="M448.41,104.87c28.27-8.74,56.61-9.88,85.05,0h-85.05Z"/>
    <path class="cls-33" d="M457.34,317.58c23.04-15.8,57.23-15.91,81.99-.76-13.22-2.62-26.59-3.75-39.97-3.7-13.5.06-26.98,1.28-42.02,4.46Z"/>
    <path class="cls-36" d="M462.84,379.43c21.38-11.91,43.26-12,65.47-2.61-21.85-.44-43.67-.14-65.47,2.61Z"/>
    <path class="cls-7" d="M467.23,464.76c16.85-15.61,40.9-20.55,59.33-12.91-19.88,2.68-39.12,5.78-59.33,12.91Z"/>
    <path class="cls-15" d="M226.81,529.26c-1.32,5.68-4.93,8.77-10.82,9.28,3.61-3.09,7.21-6.19,10.82-9.28Z"/>
    <g>
      <path class="cls-32" d="M587.13,671.94c-.09-.54-.1-1.41-.1-2.33,0-.93-.02-1.86-.08-2.78-.29-4.33-1.63-7.48-4-9.42v-4.01s3.15-.9,3.15-.9l-3.14-1.59.03-13.14c0-1.76,0-3.34-.02-4.81-.02-2.91-.03-5.21.06-7.47.18-4.36-.98-7.86-3.44-10.41-1.66-1.72-4.71-3.77-9.8-3.73-8.22.05-16.35.03-24.96,0-3.26-.01-6.56-.02-9.92-.03v-.23s-26.51-.05-26.51-.05l.1-.23-37.1-.07-.09,1.71c-4.33-2.54-9.33-2.06-11.2-1.87-6.94.68-14,.58-21.47.47l-3.33-.05c-8.27-.1-13.73-.17-17.98,4.03-4.29,4.24-4.28,9.61-4.27,18.51,0,2.7,1.17,4.59,1.76,5.47l3.67,6.88,7.32-3.43c.73-.34,1.44-.7,2.15-1.06,1.02-.52,1.99-1.01,2.78-1.29,0,.02,0,.04,0,.06,0,.34-.36,1.44-.6,2.17-.91,2.76-2.28,6.93-.72,12.06,2.13,6.98,1.88,14.41-.76,22.72l-3.51,11.06,71.39.12-1.74-.8,23.31.04-.18-.17,15.07.03c2.47.97,4.98.98,6.64.99.36,0,.74,0,1.13.01,2.44.05,4.87.1,7.31.14,7.52.13,15.3.26,22.79.82.56.04,1.4.1,2.43.09,2.98-.03,7.48-.69,10.79-4.3,4.39-4.8,3.36-11.14,3.01-13.22Z"/>
      <path class="cls-32" d="M895.23,850.56c-.96-8.56-1.67-16.43-2.18-24.06-.54-8.21-4.54-12.36-7.81-14.39-.76-.47-1.51-.84-2.27-1.16l-.25-1.44-1.34.86c-5.75-1.7-10.95.44-12.9,1.24-.58.24-1.16.49-1.74.73-.92.39-2.12.91-2.78,1.11-9.06-1.87-18.59-3.81-28.26-5.62-.91-22.83-2.05-45.59-3.16-67.65-.03-.56-.06-1.11-.09-1.67-.06-.98-.14-2.34-.13-3.25.08-.04.16-.09.26-.14l4.62-28.54-71.19-5.92c-1.23-.24-2.42-.39-3.52-.5-.66-.07-1.32-.13-1.98-.2l-24.27-3.1.81.67c-4.01-.43-8.01-.86-11.96-1.29-11.77-1.27-23.94-2.58-35.94-3.78-10.95-1.09-22.09-1.99-32.87-2.86-4.92-.4-9.87-.79-14.85-1.21l-22.74-1.92.38.94-157.96-25.4-17.09.9-291.11,50.29,5,21.08c1.32,1.46,2.58,2.61,3.65,3.55.02,1.8.03,3.59.05,5.39.09,8.24.17,16.02-.08,23.87-.24,7.35-11.5,22.17-7.75,28.32.06,14.58.29,45.85-.94,62.88-.19,2.64,6.52-1.73,12.94,3.89,3.8,3.32,13.5-6.02,16.97-6.06,2.39-.03,4.35-.43,5.42-.66,14.85-3.09,29.73-5.82,46.24-8.81l.32-.06c4.41-.8,8.31-1.51,11.75-2.89l21.29-2.8c1.32-.17,2.63-.34,3.95-.5,2.78-.35,5.64-.71,8.55-1.15l-4.43,13.89c-.14.02-.29.04-.43.05-.24.03-.48.04-.72.06-2.9.22-10.61.82-14.95,8.22-1.49,2.54-2.78,6.32-1.92,11.25-.11.4-.22.83-.31,1.29-.92,4.6-2.95,9.4-5.1,14.48-2.5,5.92-5.34,12.64-6.83,20.13-1.19,5.93-3.59,11.1-7.33,15.78l-8.7,22.54,22.28.14c4.17-.77,8.08-1.49,11.98-2.21,3.15-.58,6.29-1.15,9.55-1.76l23.5-3.17c4.63-.62,9.15-1.23,13.68-1.85l34.07-4.64-8.52-6.38c.36-.56.69-1.12.97-1.68.81.86,1.76,1.7,2.85,2.46,6.51,4.52,15.33,4.17,21.95-.85.71-.54,1.35-1.13,1.95-1.76,4.54,3.54,10.24,4.98,15.74,4.93.23,0,.46,0,.69-.02,7.49-.25,15.46-.79,24.37-1.67.79-.08,1.56-.18,2.32-.32l52.67-3.07,45.14.09-.05.23,33.4.07,22.54,1.42c3.75.24,7.47.46,11.18.69,10.38.63,20.19,1.23,30.14,2,.65.05,1.28.07,1.88.06,3.92-.04,6.88-1.2,9.04-2.58,3.38,2.15,7.25,3.6,11.42,4.14,9.23,1.2,16.86,2.03,24.03,2.62.81.07,2.07.17,3.62.15,3.72-.04,9.08-.78,13.66-4.4l-.97,5.99,54.87,2.91-9.75-22.9c.36-3.76-.08-7.07-.43-9.79-.12-.93-.28-2.12-.32-2.89l1.16-1.49,15.48,15.48.06-33.96c0-1.69-.01-3.3-.03-4.85-.03-3.19-.05-5.95.09-8.55.39-7.11-2.4-12.82-7.46-16.2l4.01-9.84c7.53,1.05,15.06,2.11,22.43,3.15,8.82,1.25,17.64,2.5,26.47,3.71,1.99.55,3.89.82,5.69.8,1.02-.01,2.01-.12,2.97-.32l23.43,4.34c24.96,4.61,48.54,8.97,72.23,13.42,1.54.29,3.01.42,4.41.41,4.12-.04,7.64-1.4,10.5-4.05,2.64-2.45,5.62-6.94,4.78-14.4Z"/>
      <g>
        <path class="cls-21" d="M548.63,816.96l46.01.08c-7.96-5.12-9.81-13.53-13.25-21.26-7-15.76-9.15-32.99-16.08-48.78-4.73-10.83-7.58-22.48-11.6-33.63-1.77-4.9-3.02-9.42,2.33-14.67l-47.51-.08c9.45,5.08,4.61,11.46,2.97,17.44-1.71,6.34-4,12.52-5.85,18.82-2.63,8.96-4.89,18.01-13.8,23.34-3.05,1.84-1.96,3.77.87,4.83,2.95,1.1,2.89,3.04,2.11,5.59-3.29,10.74-6.49,21.49-9.61,32.28-1.32,4.6-3.99,8.55-8.48,9.4-5.08.94-7.87-3.45-9.99-7.45-3.66-6.93-6.55-14.32-10.72-20.92-3.67-5.81-2.51-9.15,2.89-12.67,7.25-4.72,14.71-9.59,10.02-20.54-.99-2.34-.14-5.47-.13-8.22.06-8.7.17-17.39.19-26.09,0-1.87.66-4.24-.97-5.45-6.09-4.52-12.09-10.49-19.88-10.5-23.87-.03-47.7,1.77-72.27,3.73,2.76,4.39,7.22,6.62,6.88,12.23-.69,11.64-.6,23.33-.6,35,0,2.86-.95,4.63-3.2,6.33-3.78,2.84-8.18,5.02-11.12,8.98,3.9,1.54,7.41,3.05,11,4.29,2.88,1.01,3.73,2.86,3.64,5.81-.31,10.6-.59,21.21-.5,31.81.04,5.91-3.73,9.75-8.05,10.98-4.07,1.17-8.03-3.05-9.14-7.11-3.77-13.63-13.27-25.74-11.18-40.98.13-.85-.74-1.97-1.37-2.77-2.81-3.6-4.21-7.84-5.6-12.05-3.48-10.46-6.77-20.96-10.26-31.41-2-5.98-4.92-11.9,2.77-18.19-16.89,1.77-31.51,3.29-47.46,4.95,5.92,4.86,4.63,9.44,2.7,14.42-2.47,6.31-4.26,12.87-6.49,19.28-3.78,10.89-5.6,22.79-15.41,30.69-1.5,1.2-2.19,2.98.05,4.04,3.54,1.66,1.99,4.15,1.26,6.43-3.61,11.3-7.33,22.56-10.97,33.84-1.79,5.52-5.54,9.08-11.48,12.09.65-8.9,1.38-16.89,1.7-24.88.03-1.22,2.25-3.79-1.18-4.29-1.04,1.28.05,4.86-3.6,3.32-4.59,3.13-7.94,8.35-14.27,8.57,1.27,2.28,2.39,4.66,4.79,6.06,1.89.73,5.09-.7,5.06,3.18-.04,3.19-.65,5.94-4.39,6.68-.62.12-1.24.26-1.86.38-16.2,3.15-32.43,6.06-48.63,9.25-7.19,1.43-8.22.33-7.51-7,.13-1.27.5-2.51.55-3.78.66-15.4,1.37-30.82-.31-46.2-3.18-5.87-4.33-12.13-4.07-18.82.31-7.57.17-15.14.07-22.71-.04-2.68.32-5.54-2.08-7.61-.2,2.09-.56,4.18-.6,6.27-.48,27.35-.89,54.73-1.41,82.08-.2,10.65,1.87,22.02-9.12,29.75,44-7.73,87.07-16.71,132.75-23.04-8.68-5.11-6.54-11.02-4.44-16.93.92-2.6,1.85-5.2,2.55-7.86.69-2.6,1.8-4.07,4.11-1.62,8,8.54,14.67,5.31,22.05-1.39,6.42-5.83,6.79-5.25,9.55,2.76,2.59,7.56,6.72,15.15-2.81,21.73,30.44-3.32,60.25-5.19,90.58-7.84-8.86-4.43-9.05-11.72-8.19-19.72.57-5.25.05-10.6.38-15.88.13-1.92-1.68-5.25,2.15-5.51,3.1-.2,6.57-1.49,8.56,3.06,3.39,7.76,7.28,15.31,11.32,22.76,2.78,5.13,4.7,9.96.24,14.37l86.29.15c-12.75-10.61-1.73-19.06-1.61-29.14,4.38,3.44,7.9,5.85,10.95,8.75,2.29,2.2,3.84,2.39,6.35.32,3.43-2.81,7.25-5.14,10.96-7.6,1.29-.86,3.22-2.66,3.78.36,1.64,8.95,11.47,17.68-1.37,28.11ZM306.58,764.24c2.2-7.26,4.69-14.42,7.55-23.1,3.26,11.23,6.12,21.1,8.97,30.98.35,1.21-.13,2.04-1.29,2.44-1.19.43-2.4.82-3.61,1.17-4.96,1.4-11,3.11-14.6.1-2.24-1.88,1.76-7.6,2.98-11.59ZM410.06,747.54c.1-3.37.03-6.77.03-10.14q.44-13.78,14.32-14.7c4.01-.27,8.01-.5,12.01-.69,4.13-.19,6.42,1.62,6.26,5.96-.2,5.7-.53,11.39-.57,17.09-.02,3.25-1.68,4.64-4.61,4.82-8.01.5-16.01.82-24.01,1.41-3.08.23-3.53-1.28-3.43-3.75ZM526.48,753.79c1.47-6.72,3.92-13.23,6.42-21.28,3.48,11.28,6.47,21.13,9.62,30.93.63,1.98.13,2.68-1.74,2.91-.84.09-1.66.37-2.49.46-4.66.46-10.34,1.25-13.56-1.31-3.83-3.04.88-7.77,1.75-11.72Z"/>
        <path class="cls-21" d="M747.43,754.62c.51,11.77,1.03,23.54,1.54,35.31-.32.45-.64.91-.96,1.37-5.72-8.42-14.49-7.89-22.64-9.3-3.26-.57-4.63-.19-4.14,3.67.58,4.61.73,9.33.47,13.97-.22,3.95,1.56,5.09,5.03,5.53,11.35,1.45,22.7,2.97,34,4.75,2.57.41,4.01-.82,5.66-2.06,2.97-2.23,5.89-4.54,9.5-7.34.77,12.01,1.46,22.92,2.18,33.83.28,4.16-2.59,2.34-4.26,2.11-20.57-2.83-41.12-5.84-61.71-8.61-8.55-1.15-17.15-1.87-26.42-3.38,9.73-4.57,9.06-12.56,8.37-20.82-.65-7.81-1.04-15.68-.83-23.51.14-5.24-1.73-8.19-6.51-9.97-2.74-1.02-5.21-2.76-7.85-4.2.19-.46.24-.94.43-1.01,11.03-4.15,14.41-11.87,12.29-23.34-1.37-7.44-.92-15.21-1.28-22.84-.08-1.68-.12-3.25-1.23-4.79-4.89-6.77-9.99-6.66-12.39,1.44-4,13.52-9.83,26.38-12.56,40.44-2.89,14.88-8.49,29.23-12.91,43.8-.06.2-.17.39-.24.59-2.91,7.52-5.38,14.99,2.61,22.01-15.87-1.09-31.74-2.18-48.23-3.31,1.82-3.72,6.76-5.13,6.17-9.31-.53-3.73-1.98-7.35-3.15-10.97-2.02-6.25-4.58-12.35-6.11-18.71-2.36-9.82-6.35-17.92-17.29-20.16.29-.89.29-1.31.5-1.45,9.17-6.65,9.38-6.73,5.55-17.27-5.09-14.03-8.31-28.81-16.97-42.3,13.87.85,27.08,1.66,42.28,2.6-9.68,7.28-4.5,14.69-2.57,21.88,4.66,17.31,9.62,34.53,15.98,53.15,5.95-21.85,11.58-42.03,16.86-62.29,1.33-5.1-4.56-7.11-6.38-11.67,16.08,1.35,31.81,2.48,47.5,4.04,24.46,2.44,48.89,5.28,73.35,7.7,4.95.49,7.49,1.63,7.14,7.43-.56,9.21-.18,18.48-.2,29.13-6.82-13.83-19.12-14.62-31.45-15.45-5.89-.4-13.77-3.64-17.11-1-3.66,2.89.18,11.07-.41,16.94-.44,4.45,1.2,6.37,5.79,6.9,7.6.88,15.25,3.28,21.29-4.65.43.39.87.78,1.3,1.16Z"/>
        <path class="cls-21" d="M786.02,837.6c8.43-3.2,8.64-8.61,8.18-14.65-.77-10.15-1.37-20.32-1.5-30.5-.07-5.7-1.75-9.65-7.35-11.58-1.34-.46-2.48-1.52-4.96-3.09,13.53-2.25,12.06-11.35,11.22-20.42-.61-6.54-1.08-13.15-.76-19.69.39-8.05-.93-15.06-7.71-20.62,13.54,1.73,27.08,3.46,42.99,5.49-9.2,4.73-8.01,11.59-7.67,18.31,1.23,24.36,2.46,48.71,3.38,73.08.16,4.18,1.46,5.94,5.53,6.66,11.47,2.05,22.89,4.37,34.31,6.73,4.54.94,8.36-1.15,12.19-2.73,3.36-1.38,4.86-1.37,5.13,2.78.54,8.25,1.31,16.49,2.24,24.7.33,2.91-.53,3.08-3.07,2.61-29.94-5.62-59.9-11.13-92.13-17.09Z"/>
        <path class="cls-21" d="M180.91,782.98c-3.65-4.48-5.48-9.35-5.29-15.37.37-11.53.04-23.08,0-34.62-1.19-3.4-4.44-4.97-7.25-8.09,14.04-2.48,27.58-4.87,41.12-7.25-8.67,7.54-6.64,17.44-6.83,26.75-.47,22.43-.96,44.86-1.43,67.29-.05,2.52-.02,5.04-.02,7.67,11.34-1.26,21.77-5.2,32.79-5.83,3.22.22,4.2,2.21,4.02,5.1-.83,2.44-3.01,2.77-5.08,3.16-10.62,1.97-21.17,4.31-31.81,6.19-6.55,1.16-7.99-.02-8.14-6.76-.23-9.74-.07-19.49,0-29.23.03-4.08-1.07-7.34-4.58-9.85-2.98-2.13-5.29-2.18-7.49.83Z"/>
        <path class="cls-21" d="M351.67,901.33c-1.36-2.56-1.77-4.43,1.17-6.28,5.98-3.75,8.02-9.32,7.23-16.3-.4-3.55.11-7.18.14-10.79.07-5.56-3.82-9.79-9.4-9.37-12.65.97-25.27,2.36-38.76,3.66,5.91,4.95,3.4,10.94,3.53,16.39.15,5.53,1.3,11.74-6.62,13.94,2.12,2.74,6.3,1.85,6.05,4.61-.77,8.78,2.96,18.15-3.48,26.61,7.09-.9,13.86-1.77,20.92-2.67-1.05-2.17-3.54-2.1-3.58-4.09-.13-5.5-.65-11.05-.03-16.47.38-3.22,4.99-2.28,5.47-1.15,2.79,6.74,8.85,12.15,8.65,20.25,6.33-.04,12.76-.57,20.11-1.85-6.01-4.58-8.36-10.73-11.4-16.46ZM337.88,872.45c9.61-.35,9.51-.37,8.41,8.62-.33,2.8-1.31,4.24-4.25,4.14-1.87-.07-3.78.09-5.65.19-8.22.43-7.97.45-8.01-7.79-.03-8.78,6.86-3.19,9.5-5.17Z"/>
        <path class="cls-21" d="M441.96,912.02c-7.95.47-14.49.85-21.3,1.25,6.11-8.01,5.16-27.03-1.25-30.17,6.55-5.73,8.29-22.36,2.62-30.41,6.99-.4,13.53-.78,20.65-1.18-5.93,7.22-2.88,15.08-3.62,22.39-.02.19.06.53.17.56,5.56,1.81,11.2.43,16.78.24,3.64-.12,2.37-3.56,2.29-5.52-.27-5.94,2.37-12.28-3.09-18.09,7.4.01,13.86.02,22.04.04-5.37,2.05-4.84,5.56-4.88,8.92-.17,13.83-.28,27.67-.7,41.49-.12,3.79-.15,7.08,3.85,9.5-6.68-.01-13.35-.02-19.66-.03,4.84-6.46,1.4-14.5,2.35-22,.04-.29-.37-.71-.67-.96-.81-.66-18.17.13-18.74.89-.35.47-.63,1.13-.64,1.71-.1,5.72-.16,11.45-.18,17.17,0,1.97,1.94,2.54,3.99,4.2Z"/>
        <path class="cls-21" d="M606.15,896.94c-.01,6.45-.05,10.9-.01,15.34.02,2.13-.1,3.47-3.07,3.24-13.71-1.05-27.43-1.81-41.52-2.69,4.46-5.23,2.17-11.29,2.53-16.97.37-5.88,1.57-12.33-7.3-14.83,9.42-1.56,7.27-8.06,7.12-13.46-.15-5.35,1.54-11.15-2.76-14.7,13.12.02,26.69.04,40.25.07,2.6,0,2.98,1.63,2.93,3.81-.11,4.35-.05,8.7-.06,15.18-6.29-9.73-14.67-7.35-22.16-8.16-2.33-.25-3.22.4-3.41,3.01-.79,10.51,1.87,12.27,13.84,8.21-.01,5.94-.02,11.73-.03,17.71-1.42-.74-3.07-1.92-4.9-2.47-2.82-.84-6.9-2.21-8.48-.37-2.22,2.59-.76,6.89-.87,10.46-.04,1.38,1.12,1.74,2.2,1.65,8.32-.69,17.36,3.91,25.7-5.05Z"/>
        <path class="cls-21" d="M607.64,883.19c7.56-1.08,7.31-5.98,6.86-11.12-1.31-15.12,1.18-17.47,16.7-15.94,4.85.48,9.7.9,14.54,1.42,9.23,1.01,14.64,10.5,10.86,18.81-.74,1.62-2.06,1.12-3.16,1.38-2.87.68-5.77,1.24-8.75,1.87-.11-.16-.42-.43-.48-.75-.59-3.05,1.56-7.61-1.15-8.91-3.79-1.82-8.62-1.51-13.01-2.05-1.52-.19-1.66,1-1.66,2.05-.02,10.68,0,21.36.03,32.03,0,1.43.72,2.31,2.26,2.52,4.19.59,8.37,1.28,12.56,1.88.58.08,1.33.1,1.77-.2q5.19-3.49,14.19-5.12c0,3.22-.08,6.34,0,9.45.18,7.52-2.08,9.88-9.69,9.26-7.81-.64-15.6-1.54-23.37-2.54-6.68-.87-11.86-6.66-12.22-13.37-.12-2.33-.06-4.66-.08-6.99q-.07-8.03-6.21-13.67Z"/>
        <path class="cls-21" d="M308.65,924.16c-3.23-2.42-3.83-5.58-4.71-8.59-3.77-12.87-7.43-25.77-11.42-38.57-1.29-4.14-2.57-7.96.97-12.01-5.84.81-11.06,1.58-16.29,2.23-3.24.41-7.32-.25-4.7,5.43.46,1.01-.86,2.74-1.15,4.18-2.42,12.06-9.51,22.46-11.92,34.6-1.53,7.66-4.66,14.96-10.15,21.83,7.94-1.47,14.93-2.74,22.72-4.19-5.72-3.34-2.37-7.06-1.51-10.62.87-3.71,2.86-4.64,5.58-1.76,2.49,2.64,4.33,2.02,6.83-.03,5.81-4.76,6.05-4.48,7.61,2.78.61,2.8-.36,4.91-1.65,7.4,6.8-.92,13.3-1.79,19.81-2.67ZM275.75,899.79c1.62-4.73,3.08-9.52,4.97-15.43,1.66,5.95,2.97,10.76,4.37,15.57.35,1.22.1,2.35-1.03,2.44-2.49.18-5.02.12-7.51-.18-1.25-.14-1.22-1.21-.8-2.4Z"/>
        <path class="cls-21" d="M413.55,894.38c0,3.44.14,6.4-.05,9.34-.4,6.43-3.76,10.12-10.24,10.76-7.8.77-15.63,1.35-23.46,1.61-7.46.25-10.35-3.37-10.78-10.86-.35-6.17,3.45-12.98-2.33-18.5-.16-.15-.04-.94.17-1.08,7.7-4.95,3.39-12.64,4.11-19.05.7-6.25,4.34-11.35,10.54-11.81,7.6-.57,15.23-.78,22.84-1.29,3.74-.25,7.46,1.08,8.8,3.96,1.84,3.95,2.11,9.7-.11,12.8-2.11,2.96-7.98,2.41-11.79,5.43-.51-10.28-.49-10.15-12.46-8.96-2.93.29-4.09,1.17-4.17,4.11-.26,9.34-.56,18.68-1.15,28-.22,3.54,1.05,4.45,4.3,4.1,2.94-.32,5.93-.17,8.89-.38,1.23-.08,2.8-.15,3.6-.89,6.1-5.65,6.06-5.7,13.29-7.31Z"/>
        <path class="cls-21" d="M506.72,867.5q-2.41-17.57,14.24-17.17c9.33.22,18.66.66,27.98.47,4.15-.08,5.01,1.32,4.7,5.06-.34,4-.09,8.05-.1,12.93-4.86-4.63-10.12-8.31-16.07-4.61-2.89,1.79.38,14.59,3.54,16.47-5.4,5.56-5.61,25.36-.07,30.74-6.67-.01-13.08-.02-19.02-.03,2-10.04,4.34-19.72-.68-29.28-.62-1.19-1.72-2.31-.16-3.08,3.2-1.57,2.23-4.35,2.07-6.66-.23-3.2,1.95-7.92-1.29-9.28-3.96-1.65-8.78-.36-12.69,2.27-.82.55-1.49,1.31-2.45,2.17Z"/>
        <path class="cls-21" d="M663.53,876.17c.01-6.3.02-11.53.03-16.76,5.18.45,10.38.78,15.54,1.37,9.46,1.07,18.9,2.47,28.38,3.36,3.27.31,4.41,1.34,4.23,4.59-.24,4.43-.07,8.88-.08,14.15-4.06-4.06-7.9-7.36-13.51-7.62-3-.14-4.4.18-3.66,3.59,1.17,5.32-1.7,11.37,2.89,16.08-4.87,6.27-.75,13.3-1.68,19.91-.59,4.2.41,7.96,4.77,11.32-7.48-1.01-13.91-1.88-19.53-2.64,1.68-10.41,3.81-20.41-1.28-30.29-.35-.68-.83-2.04-.69-2.12,4.85-2.78,2.06-7.25,2.16-10.83.22-8.1-5.66-11.1-13.07-7.02-1.26.69-2.43,1.56-4.51,2.9Z"/>
        <path class="cls-21" d="M481.55,850.42c6,.01,12.28.02,18.98.03-4.43,5.64-1.83,12.6-3.16,18.89-1.12,5.33,4.04,9.32,1.13,15.04-2.55,5-.56,11.26-.89,16.95-.19,3.37-.43,6.79,4.58,9.35-7.96-.01-14.22-.02-19.94-.04,2.58-10.06.93-20.01.61-30.2-.32-9.85,2.53-19.81-1.31-30.03Z"/>
        <path class="cls-21" d="M251.87,801.65c-.04,2.46.82,5-.67,7.61-2.26-.66-2.66-2.42-2.91-4.28,1.19-1.11,2.39-2.22,3.58-3.33Z"/>
        <path class="cls-6" d="M463.28,810.61c-6.46-.01-11.89-.1-17.31.01-1.68.03-2.24-.14-2.92-2.06-4.44-12.58-11.3-24.05-17.13-36-1.08-2.22-2.78-3.64-5.54-3.38-3.79.35-7.6.5-11.39.79-2.88.22-4.46,1.32-4.46,4.72-.02,11.83-1.87,23.65-.24,35.47.3,2.18-.47,2.57-2.17,2.74-4.81.47-9.61,1.36-14.46.71,1.38-13.84,1.65-27.49,1.87-41.15.05-3-1.75-4.56-3.82-6.14-1.28-.97-3.63-1.65-3.09-3.55.58-2.07,3.15-1.83,4.86-1.99,6.74-.62,13.5-1.04,20.26-1.35,10.99-.51,21.99-1.08,32.99-1.23,4.75-.06,8.61-1.04,11.71-4.9,4.71-5.85,6.83.88,9.27,2.62,4.23,3.03-.89,3.82-2.22,5.08-3.07,2.89-6.39,5.59-9.89,7.94-4.43,2.98-4.72,6.2-2.23,10.72,5.39,9.76,9.32,20.27,15.92,30.94Z"/>
        <path class="cls-6" d="M265.93,826.96c7.16-15.03,10.88-30.97,16.3-46.28,3.32-9.36,5.98-18.05,17.88-18.88-1.25,4.31-2.53,9.27-4.16,14.12-1.35,4.02-.02,5.29,3.8,7.37,11.15,6.06,19.91.74,29.1-4.25,3.45-1.87,2.39-4.72,1.79-7.2-1.09-4.48-2.61-8.86-2.89-14.2,7.92,5.81,15.67,10.1,18.04,20.85,2.48,11.26,7.58,21.95,11.71,32.82,1.22,3.23,2.08,5.01-2.9,5.44-11.82,1.03-11.76,1.34-15.2-9.82-1.62-5.25-3.44-10.44-5.02-15.7-1.36-4.51-4.02-5.13-7.61-2.64-4.17,2.89-8.38,5.78-12.24,9.07-2.36,2.01-4.05,2.21-6.61.43-3.46-2.39-7.02-4.72-11.12-6.01-2.74-.86-4.72-.97-5.54,2.7-2.06,9.22-6.84,17.77-6.96,27.48-.04,3.1-2.42,2.48-4,2.74-4.76.8-9.57,1.32-14.36,1.95Z"/>
        <path class="cls-23" d="M519.71,749.8c-1.37,5.32-2.61,9.96-3.76,14.62-.52,2.09-1.02,4.44,1.39,5.64,4.73,2.36,9.51,6.03,14.42,6.3,6.6.36,12.79-3.63,18.85-6.47,1.65-.77.6-3.12.17-4.72-1.15-4.22-2.38-8.42-3.48-12.28,12.7,4.18,17.19,14.81,21.14,25.97,3.79,10.71,6.95,21.64,12.28,32.54-5.87-.01-10.9,0-15.92-.05-1.15-.01-2.22.3-2.31-1.83-.41-9.92-5.91-18.39-8.31-27.77-.76-2.95-2.57-3.66-5.22-2.02-3.97,2.44-8.18,4.56-11.86,7.37-3.17,2.43-5.48,2.03-8.38-.26-3.14-2.48-6.68-4.47-9.98-6.76-2.94-2.04-4.49-1.02-5.55,2.08-2.86,8.4-6.25,16.7-7.3,25.54-.31,2.64-1.22,2.56-2.95,2.56-4.66-.01-9.32-.02-14.27-.03,5.61-16.79,11.15-33.27,16.59-49.79,1.05-3.2,3.59-4.52,6.23-5.93,2.54-1.36,5-2.87,8.22-4.73Z"/>
        <path class="cls-27" d="M180.91,782.98c.59-7.52.35-7.07,6.81-3.54,6.05,3.31,7.94,7.61,7.44,14.35-.72,9.7-.37,19.49-.5,29.24-.03,2.48-.27,4.59,3.64,3.74,13.21-2.88,26.48-5.44,39.73-8.13,2.91.52,5.17-1.51,7.79-2.07.25.41.66.76.62,1.06-1.41,12.92-1.43,12.82-14.54,15.2-15.56,2.82-31.11,5.66-46.59,8.88-4.79,1-6.11.24-5.74-4.88,1.3-17.92,1.48-35.88,1.35-53.85Z"/>
        <path class="cls-31" d="M696.41,764.56c12.38,1.48,24.77,2.97,37.15,4.44,1.67.2,3.44.8,5,.46,4.1-.88,3.29,1.83,3.42,4.09.18,2.97-.86,4.35-4.05,3.84-6.27-1-12.64-1.48-18.81-2.88-4.52-1.03-5.05.72-4.84,4.43.52,9.1.89,18.21,1.19,27.31.09,2.75.98,4.34,3.9,4.73,14.9,1.98,29.8,3.88,44.64,6.22,2.59.41,5.08-3.83,6.54-.73,1.32,2.82.51,6.63.71,10,.17,3-1.28,3.46-3.95,3.07-20.73-2.98-41.47-5.94-62.24-8.68-3.47-.46-4.05-1.32-4.04-5.04.06-13.77-.69-27.54-1.18-41.31-.12-3.47-1.45-6.49-3.44-9.96Z"/>
        <path class="cls-6" d="M602.04,760.15q13.28-5.44,17.7,8.03c3.09,9.4,6.22,18.79,9.73,29.38,3.87-6.17,4.69-12.04,6.78-17.38,2.01-5.11,3.66-10.36,5.47-15.56.56-1.61,1.02-3.34,2.66-4.16,3.75-1.87,8.24-5.67,11.47-3.91,2.76,1.5-1.02,6.35-1.94,9.6-3.92,13.83-9.38,27.3-12.27,41.32-1.72,8.34-4.98,7.54-11.59,7.52-8.54-.02-11.59-2.9-13.62-10.91-3.78-14.92-8.38-29.68-14.39-43.92Z"/>
        <path class="cls-19" d="M797.54,781.08c.78-.23.98-.36,1.16-.33q15.47,2.55,16.12,18.57c.3,7.18.9,14.36,1.05,21.55.07,3.37,1.21,4.76,4.65,5.35,14.15,2.45,28.27,5.08,42.33,8.02,3.52.74,6.61.59,9.69-1.39q2.63,14.91-11.21,12.44c-18.7-3.38-37.37-6.95-56.11-10.09-3.63-.61-4.27-1.91-4.35-5.23-.34-13.54-1.05-27.06-1.56-40.6-.1-2.78-.47-5.47-1.76-8.29Z"/>
        <path class="cls-8" d="M319.34,906.1c0-3.18.71-6.55-.13-9.49-1.69-5.95,1.7-6.08,5.84-6.28,6.34-.3,12.66-.96,18.99-1.23,2.69-.11,4.32-1.4,5.59-3.5,1.13-1.88,2.46-2.15,4.09-.6,1.48,1.41,1.71,2.85.16,4.36-.15.15-.26.36-.44.45-12.36,6.7-4.53,14.27-1.03,21.74.61,1.3,3,2.69.94,4.26-1.44,1.1-3.68,1.68-5.38.5-1.12-.78-1.85-2.28-2.48-3.59-2.18-4.59-4.66-9.09-6.22-13.89-2.04-6.29-6.85-3.34-10.57-3.71-4.1-.41-3.27,3.02-3.41,5.34-.31,5.28-.61,10.58-.52,15.86.04,2.53-.14,4.18-3.14,4.11-3.1-.08-2.36-2.4-2.39-4.15-.07-3.39-.01-6.78,0-10.17.03,0,.07,0,.1,0Z"/>
        <path class="cls-19" d="M428.53,894.61c.27-14.19.28-14.1,14.39-14.46,6.98-.18,14,.51,20.94-.79,3.03-.57,4.3.85,4.28,3.84-.06,7.21-.08,14.43-.05,21.64.01,2.28-.69,3.58-3.24,3.59-2.85.01-2.88-1.81-2.87-3.83.04-5.52-.04-11.03.12-16.55.08-2.96-.98-4.22-4.04-4.11-6.36.22-12.73.33-19.09.25-3.62-.04-4.85,1.51-4.73,5,.16,4.87.11,9.76-.12,14.63-.1,2.2,1.3,5.76-3.02,5.55-4.35-.21-2.25-3.78-2.49-5.88-.33-2.93-.07-5.93-.07-8.9Z"/>
        <path class="cls-22" d="M602.92,904.22c1.31,5.98.12,8.46-6.87,7.32-7.26-1.19-14.8-.81-22.22-.75-4.16.03-5.51-1.45-5.32-5.61.31-6.77.16-13.57-.08-20.35-.08-2.26-.11-3.65,2.7-3.54,5.51.22,11.02.27,16.53.37,1.35.02,2.66.15,2.64,1.89-.02,1.67-1.29,1.99-2.65,1.98-2.54-.02-5.24.44-7.6-.24-5.22-1.52-5.56,1.17-5.18,5.08.17,1.68.05,3.39,0,5.09-.28,10.2-.28,10.13,10.36,10.42,4,.11,8.16-.68,11.96.89,3.04,1.26,3.85-1.66,5.73-2.55Z"/>
        <path class="cls-8" d="M654.76,903.9c1.47,11.55.11,13.08-8.28,12.14-6.71-.75-13.42-1.49-20.12-2.35-5.38-.69-8.33-3.63-8.26-9.29.06-5.29-.06-10.57-.02-15.86.01-1.44-1.52-3.86,1.36-3.87,2.05,0,4.22,1.07,4.28,3.78.1,4.44.24,8.89.09,13.32-.14,4.37,1.49,6.8,6.11,6.99,2.31.09,4.59.66,6.89.99,6.26.89,12.94,3.91,17.93-5.85Z"/>
        <path class="cls-12" d="M257.12,927.92c4.92-9.29,6.31-19.41,11.24-28.14.94-1.66,2.08-3.21,3.32-5.11,3.07,4.4-3.35,7.81,1.57,10.74,5.36,3.19,10.25,1.5,14.89-1.24,4.63-2.74-1.27-6.46.77-9.93,4.2,3.01,7.11,6.84,8.44,11.93,1.06,4.09,2.36,8.12,3.49,12.19.42,1.51,2.97,3.55-.48,4.38-2.25.55-5.23,1.78-6.16-2.09-.25-1.03-.28-2.11-.52-3.14-2.49-10.55-2.69-10.76-11.58-4.65-2.86,1.97-4.14.27-6.01-.92-4.04-2.57-7.24-3.16-8.22,3.03-.39,2.47-1.79,4.77-2.33,7.24-.9,4.16-3.21,6.14-8.44,5.69Z"/>
        <path class="cls-8" d="M410.44,899.32c-1.46,10.6-2.88,11.93-12.61,12.51-5.28.32-10.55.92-15.84,1.17-7.53.35-9.15-1.23-8.95-8.6.15-5.5.61-11,.63-16.5,0-2.13.35-3.23,2.67-3.08,2.04.13,3.69.22,3.43,3.18-.43,4.85-.33,9.74-.61,14.6-.19,3.31,1.19,4.63,4.46,4.48,4.87-.22,9.75-.31,14.63-.36,3.18-.04,5.71-.97,7.45-3.9.92-1.55,2.04-3.25,4.75-3.5Z"/>
        <path class="cls-22" d="M533.25,895.09c0,3.38-.05,6.76,0,10.15.03,1.94-.4,3.27-2.77,3.22-1.98-.04-2.51-1.09-2.5-2.8.05-7.19.09-14.37.1-21.56,0-1.82.71-2.69,2.63-2.64,1.98.05,2.49,1.17,2.49,2.85-.01,3.59-.01,7.19-.02,10.78h.07Z"/>
        <path class="cls-2" d="M686.21,893.65c3.64,1.06,5.04,2.63,5.1,5.64.12,6.32.57,12.64.71,18.96.03,1.3,1.46,3.78-1.73,3.54-2.12-.16-4.2-.41-4.15-3.52.13-8,.07-16,.08-24.63Z"/>
        <path class="cls-12" d="M493.63,893.84c0,3.79-.04,7.58,0,11.37.01,1.63-.25,2.89-2.28,3.01-2.24.12-2.95-1-2.93-3.05.06-7.16.14-14.32.03-21.47-.04-2.55,1.03-3.27,3.36-3.32,2.92-.06,2.04,1.74,1.99,3.36-.1,3.36-.04,6.73-.05,10.1-.04,0-.08,0-.11,0Z"/>
      </g>
      <g>
        <path class="cls-21" d="M479.47,619.28c4.54,0,10.18.02,16.09.03-2.99,6.89-1.22,13.97-1.79,20.88-.19,2.33,1.46,2.79,3.33,2.56,4.66-.59,12.3,2.16,13.43-1.38,2.13-6.69,3.24-14.77-1.93-21.81,6.35.01,12.52.02,17.54.03-.64,19.72-5.09,39.2-.42,59.31-4.45,0-10.7-.02-17.66-.03,3.55-4.4,1.82-9.59,2.36-14.54.78-7.12-1.97-8.74-8.93-8.76-7.04-.02-8.94,2.4-8.04,8.65.68,4.74-2.24,9.9,3.03,14.81-6.97-.01-12.58-.02-17.66-.03,3.41-19.38-.48-39.17.63-59.71Z"/>
        <path class="cls-21" d="M573.69,666.47c1.99-1.76,4.35-5.41,4.77.91.13,1.98-.04,3.99.27,5.93.95,5.81-1.02,8.02-7.21,7.57-10.15-.75-20.35-.74-30.54-.97-4.49-.1-7.62.72-5.57-6.67,1.84-6.65,2.16-14.3-.61-22.03-1.11-3.11,1.48-9.91,1.56-15.14.08-5.33.39-10.69-1.82-16.23,12.25.02,23.79.1,35.32.03,3.81-.03,4.82,1.9,4.68,5.28-.15,3.65-.05,7.32-.05,12.61-6.53-8.12-14.36-5.06-21.48-5.52-4.45-.28-2.71,3.46-2.74,5.56-.03,2.12-1.51,5.52,2.93,5.45,3.9-.06,7.84.21,11.72-2.2-.01,6.18-.02,11.8-.03,18.24-4.2-3.38-9.23-4.73-13.34-2.39-2.69,1.54-.99,6.26-1.08,9.57,7.74,1.8,15.49,1.9,23.23,0Z"/>
        <path class="cls-21" d="M436.79,679.71c2.91-9.16,3.61-18.52.78-27.78-1.41-4.64,2.11-8.03,1.64-12.6-1.01-9.74-1.42-10.52-10.97-7.34-2.07.69-3.99,1.83-6.04,2.79-.23-.43-.62-.83-.62-1.22-.02-14.31-.02-14.2,13.95-14.03,8.48.11,17.02.36,25.43-.47,7.06-.7,8.91,1.91,7.95,8.3-.37,2.49-.07,5.08-.07,7.57-2.97.58-3.04-2.31-4.61-3.21-3.42-1.95-7.26-1.99-10.61-.7-2.83,1.09-1.67,4.54-1.53,6.87.65,10.69-.72,21.34-.26,32.01.14,3.28-.88,6.91,5.53,9.84-8.78-.02-14.72-.03-20.55-.04Z"/>
        <g>
          <path class="cls-12" d="M502.61,647.76c16.71.22,16.88.22,16.47,16.91-.09,3.79,2.25,10.83-2.12,10.79-4.68-.04-1.46-6.96-2.31-10.75-.93-4.13,2.7-10.25-2.5-12.15-6.29-2.3-13.61-.8-19.94.87-3.71.98-1.87,7-2.7,10.71-.83,3.71,2.37,10.61-2.88,10.45-4.55-.13-2.13-7.09-2.12-10.9.05-19.88-1.23-15.56,18.11-15.93Z"/>
          <path class="cls-4" d="M562.95,650.3c-2.69.77-3.65,1.09-4.63,1.33-3.69.91-9.2-2.28-10.88,1.58-1.9,4.38-1.18,9.97-1.29,15.04-.08,3.26,2.67,3.14,4.89,3.2,6.49.18,12.98.32,19.48.35,1.48,0,3.37-1.53,3.55,1.49.14,2.34-.48,3.7-3.25,3.56-8.74-.45-17.48-.72-26.22-1.11-1.36-.06-2.82.01-3.73-1.42-.82-1.28-.17-24.08.91-25.17.49-.5,1.49-1.02,2.03-.84,5.67,1.88,11.71-1.77,19.14,1.99Z"/>
          <path class="cls-30" d="M443.33,662.56c0-2.82-.03-5.65.03-8.47.03-1.62-.26-3.82,2.14-3.74,1.95.07,2.65,1.9,2.65,3.73,0,6.49-.03,12.99-.11,19.48-.02,1.52-.71,2.92-2.36,2.94-1.69.02-2.3-1.41-2.32-2.92-.04-3.67,0-7.34,0-11.01h-.03Z"/>
        </g>
      </g>
    </g>
    <g>
      <path class="cls-21" d="M317.64,533.42c-.72.17-1.44.32-2.16.47-.89.19-1.78.33-2.68.48-.73.12-1.42.21-2.11.29l-.49.06c-.78.1-1.56.19-2.35.25-1.33.09-2.66.16-3.98.2-1,.03-2,.03-3,.01-.96-.02-1.92-.05-2.88-.11-1.21-.08-2.41-.19-3.61-.32-1.99-.21-4.01-.56-6.15-1.05-2.72-.63-5.16-1.41-7.46-2.4-2.55-1.09-4.69-2.33-6.54-3.78-1.77-1.38-3.13-2.86-4.17-4.52-.92-1.47-1.51-3.02-1.75-4.62l-.13-1.82c0-.24,0-.48.02-.72.11-1.48.5-2.96,1.17-4.37.79-1.69,1.89-3.25,3.37-4.77,1.64-1.68,3.54-3.16,5.81-4.52,3.44-2.05,7.22-3.64,11.57-4.85,1.16-.32,2.33-.6,3.5-.87.85-.2,1.61-.34,2.36-.48.64-.12,1.29-.22,1.94-.31l.29-.04c.78-.11,1.56-.23,2.35-.31.62-.07,1.25-.12,1.88-.18l2.94-.19c.52-.02,1.04-.04,1.56-.05,1.25,0,2.5,0,3.75.03,1.03.03,2.06.08,3.08.17,1.24.11,2.49.26,3.72.42,2.11.28,4.24.71,6.33,1.28,2.74.74,5.12,1.61,7.28,2.66,2.46,1.19,4.48,2.52,6.19,4.06,1.5,1.35,2.63,2.76,3.46,4.31h0c.67,1.25,1.12,2.56,1.31,3.87l.14,1.48-.03.56c-.01.37-.02.74-.07,1.11-.18,1.43-.62,2.84-1.33,4.22-.96,1.86-2.3,3.58-4.09,5.23-1.57,1.44-3.37,2.74-5.5,3.97-3.5,2-7.38,3.55-11.86,4.73-.56.15-1.12.28-1.68.41ZM271.39,517.06l.1.84c.18,1.17.6,2.28,1.3,3.39.83,1.33,1.95,2.54,3.42,3.69,1.63,1.27,3.53,2.37,5.82,3.35,2.13.91,4.39,1.64,6.91,2.22,2.02.46,3.9.79,5.77.99,1.16.13,2.32.23,3.49.31.9.06,1.81.09,2.71.1.95.02,1.89.02,2.84-.01,1.29-.04,2.58-.1,3.86-.19.73-.05,1.45-.14,2.18-.23l.5-.06c.65-.08,1.3-.16,1.94-.27.89-.14,1.73-.28,2.57-.46,1.23-.26,2.47-.53,3.69-.85,4.2-1.1,7.82-2.54,11.07-4.4,1.92-1.1,3.53-2.26,4.92-3.54,1.51-1.39,2.63-2.81,3.41-4.33.54-1.05.86-2.08,1-3.14.03-.27.04-.53.05-.8v-.98s-.08-.48-.08-.48c-.14-.95-.46-1.88-.96-2.82h0c-.66-1.22-1.57-2.35-2.78-3.44-1.48-1.34-3.26-2.5-5.44-3.56-1.98-.96-4.17-1.76-6.71-2.45-1.95-.53-3.94-.93-5.92-1.19-1.19-.16-2.39-.3-3.58-.41-.96-.09-1.92-.13-2.88-.16-1.22-.03-2.43-.03-3.65-.03-.48,0-.96.02-1.45.04l-1.68.06c-.09.02-.17.03-.25.04l-.87.08c-.6.05-1.19.1-1.79.17-.75.08-1.5.19-2.24.3l-.29.04c-.61.09-1.21.18-1.81.29-.7.13-1.4.27-2.1.42-1.23.29-2.36.55-3.48.86-4.07,1.13-7.59,2.61-10.78,4.51-2.03,1.21-3.71,2.52-5.15,4-1.22,1.26-2.13,2.53-2.76,3.89-.5,1.06-.79,2.15-.87,3.24-.01.16-.01.32-.01.48v.48Z"/>
      <g>
        <path class="cls-31" d="M269.8,517.53c-.01-.17-.02-.34-.03-.51,0-.05.01-.1.02-.15,0-.3,0-.6.02-.89.1-1.33.45-2.6,1.02-3.81.76-1.63,1.82-3.05,3.07-4.33,1.63-1.67,3.48-3.06,5.48-4.26,3.5-2.09,7.26-3.59,11.18-4.68,1.17-.33,2.36-.6,3.54-.88.72-.17,1.45-.31,2.18-.44.62-.11,1.25-.21,1.87-.3.86-.12,1.72-.25,2.58-.35.89-.1,1.79-.16,2.68-.24.07,0,.13-.02.19-.03.28-.02.57-.04.85-.05.07,0,.14.01.21,0,.76-.03,1.51-.07,2.27-.07,1.23,0,2.47,0,3.7.03.99.03,1.99.08,2.98.16,1.22.11,2.44.25,3.65.42,2.07.28,4.11.69,6.12,1.24,2.41.65,4.75,1.46,7,2.55,2.1,1.02,4.07,2.24,5.82,3.81,1.25,1.13,2.32,2.39,3.12,3.88.57,1.05.96,2.16,1.14,3.34.03.21.06.42.1.63l.03.48c0,.07-.01.13-.02.2-.02.47-.02.94-.07,1.4-.16,1.3-.57,2.52-1.16,3.68-.94,1.84-2.24,3.39-3.75,4.78-1.59,1.46-3.34,2.68-5.21,3.75-3.6,2.07-7.46,3.51-11.47,4.57-1.24.33-2.5.6-3.76.87-.88.19-1.76.33-2.65.47-.67.11-1.34.2-2.01.28-.92.11-1.84.24-2.76.3-1.31.09-2.61.15-3.92.2-.97.03-1.95.03-2.92.01-.93-.02-1.87-.04-2.8-.11-1.18-.08-2.37-.19-3.55-.32-2.01-.22-3.99-.57-5.96-1.02-2.46-.57-4.86-1.31-7.18-2.31-2.2-.94-4.29-2.08-6.18-3.56-1.48-1.16-2.79-2.5-3.79-4.1-.77-1.23-1.3-2.56-1.52-4-.03-.2-.06-.41-.1-.61ZM312.88,525.52s.07,0,.1,0c1.47-.09,2.94-.18,4.42-.27.08,0,.11-.04.12-.12.06-.46.11-.92.17-1.38.15-1.17.29-2.34.44-3.51.01-.09.03-.15.15-.16,1.42-.08,2.84-.19,4.26-.26.98-.05,1.93-.22,2.84-.6,1.89-.8,3.33-2.1,4.27-3.91,1.06-2.02,1.32-4.17.81-6.4-.38-1.64-1.38-2.77-2.96-3.36-1.04-.39-2.12-.53-3.21-.47-2.27.13-4.54.28-6.81.42-.6.04-1.21.08-1.81.11-.11,0-.15.05-.16.15-.02.21-.05.41-.08.62-.26,1.96-.52,3.92-.78,5.88-.28,2.1-.56,4.21-.84,6.31-.26,1.96-.52,3.92-.78,5.88-.05.35-.09.7-.14,1.06ZM280.39,527.56h.19c1.42-.1,2.84-.19,4.26-.27.15,0,.18-.06.2-.2.2-1.61.4-3.22.61-4.83.01-.1.05-.14.15-.14.19,0,.38-.02.57-.03,1.31-.08,2.61-.16,3.92-.24.87-.05,1.72-.22,2.53-.56,2.29-.96,3.88-2.6,4.78-4.9.41-1.05.6-2.14.61-3.27,0-.82-.07-1.63-.3-2.42-.39-1.31-1.18-2.3-2.42-2.91-1.13-.55-2.34-.74-3.57-.68-2.91.15-5.81.35-8.72.53-.12,0-.17.04-.19.17-.27,2.04-.54,4.08-.81,6.12-.27,2.03-.54,4.05-.81,6.08-.27,2.01-.54,4.01-.81,6.02-.07.5-.13,1-.2,1.53ZM305.11,501.19c-.08,0-.13,0-.18,0-1.42.09-2.85.18-4.28.26-.14,0-.18.06-.2.19-.26,2.01-.53,4.01-.8,6.02-.3,2.25-.6,4.5-.9,6.75-.28,2.07-.55,4.13-.83,6.2-.03.24-.06.48-.09.74.06,0,.11,0,.16,0,1.44-.09,2.88-.18,4.32-.27.11,0,.15-.04.17-.15.19-1.41.38-2.81.57-4.22.25-1.84.5-3.68.75-5.51.05-.39.11-.77.16-1.17.04,0,.07-.01.11-.01,1.22-.08,2.44-.16,3.67-.23.31-.02.63,0,.94.12.28.11.45.32.51.61.08.39.01.77-.03,1.16-.09.78-.19,1.55-.29,2.33-.25,2-.5,4.01-.75,6.01-.03.23-.05.45-.08.7h.23c.83-.07,1.65-.12,2.48-.17.67-.04,1.33-.08,2-.12.11,0,.16-.03.17-.16.15-1.48.32-2.97.48-4.45.2-1.83.39-3.67.59-5.5.06-.58.05-1.15-.14-1.71-.32-.96-.99-1.58-1.88-1.99-1.03-.47-2.13-.6-3.25-.56-1.35.05-2.69.16-4.03.25-.06,0-.12,0-.19.01.22-1.72.43-3.42.65-5.14Z"/>
        <path class="cls-1" d="M312.88,525.52c.05-.36.09-.71.14-1.06.26-1.96.52-3.92.78-5.88.28-2.1.56-4.21.84-6.31.26-1.96.52-3.92.78-5.88.03-.21.06-.41.08-.62.01-.1.05-.14.16-.15.6-.03,1.21-.07,1.81-.11,2.27-.14,4.54-.3,6.81-.42,1.1-.06,2.18.08,3.21.47,1.58.6,2.58,1.73,2.96,3.36.52,2.22.25,4.37-.81,6.4-.95,1.81-2.38,3.12-4.27,3.91-.91.38-1.86.55-2.84.6-1.42.07-2.84.17-4.26.26-.12,0-.14.07-.15.16-.15,1.17-.29,2.34-.44,3.51-.06.46-.12.92-.17,1.38,0,.08-.04.11-.12.12-1.47.09-2.94.18-4.42.27-.03,0-.06,0-.1,0ZM318.9,516.36c.08,0,.14,0,.2,0,.7-.04,1.41-.09,2.11-.13.44-.02.86-.08,1.29-.18.69-.17,1.33-.42,1.88-.89.66-.56,1.02-1.29,1.22-2.11.17-.69.24-1.39.23-2.09-.01-.86-.41-1.49-1.21-1.85-.55-.24-1.13-.29-1.72-.26-1.03.05-2.06.13-3.09.19h-.15c-.25,2.46-.5,4.88-.75,7.32Z"/>
        <path class="cls-1" d="M280.39,527.56c.07-.53.13-1.03.2-1.53.27-2.01.54-4.01.81-6.02.27-2.03.54-4.05.81-6.08.27-2.04.54-4.08.81-6.12.02-.13.07-.16.19-.17,2.91-.18,5.81-.38,8.72-.53,1.23-.06,2.44.13,3.57.68,1.24.61,2.03,1.59,2.42,2.91.24.79.31,1.6.3,2.42,0,1.13-.2,2.22-.61,3.27-.91,2.3-2.5,3.94-4.78,4.9-.81.34-1.66.51-2.53.56-1.31.08-2.61.16-3.92.24-.19.01-.38.03-.57.03-.1,0-.14.04-.15.14-.2,1.61-.41,3.22-.61,4.83-.02.14-.06.19-.2.2-1.42.08-2.84.17-4.26.26h-.19ZM287.18,511.08c-.01.06-.02.1-.03.14-.08.81-.17,1.62-.25,2.44-.16,1.52-.31,3.03-.47,4.55-.02.21-.02.21.19.19.77-.05,1.54-.1,2.31-.14.51-.02,1-.14,1.48-.28,1.39-.41,2.27-1.32,2.65-2.71.2-.71.27-1.45.27-2.18.01-1-.5-1.61-1.22-1.93-.55-.24-1.13-.29-1.72-.26-.95.05-1.9.12-2.84.17-.12,0-.24.02-.38.02Z"/>
        <path class="cls-1" d="M305.11,501.19c-.22,1.72-.43,3.42-.65,5.14.08,0,.13,0,.19-.01,1.34-.08,2.69-.19,4.03-.25,1.12-.04,2.22.09,3.25.56.89.4,1.56,1.03,1.88,1.99.19.56.2,1.13.14,1.71-.19,1.84-.39,3.67-.59,5.5-.16,1.48-.32,2.97-.48,4.45-.01.13-.07.15-.17.16-.67.04-1.33.08-2,.12-.83.05-1.65.1-2.48.16h-.23c.03-.23.06-.46.08-.69.25-2,.5-4.01.75-6.01.1-.78.2-1.55.29-2.33.04-.38.11-.77.03-1.16-.06-.3-.23-.5-.51-.61-.3-.12-.62-.13-.94-.12-1.22.07-2.44.15-3.67.23-.03,0-.06,0-.11.01-.05.39-.11.78-.16,1.17-.25,1.84-.5,3.68-.75,5.51-.19,1.41-.39,2.81-.57,4.22-.02.12-.06.15-.17.15-1.44.09-2.88.18-4.32.27-.05,0-.09,0-.16,0,.03-.26.06-.5.09-.74.28-2.07.55-4.13.83-6.2.3-2.25.6-4.5.9-6.75.27-2.01.53-4.01.8-6.02.02-.13.06-.18.2-.19,1.43-.08,2.85-.18,4.28-.26.05,0,.1,0,.18,0Z"/>
        <path class="cls-31" d="M318.9,516.36c.25-2.44.5-4.87.75-7.31h.15c1.03-.07,2.06-.15,3.09-.2.59-.03,1.17.02,1.72.26.8.36,1.2.99,1.21,1.85,0,.7-.06,1.41-.23,2.09-.21.82-.57,1.55-1.22,2.11-.55.46-1.19.71-1.88.89-.42.11-.85.16-1.29.18-.7.04-1.41.09-2.11.13-.06,0-.12,0-.2,0Z"/>
        <path class="cls-31" d="M287.18,511.08c.13,0,.26-.02.38-.02.95-.06,1.9-.13,2.84-.17.59-.03,1.17.02,1.72.26.72.32,1.23.93,1.22,1.93,0,.74-.08,1.47-.27,2.18-.38,1.39-1.27,2.3-2.65,2.71-.48.14-.97.26-1.48.28-.77.04-1.54.09-2.31.14-.21.01-.21.01-.19-.19.16-1.52.31-3.03.47-4.55.08-.81.17-1.62.25-2.44,0-.04.02-.08.03-.14Z"/>
      </g>
    </g>
  </g>
</svg>